<svg width="393" height="347" viewBox="0 0 393 347" fill="none" xmlns="http://www.w3.org/2000/svg">
<path opacity="0.1" d="M309.724 346.069C341.394 346.069 367.067 341.631 367.067 336.155C367.067 330.68 341.394 326.241 309.724 326.241C278.055 326.241 252.382 330.68 252.382 336.155C252.382 341.631 278.055 346.069 309.724 346.069Z" fill="#FF5E0E"/>
<path d="M84.1288 168.485L83.9865 176.813L82.8219 244.332L72.8603 269.113L38.5261 269.528V172.318L74.3584 169.306L84.1288 168.485Z" fill="#FF5E0E" fill-opacity="0.5"/>
<path opacity="0.1" d="M84.1288 168.485L83.9865 176.813L82.8219 244.332L72.8603 269.113L38.5261 269.528V172.318L74.3584 169.306L84.1288 168.485Z" fill="black"/>
<path d="M84.1288 168.485L83.9866 176.813L82.822 244.332L72.8604 269.113L75.483 176.973L75.4742 176.912L74.3584 169.306L84.1288 168.485Z" fill="#FF5E0E" fill-opacity="0.5"/>
<path opacity="0.1" d="M74.3584 169.306L84.1288 168.485L83.9865 176.813L75.4741 176.912L38.5261 177.351V172.318L74.3584 169.306Z" fill="black"/>
<path d="M392.75 172.319V268.966H384.758L352.78 244.195V169.595L381.349 166.743L383.1 167.598L384.758 168.41L392.75 172.319Z" fill="#FF5E0E" fill-opacity="0.5"/>
<path opacity="0.1" d="M392.751 167.597H384.758V268.966H392.751V167.597Z" fill="black"/>
<path opacity="0.1" d="M392.75 167.598V173.154L384.758 173.253L352.78 173.626V169.595L381.349 166.743L383.1 167.598L384.758 168.41V167.598H392.75Z" fill="black"/>
<path d="M392.75 164.444V172.318L0 176.973V166.951L36.9525 159.015L358.545 156.513L392.75 164.444Z" fill="#FF5E0E" fill-opacity="0.5"/>
<path opacity="0.1" d="M392.75 164.444V172.318L0 176.973V166.951L392.75 164.444Z" fill="black"/>
<path opacity="0.1" d="M66.9261 162.759C76.7043 162.759 84.6311 162.22 84.6311 161.555C84.6311 160.89 76.7043 160.351 66.9261 160.351C57.1479 160.351 49.2211 160.89 49.2211 161.555C49.2211 162.22 57.1479 162.759 66.9261 162.759Z" fill="black"/>
<path d="M122.633 204.945C122.633 204.945 125.438 208.84 121.339 214.722C117.241 220.605 113.858 225.581 115.223 229.235C115.223 229.235 121.41 218.31 126.442 218.159C131.474 218.008 128.154 211.512 122.633 204.945Z" fill="#307457"/>
<path opacity="0.1" d="M122.633 204.945C122.876 205.321 123.069 205.731 123.206 206.163C128.118 212.301 130.736 218.018 126.011 218.159C121.615 218.291 116.338 226.657 115.076 228.753C115.116 228.913 115.165 229.071 115.222 229.225C115.222 229.225 121.41 218.301 126.442 218.15C131.474 217.999 128.153 211.512 122.633 204.945Z" fill="#307457"/>
<path d="M127.829 209.907C127.829 211.281 127.682 212.39 127.505 212.39C127.327 212.39 127.18 211.281 127.18 209.907C127.18 208.533 127.362 209.185 127.54 209.185C127.718 209.185 127.829 208.538 127.829 209.907Z" fill="#FFD037"/>
<path d="M129.616 211.545C128.482 212.201 127.496 212.598 127.393 212.433C127.291 212.267 128.158 211.597 129.291 210.941C130.425 210.285 129.976 210.761 130.06 210.941C130.145 211.12 130.749 210.889 129.616 211.545Z" fill="#FFD037"/>
<path d="M107.799 204.945C107.799 204.945 104.99 208.84 109.093 214.722C113.195 220.605 116.574 225.581 115.205 229.235C115.205 229.235 109.021 218.31 103.985 218.159C98.9488 218.008 102.26 211.512 107.799 204.945Z" fill="#307457"/>
<path opacity="0.1" d="M107.799 204.945C107.554 205.32 107.361 205.73 107.226 206.163C102.309 212.301 99.6956 218.018 104.416 218.159C108.817 218.291 114.093 226.657 115.356 228.753C115.311 228.918 115.262 229.079 115.205 229.225C115.205 229.225 109.021 218.301 103.985 218.15C98.9488 217.999 102.26 211.512 107.799 204.945Z" fill="black"/>
<path d="M102.581 209.907C102.581 211.281 102.727 212.39 102.905 212.39C103.083 212.39 103.23 211.281 103.23 209.907C103.23 208.533 103.047 209.185 102.87 209.185C102.692 209.185 102.581 208.538 102.581 209.907Z" fill="#FFD037"/>
<path d="M100.794 211.545C101.927 212.201 102.914 212.598 103.016 212.433C103.119 212.267 102.256 211.597 101.123 210.941C99.9892 210.285 100.434 210.761 100.349 210.941C100.265 211.12 99.6602 210.889 100.794 211.545Z" fill="#FFD037"/>
<path opacity="0.1" d="M115.209 259.038C131.407 259.038 144.538 256.897 144.538 254.256C144.538 251.615 131.407 249.473 115.209 249.473C99.0113 249.473 85.8802 251.615 85.8802 254.256C85.8802 256.897 99.0113 259.038 115.209 259.038Z" fill="#FF5E0E"/>
<path d="M130.3 223.985L130.158 225.203L129.963 226.921L129.883 227.634L129.687 229.357L129.598 230.07L129.402 231.789L127.158 251.329C126.958 253.076 124.277 254.435 121.037 254.435H109.373C106.137 254.435 103.456 253.076 103.256 251.329L101.007 231.789L100.811 230.07L100.731 229.357L100.527 227.634L100.447 226.921L100.251 225.203L100.109 223.985C99.9978 222.998 101.443 222.167 103.283 222.167H127.131C128.962 222.167 130.416 222.998 130.3 223.985Z" fill="#0F241B"/>
<path d="M130.163 225.198L129.963 226.917H100.451L100.251 225.198H130.163Z" fill="#E7EFFD"/>
<path d="M129.883 227.634L129.687 229.353H100.731L100.531 227.634H129.883Z" fill="#E7EFFD"/>
<path d="M129.603 230.07L129.407 231.789H101.011L100.811 230.07H129.603Z" fill="#E7EFFD"/>
<path d="M204.183 157.617V158.59H177.108V157.802C178.813 157.132 180.284 155.922 181.322 154.337C182.36 152.752 182.915 150.867 182.913 148.936C182.913 147.126 182.424 145.355 181.504 143.833C180.583 142.31 179.27 141.101 177.721 140.348H204.001C202.433 141.107 201.107 142.333 200.184 143.877C199.26 145.421 198.778 147.217 198.798 149.046C198.817 150.875 199.336 152.659 200.292 154.181C201.248 155.702 202.6 156.896 204.183 157.617Z" fill="#C8CAD7"/>
<path opacity="0.1" d="M204.001 140.348C202.794 140.936 201.726 141.804 200.876 142.888C200.026 143.973 199.415 145.245 199.089 146.613H182.642C182.313 145.245 181.701 143.973 180.85 142.889C179.998 141.805 178.929 140.937 177.721 140.348H204.001Z" fill="black"/>
<path d="M146.103 135.391V140.853C146.103 143.865 148.183 146.311 150.744 146.311H230.405C232.965 146.311 235.046 143.865 235.046 140.853V135.391H146.103Z" fill="#C8CAD7"/>
<path opacity="0.1" d="M204.183 157.617V158.59H177.108V157.801C177.85 157.508 178.553 157.111 179.197 156.621H202.525C203.043 157.015 203.599 157.349 204.183 157.617Z" fill="black"/>
<path d="M211.78 156.923H169.52C168.771 156.923 168.164 157.568 168.164 158.363C168.164 159.159 168.771 159.803 169.52 159.803H211.78C212.529 159.803 213.136 159.159 213.136 158.363C213.136 157.568 212.529 156.923 211.78 156.923Z" fill="#C8CAD7"/>
<path d="M235.046 75.581C235.046 74.9337 234.926 74.2928 234.692 73.6948C234.459 73.0969 234.117 72.5535 233.686 72.0959C233.255 71.6382 232.744 71.2751 232.181 71.0275C231.618 70.7798 231.014 70.6523 230.405 70.6523H150.744C149.513 70.6523 148.332 71.1716 147.462 72.0959C146.592 73.0202 146.103 74.2738 146.103 75.581V136.453H235.046V75.581Z" fill="#C8CAD7"/>
<path d="M232.619 77.7762V130.085C232.619 130.728 232.378 131.345 231.949 131.8C231.521 132.256 230.94 132.511 230.334 132.511H150.815C150.209 132.511 149.628 132.256 149.199 131.8C148.771 131.345 148.53 130.728 148.53 130.085V77.7762C148.537 77.3495 148.65 76.9323 148.859 76.5677C149.06 76.1992 149.348 75.8932 149.695 75.6803C150.042 75.4673 150.436 75.355 150.837 75.3544H230.334C230.939 75.3544 231.52 75.6094 231.948 76.0634C232.376 76.5175 232.617 77.1335 232.619 77.7762Z" fill="#E7EFFD"/>
<path d="M190.577 74.1364C191.168 74.1364 191.648 73.627 191.648 72.9987C191.648 72.3703 191.168 71.8609 190.577 71.8609C189.985 71.8609 189.505 72.3703 189.505 72.9987C189.505 73.627 189.985 74.1364 190.577 74.1364Z" fill="white"/>
<path d="M190.577 143.884C192.035 143.884 193.217 142.628 193.217 141.08C193.217 139.531 192.035 138.275 190.577 138.275C189.118 138.275 187.936 139.531 187.936 141.08C187.936 142.628 189.118 143.884 190.577 143.884Z" fill="white"/>
<path d="M232.619 77.7762H148.53C148.53 77.1327 148.771 76.5155 149.199 76.0604C149.628 75.6053 150.209 75.3497 150.815 75.3497H230.334C230.94 75.3497 231.521 75.6053 231.949 76.0604C232.378 76.5155 232.619 77.1327 232.619 77.7762Z" fill="white"/>
<path d="M150.819 77.1673C151.133 77.1673 151.388 76.8967 151.388 76.563C151.388 76.2292 151.133 75.9587 150.819 75.9587C150.505 75.9587 150.25 76.2292 150.25 76.563C150.25 76.8967 150.505 77.1673 150.819 77.1673Z" fill="#FF5E0E"/>
<path d="M152.531 77.1673C152.845 77.1673 153.1 76.8967 153.1 76.563C153.1 76.2292 152.845 75.9587 152.531 75.9587C152.216 75.9587 151.962 76.2292 151.962 76.563C151.962 76.8967 152.216 77.1673 152.531 77.1673Z" fill="#FF5E0E"/>
<path d="M154.242 77.1673C154.556 77.1673 154.811 76.8967 154.811 76.563C154.811 76.2292 154.556 75.9587 154.242 75.9587C153.928 75.9587 153.673 76.2292 153.673 76.563C153.673 76.8967 153.928 77.1673 154.242 77.1673Z" fill="#FF5E0E"/>
<path d="M244.874 183.734C244.874 183.734 250.208 186.038 256.756 188.799C256.98 189.595 257.152 190.406 257.272 191.226C257.387 192.831 260.383 195.093 260.383 195.093C260.383 195.093 265.94 196.159 270.122 197.411C273.372 198.355 273.821 196.466 273.403 195.73L274.376 196.126C274.594 205.682 274.843 212.65 274.843 212.65C274.843 212.65 276.266 212.65 278.51 212.763C278.537 213.065 278.564 213.377 278.595 213.707C279.453 223.149 281.031 238.729 282.253 240.022C284.031 241.849 283.244 255.313 282.56 257.693C281.875 260.072 282.56 277.195 282.56 277.195C282.56 277.195 285.311 287.657 285.08 299.072C284.849 310.487 288.059 316.436 288.059 316.436L289.21 316.526C289.21 316.842 289.174 317.153 289.161 317.47C289.108 318.504 289.068 319.538 289.054 320.477C288.983 321.911 288.519 323.293 287.721 324.452C285.878 327.249 284.608 330.425 283.991 333.776C283.857 334.525 283.762 335.282 283.707 336.042C283.707 336.231 283.685 336.335 283.685 336.335C283.685 336.335 284.751 339.668 294.762 340.777C304.772 341.887 303.323 334.196 303.323 334.196C303.323 334.196 303.372 333.979 303.434 333.582C303.872 330.982 303.886 328.322 303.474 325.717C303.123 323.687 303.425 320.175 303.861 316.955C303.905 316.62 303.954 316.289 303.999 315.964C304.836 315.778 305.623 315.39 306.297 314.831C309.431 311.795 306.297 287.661 306.297 287.661C306.297 287.661 300.643 267.923 302.021 265.067C303.399 262.211 304.999 255.318 304.999 255.318V231.298C307.222 227.488 308.222 222.276 308.635 217.531C308.662 217.215 308.688 216.903 308.711 216.587C310.564 216.625 312.342 216.554 313.956 216.436L314.4 217.38C317.023 222.776 319.69 228.12 320.344 228.909C321.717 230.575 320.57 238.186 320.344 241.991C320.117 245.796 322.864 253.406 322.864 253.406C319.428 255.545 318.739 280.755 318.739 280.755C318.739 280.755 321.259 286.939 315.987 293.836C310.715 300.734 312.778 313.816 313.467 313.339C313.649 313.211 314.765 313.405 316.352 313.683C316.064 314.814 315.548 315.864 314.841 316.762C313.138 319.009 312.556 322.531 312.387 325.344C312.288 326.811 312.288 328.283 312.387 329.749L316.205 332.582C316.205 332.582 318.574 332.582 318.574 334.805C318.574 337.029 324.38 339.243 324.38 339.243C324.38 339.243 333.012 341.778 339.662 339.243C341.818 338.421 342.476 337.01 342.223 335.296C341.698 331.713 337.186 326.798 333.932 323.229C331.737 320.807 330.736 317.597 330.292 314.816C330.243 314.519 330.203 314.226 330.167 313.938C330.435 313.778 330.675 313.569 330.874 313.32C333.626 309.751 336.604 300.002 336.604 300.002C336.604 300.002 335.244 290.041 338.222 280.986C340.445 274.287 343.143 258.585 344.396 250.894C344.854 248.104 344.938 245.259 344.645 242.444C344.067 236.831 343.178 226.43 343.494 218.197C343.601 215.511 343.525 211.238 343.352 206.229V206.159C344.983 202.887 348.521 197.547 354.425 197.108C362.981 196.471 358.55 191.481 358.55 191.481C358.55 191.481 353.531 154.029 350.224 147.382C350.173 147.266 350.116 147.154 350.05 147.047C349.562 146.221 349.028 144.569 348.464 142.364C345.205 129.594 341.036 98.1331 341.036 98.1331L340.525 90.4804C345.628 93.1383 355.096 97.9868 358.914 99.4031C364.248 101.386 371.672 100.116 373.508 93.6151C375.343 87.1144 367.702 73.957 367.702 73.957C366.578 69.2927 358.812 59.5816 354.771 54.7615C354.38 54.1336 353.993 53.5104 353.616 52.9156C352.575 51.268 351.637 49.8139 351.042 48.9594L350.984 49.0775C350.837 48.8603 350.699 48.6573 350.579 48.4873L350.482 48.6951C349.037 45.8625 347.415 42.9496 346.157 41.387C343.232 37.7613 330.474 33.8617 329.212 34.9334C328.292 35.7124 332.11 39.1115 334.781 41.1981L332.23 39.3664L326.527 34.1261L324.015 32.3227C323.911 32.2475 323.801 32.1812 323.686 32.1244C324.34 29.3976 324.419 26.5511 323.918 23.7881C323.417 21.025 322.348 18.4133 320.788 16.1392C320.61 15.8795 320.419 15.6199 320.228 15.3697C322.855 13.047 323.686 9.20881 323.686 5.83331V5.70585C323.492 4.44074 322.963 3.26031 322.162 2.30202C322.202 2.387 322.242 2.48142 322.277 2.57112C321.818 1.94643 321.236 1.43509 320.572 1.07239C319.908 0.709696 319.178 0.504266 318.432 0.470282C316.21 0.432515 314.347 1.981 312.396 3.04322C310.388 4.11114 308.187 4.70617 305.943 4.78765C303.699 4.86913 301.465 4.43513 299.394 3.51531C298.189 2.96768 296.976 2.24065 295.669 2.35395C294.362 2.46726 293.326 3.35952 292.437 4.28955C290.299 6.47801 288.618 9.11898 287.503 12.0414C287.174 12.8959 286.881 13.807 286.245 14.4491C285.761 14.8686 285.236 15.2326 284.68 15.5349C283.722 16.1834 282.897 17.0314 282.256 18.0279C281.615 19.0243 281.171 20.1484 280.951 21.3323C280.536 23.6891 280.769 26.123 281.622 28.3429C282.138 29.8796 282.98 31.269 284.085 32.403C284.916 33.2197 285.912 33.8193 286.792 34.5888C287.191 34.9345 287.564 35.3134 287.907 35.7218C283.91 36.6615 280.255 38.8132 277.386 41.9157C275.23 44.1278 273.429 46.6983 272.052 49.5259C268.331 56.952 266.073 61.5739 264.73 64.5056C264.059 64.7228 263.646 64.8266 263.646 64.8266C263.646 64.8266 258.605 69.5807 258.681 83.2148L254.782 110.483V124.434C254.782 124.434 249.764 139.574 250.586 152.103C250.586 152.273 250.586 152.439 250.617 152.604L250.208 154.733C249.579 155.644 249.265 156.758 249.319 157.887C249.294 158.273 249.321 158.661 249.399 159.038L247.354 169.764L247.741 170.199L246.688 173.348C242.718 180.085 244.874 183.734 244.874 183.734ZM274.354 107.254C274.608 107.438 274.75 107.533 274.75 107.533C274.75 107.533 276.972 128.668 275.639 141.236L270.958 140.896L268.736 140.169L269.531 133.451C269.531 133.451 272.381 115.752 274.336 107.254H274.354ZM292.748 45.905L293.193 45.1779C293.099 45.4376 293.006 45.6925 292.908 45.9286L292.748 45.905ZM271.62 141.132L274.043 141.396L275.577 141.736C275.55 141.963 275.523 142.185 275.497 142.402L271.62 141.132ZM323.686 49.7526C323.685 49.5173 323.67 49.2824 323.642 49.0491L325.544 50.2483L325.66 50.3238C325.002 50.1208 324.326 49.9414 323.686 49.7762V49.7526ZM338.453 59.1001C338.192 58.6649 337.91 58.2442 337.609 57.8396C338.942 58.1795 339.769 58.3778 339.769 58.3778C340.833 58.1814 341.928 58.2989 342.934 58.7177C343.259 59.4212 343.626 60.1024 344.032 60.7571L347.543 67.9802C347.543 67.9802 346.779 68.0605 345.25 67.2674C343.721 66.4743 338.453 59.1001 338.453 59.1001ZM271.736 195.064L272.834 195.536C272.589 195.617 272.198 195.428 271.736 195.064Z" fill="url(#paint0_linear_205_0)"/>
<path d="M309.773 39.8809C311.187 40.7637 311.231 44.5358 311.013 47.562C310.858 49.7761 310.569 51.5889 310.569 51.5889L319.766 75.3355C319.766 75.3355 323.175 58.4155 323.228 50.8619C323.233 50.2659 323.147 49.6731 322.975 49.1057C321.37 43.6624 312.356 40.641 309.773 39.8809Z" fill="#0F241B"/>
<path d="M309.111 39.692C309.111 39.692 309.359 39.7534 309.791 39.8809C309.584 39.7545 309.349 39.6893 309.111 39.692Z" fill="#0F241B"/>
<path d="M312.298 328.772L316.001 331.604C316.001 331.604 318.299 331.604 318.299 333.809C318.299 336.014 323.926 338.214 323.926 338.214C323.926 338.214 332.301 340.73 338.747 338.214C340.836 337.397 341.476 335.999 341.231 334.295C340.72 330.74 336.342 325.882 333.19 322.318C331.061 319.915 330.079 316.728 329.661 313.971C329.353 311.998 329.269 309.993 329.412 307.999L315.854 306.975C316.631 309.148 316.631 311.548 315.854 313.721C315.558 314.498 315.158 315.227 314.667 315.883C313.014 318.112 312.445 321.61 312.285 324.381C312.192 325.843 312.196 327.31 312.298 328.772Z" fill="#0F241B"/>
<path d="M284.436 335.301C284.436 335.301 285.471 338.605 295.18 339.71C304.888 340.815 303.479 333.176 303.479 333.176C303.479 333.176 303.528 332.959 303.59 332.567C304.012 329.985 304.024 327.346 303.625 324.759C303.288 322.748 303.581 319.259 304.003 316.063C304.501 312.258 305.181 308.863 305.181 308.863L290.139 310.044C290.139 310.044 289.877 313.296 289.725 316.582C289.677 317.607 289.636 318.631 289.623 319.566C289.553 320.984 289.103 322.352 288.325 323.508C286.544 326.299 285.322 329.448 284.733 332.761C284.604 333.504 284.512 334.254 284.458 335.008C284.436 335.197 284.436 335.301 284.436 335.301Z" fill="#0F241B"/>
<path d="M312.298 328.772L316.001 331.604C316.001 331.604 318.299 331.604 318.299 333.809C318.299 336.014 323.927 338.214 323.927 338.214C323.927 338.214 332.301 340.73 338.747 338.214C340.836 337.397 341.476 335.999 341.231 334.295C341.031 334.295 340.84 334.323 340.68 334.328C338.04 334.418 335.471 335.173 332.843 335.423C331.347 335.541 329.845 335.566 328.345 335.499C327.601 335.494 326.858 335.432 326.122 335.315C324.344 334.98 322.695 334.002 321.108 333.044C320.72 332.851 320.378 332.567 320.108 332.213C319.894 331.821 319.744 331.393 319.664 330.948C319.104 328.814 317.539 327.105 315.743 325.981C314.65 325.321 313.492 324.791 312.289 324.4C312.196 325.856 312.199 327.316 312.298 328.772Z" fill="#0F241B"/>
<path opacity="0.1" d="M312.298 328.772L316.001 331.604C316.001 331.604 318.299 331.604 318.299 333.809C318.299 336.014 323.927 338.214 323.927 338.214C323.927 338.214 332.301 340.73 338.747 338.214C340.836 337.397 341.476 335.999 341.231 334.295C341.031 334.295 340.84 334.323 340.68 334.328C338.04 334.418 335.471 335.173 332.843 335.423C331.347 335.541 329.845 335.566 328.345 335.499C327.601 335.494 326.858 335.432 326.122 335.315C324.344 334.98 322.695 334.002 321.108 333.044C320.72 332.851 320.378 332.567 320.108 332.213C319.894 331.821 319.744 331.393 319.664 330.948C319.104 328.814 317.539 327.105 315.743 325.981C314.65 325.321 313.492 324.791 312.289 324.4C312.196 325.856 312.199 327.316 312.298 328.772Z" fill="black"/>
<path opacity="0.1" d="M284.436 335.301C284.436 335.301 285.471 338.605 295.18 339.71C304.888 340.815 303.479 333.176 303.479 333.176C303.479 333.176 303.528 332.959 303.59 332.567C303.145 332.813 302.767 333.039 302.594 333.143C301.705 333.695 300.909 334.456 299.985 334.97C297.762 336.212 295.095 335.844 292.588 335.442C291.41 335.253 290.232 335.065 289.059 334.833C288.164 334.703 287.293 334.429 286.476 334.021C285.869 333.645 285.287 333.226 284.733 332.765C284.604 333.509 284.512 334.259 284.458 335.013C284.436 335.197 284.436 335.301 284.436 335.301Z" fill="black"/>
<path opacity="0.1" d="M315.854 306.975C316.631 309.148 316.631 311.548 315.854 313.721C319.744 314.425 326.994 315.846 329.661 313.971C329.353 311.999 329.269 309.993 329.412 307.999L315.854 306.975Z" fill="black"/>
<path opacity="0.1" d="M289.73 316.582C292.477 316.79 299.869 317.201 304.008 316.063C304.505 312.258 305.186 308.863 305.186 308.863L290.143 310.044C290.143 310.044 289.881 313.296 289.73 316.582Z" fill="black"/>
<path d="M278.884 206.498C278.884 206.498 279.115 209.449 279.484 213.58C280.315 222.956 281.849 238.436 283.04 239.696C284.747 241.514 284.004 254.874 283.338 257.235C282.671 259.595 283.338 276.591 283.338 276.591C285.016 283.69 285.837 290.988 285.783 298.307C285.56 309.637 288.672 315.539 288.672 315.539C288.672 315.539 303.341 316.955 306.377 313.943C309.413 310.931 306.377 286.977 306.377 286.977C306.377 286.977 300.883 267.399 302.216 264.566C303.55 261.734 305.106 254.888 305.106 254.888V231.047C307.261 227.271 308.217 222.078 308.631 217.385C308.96 213.371 308.97 209.334 308.662 205.318C308.662 205.318 311.422 211.314 314.236 217.243C316.778 222.602 319.366 227.903 320.015 228.687C321.348 230.339 320.237 237.893 320.015 241.67C319.792 245.446 322.459 253 322.459 253C319.126 255.124 318.459 280.146 318.459 280.146C318.459 280.146 320.904 286.283 315.792 293.128C310.68 299.974 312.68 312.956 313.347 312.484C314.014 312.012 327.571 316.025 330.238 312.484C332.905 308.943 335.795 299.265 335.795 299.265C335.795 299.265 334.461 289.351 337.351 280.382C339.493 273.734 342.12 258.151 343.338 250.517C343.775 247.746 343.848 244.924 343.556 242.132C342.996 236.557 342.134 226.237 342.44 218.055C342.543 215.388 342.471 211.148 342.303 206.177C341.729 189.135 339.995 163.528 339.995 163.528L327.949 154.86L319.997 149.138L318.05 149.455L281.769 155.408L280.359 174.415L278.884 206.498Z" fill="#307457"/>
<path opacity="0.1" d="M327.958 154.87L328.594 158.58C328.594 158.58 333.928 185.726 335.039 199.653C336.15 213.58 340.818 209.567 340.818 209.567C341.225 208.397 341.725 207.267 342.311 206.187C341.738 189.144 340.004 163.537 340.004 163.537L327.958 154.87Z" fill="black"/>
<path d="M289.85 51.8864C289.85 51.8864 314.743 73.0505 310.147 68.8016C307.631 66.4695 309.342 56.5271 311.404 48.0293C313.103 41.0187 315.036 34.9853 315.036 34.9853C315.036 34.9853 293.308 13.3963 294.886 31.048C295.442 37.2702 294.98 41.6938 294.148 44.8191C292.624 50.5456 289.85 51.8864 289.85 51.8864Z" fill="#EFB7B9"/>
<path opacity="0.1" d="M291.921 46.2589L307.702 59.3596L312.293 53.9305C312.293 53.9305 316.223 52.1224 316.516 54.1666C316.81 56.2107 317.925 68.8016 315.627 69.9818C313.329 71.1621 310.369 71.9505 307.777 71.5586C305.186 71.1668 302.292 68.0934 300.367 66.9132C298.442 65.733 291.33 59.5957 291.33 59.5957L287.774 54.3271L291.921 46.2589Z" fill="black"/>
<path d="M291.921 46.7311L307.702 59.8318L312.293 54.4027C312.293 54.4027 316.223 52.5945 316.516 54.6387C316.81 56.6829 317.925 69.2737 315.627 70.454C313.329 71.6342 310.369 72.4226 307.777 72.0308C305.186 71.6389 302.292 68.5656 300.367 67.3853C298.442 66.2051 291.33 60.0678 291.33 60.0678L287.774 54.7992L291.921 46.7311Z" fill="#0F241B"/>
<path opacity="0.1" d="M278.884 206.498C278.884 206.498 279.115 209.449 279.484 213.58C284.373 213.778 293.859 214.392 300.518 216.242C303.175 216.941 305.898 217.319 308.635 217.371C308.964 213.357 308.974 209.32 308.666 205.304C308.666 205.304 311.427 211.3 314.24 217.229C316.647 217.057 319.042 216.727 321.41 216.242L318.445 175.326C318.445 175.326 318.543 161.592 318.054 149.441L281.769 155.408L280.359 174.415L278.884 206.498Z" fill="black"/>
<path opacity="0.1" d="M306.146 58.2597C306.146 58.2597 295.366 45.7443 292.81 47.7319C290.254 49.7194 288.601 54.5631 288.601 54.5631L297.38 64.7888L306.146 58.2597Z" fill="black"/>
<path d="M305.701 57.7877C305.701 57.7877 294.922 45.2724 292.366 47.26C289.81 49.2475 288.156 54.0912 288.156 54.0912L296.935 64.3169L305.701 57.7877Z" fill="#0F241B"/>
<path opacity="0.1" d="M314.663 65.8087L308.44 57.5234C308.44 57.5234 309.417 49.6913 311.693 50.6921C313.969 51.693 314.663 55.7011 314.663 55.7011V65.8087Z" fill="black"/>
<path d="M315.107 65.2609L308.915 56.9756C308.915 56.9756 309.893 49.1435 312.169 50.1444C314.445 51.1452 315.107 55.1533 315.107 55.1533V65.2609Z" fill="#0F241B"/>
<path opacity="0.1" d="M286.587 50.3899C286.587 50.3899 299.349 65.0249 306.968 66.0069C307.657 66.0966 308.346 66.2193 309.026 66.3657C311.018 66.7811 315.356 66.3657 314.667 54.2658L315.627 52.1225L321.557 55.9795L323.557 73.2866L327.113 117.664L332.372 167.078C332.372 167.078 316.223 165.426 311.702 169.755C307.181 174.084 305.923 146.15 305.923 146.15L293.553 89.4985L280.364 53.0667L286.587 50.3899Z" fill="black"/>
<path opacity="0.1" d="M280.364 54.9551L293.553 91.3869L305.923 148.039C305.923 148.039 307.186 175.968 311.702 171.643C313.178 170.227 315.898 169.453 318.89 169.052C322.569 168.63 326.274 168.541 329.967 168.787C331.443 168.872 332.372 168.967 332.372 168.967L327.109 119.552L323.553 75.175L321.553 57.868L315.627 54.0109L314.663 56.1542C314.663 56.4705 314.694 56.7821 314.707 57.0984C315.125 68.2777 310.96 68.6743 309.026 68.2683C308.342 68.1219 307.657 67.9992 306.964 67.9095C301.567 67.206 293.593 59.6666 289.401 55.3328C287.672 53.5388 286.583 52.2925 286.583 52.2925L280.364 54.9551Z" fill="black"/>
<path d="M280.364 53.5387L293.553 89.9705L305.923 146.622C305.923 146.622 307.186 174.552 311.702 170.227C313.178 168.811 315.898 168.037 318.89 167.635C322.569 167.213 326.274 167.125 329.967 167.371C331.443 167.456 332.372 167.55 332.372 167.55L327.109 118.136L323.553 73.7587L321.553 56.4516L315.627 52.5945L314.663 54.7379C314.663 55.0542 314.694 55.3657 314.707 55.682C315.125 66.8613 310.96 67.2579 309.026 66.8519C308.342 66.7055 307.657 66.5828 306.964 66.4931C301.567 65.7897 293.593 58.2503 289.401 53.9164C287.672 52.1224 286.583 50.8761 286.583 50.8761L280.364 53.5387Z" fill="#E7EFFD"/>
<path opacity="0.1" d="M314.663 54.7379C314.663 55.0542 314.694 55.3658 314.707 55.6821L314.809 55.7577C316.374 56.8529 318.886 75.3497 318.886 75.3497L322.144 122.479L328.145 157.65C328.145 157.65 328.932 161.659 329.963 167.385C331.439 167.47 332.368 167.565 332.368 167.565L327.109 118.136L323.553 73.7587L321.553 56.4516L315.627 52.5946L314.663 54.7379Z" fill="black"/>
<path d="M310.582 51.5891C310.582 51.5891 314.138 54.6483 315.703 55.7435C317.268 56.8388 319.779 75.3356 319.779 75.3356L323.037 122.465L329.038 157.636C329.038 157.636 334.373 184.782 335.484 198.709C336.595 212.636 341.262 208.623 341.262 208.623C341.262 208.623 344.747 197.765 353.042 197.137C361.337 196.509 357.043 191.547 357.043 191.547C357.043 191.547 352.184 154.36 348.988 147.736C348.938 147.623 348.882 147.512 348.819 147.406C348.348 146.585 347.828 144.946 347.281 142.756C344.121 130.085 340.08 98.8507 340.08 98.8507L337.56 60.1387C331.11 48.9736 311.107 49.3608 311.107 49.3608L310.582 51.5891Z" fill="#0F241B"/>
<path opacity="0.1" d="M280.364 53.5387L293.553 89.9705L305.923 146.622C305.923 146.622 307.186 174.552 311.702 170.227C313.178 168.811 315.898 168.037 318.89 167.635C318.837 158.033 318.561 140.801 317.259 133.559C316.131 126.942 315.661 120.217 315.854 113.495L299.7 76.1192C299.7 76.1192 287.552 60.2142 287.476 57.9387C287.449 57.0983 288.312 55.5404 289.405 53.9022C287.676 52.1083 286.587 50.8619 286.587 50.8619L280.364 53.5387Z" fill="black"/>
<path d="M320.961 215.312L318.001 174.396C318.001 174.396 318.223 143.865 316.369 133.559C315.24 126.942 314.767 120.217 314.96 113.495L298.811 76.1191C298.811 76.1191 286.663 60.2141 286.587 57.9386C286.511 55.6631 292.948 48.0954 292.948 48.0954C292.948 48.0954 278.884 49.8422 277.03 56.5271C275.176 63.212 265.028 65.8132 265.028 65.8132C265.028 65.8132 260.138 70.5342 260.214 84.0692C260.29 97.6043 275.772 108.222 275.772 108.222C275.772 108.222 278.364 133.715 276.141 145.206C273.918 156.697 275.843 212.555 275.843 212.555C275.843 212.555 290.734 212.716 300.069 215.312C309.404 217.909 320.961 215.312 320.961 215.312Z" fill="#0F241B"/>
<path d="M299.034 150.399L287.623 196.268C287.623 196.268 286.067 200.361 278.066 197.212C270.065 194.063 246.803 183.838 246.803 183.838C246.803 183.838 244.727 180.217 248.581 173.532L260.214 137.336L299.034 150.399Z" fill="#B07473"/>
<path d="M284.276 170.68L265.828 149.138L254.049 144.063L249.212 169.967L271.607 195.815L284.276 170.68Z" fill="#E1E7EF"/>
<path d="M264.561 177.875C264.561 177.875 270.047 181.298 271.491 181.416C272.936 181.534 278.039 191.764 275.883 191.684C273.727 191.604 268.713 188.851 269.215 190.268C269.718 191.684 272.985 195.933 273.936 195.531C274.887 195.13 275.327 198.647 271.269 197.42C267.211 196.192 261.823 195.116 261.823 195.116C261.823 195.116 258.934 192.874 258.823 191.283C258.712 189.692 256.213 181.307 256.213 181.307L264.561 177.875Z" fill="#EFB7B9"/>
<path d="M352.624 57.0181C352.624 57.0181 347.877 46.1363 345.041 42.5342C342.205 38.9321 329.834 35.0656 328.594 36.1278C327.353 37.19 334.817 43.1573 336.15 43.9221C337.484 44.6869 327.531 51.792 327.331 51.9478C327.131 52.1036 319.552 51.2302 323.442 53.9448C327.331 56.6593 338.831 59.4258 338.831 59.4258C339.605 59.283 340.399 59.3094 341.163 59.5034C341.927 59.6974 342.646 60.0549 343.276 60.5541C345.503 62.2726 352.624 57.0181 352.624 57.0181Z" fill="#EFB7B9"/>
<path opacity="0.1" d="M253.866 178.423C254.495 180.611 255.338 182.724 256.382 184.725C257.494 183.658 268.104 179.943 268.104 179.943L266.926 178.012L265.006 174.868C265.006 174.868 255.547 172.687 253.938 174.868C253.395 175.6 253.493 176.95 253.866 178.423Z" fill="black"/>
<path d="M253.422 177.951C254.05 180.139 254.894 182.252 255.938 184.253C257.049 183.186 267.66 179.471 267.66 179.471L266.482 177.54L264.561 174.396C264.561 174.396 255.102 172.215 253.493 174.396C252.951 175.127 253.049 176.478 253.422 177.951Z" fill="#0F241B"/>
<path opacity="0.1" d="M341.778 59.4777C342.119 60.288 342.52 61.0678 342.978 61.8099C344.69 64.6755 347.281 68.0558 347.281 68.0558C347.281 68.0558 357.39 63.1176 357.39 62.9005C357.39 62.6833 354.322 57.5516 351.829 53.5057C350.82 51.8723 349.908 50.4276 349.331 49.5826C349.331 49.5826 345.557 57.967 341.832 58.0237C340.858 58.0378 341.378 58.4533 341.778 59.4777Z" fill="black"/>
<path d="M342.223 59.95C342.563 60.7602 342.965 61.5401 343.423 62.2822C345.134 65.1478 347.726 68.528 347.726 68.528C347.726 68.528 357.834 63.5899 357.834 63.3727C357.834 63.1555 354.767 58.0238 352.273 53.9779C351.264 52.3445 350.353 50.8999 349.775 50.0548C349.775 50.0548 346.001 58.4393 342.276 58.4959C341.302 58.5101 341.823 58.9255 342.223 59.95Z" fill="#0F241B"/>
<path d="M285.218 146.542L286.516 142.411L268.3 141.051L275.105 141.821L283.773 143.794L283.107 146.542H285.218Z" fill="#B07473"/>
<path opacity="0.1" d="M253.422 177.951C255.431 176.945 260.792 174.854 266.482 177.54L264.561 174.396C264.561 174.396 255.102 172.215 253.493 174.396C252.951 175.127 253.049 176.478 253.422 177.951Z" fill="black"/>
<path d="M252.36 152.443C252.404 153.128 252.444 153.812 252.484 154.492C252.595 156.574 252.671 158.637 252.72 160.629C252.942 169.854 252.582 177.464 252.582 177.464C252.582 177.464 259.472 173.06 266.806 176.756L267.544 161.828V161.569L268.296 155.04L270.731 133.951C270.731 133.951 275.323 104.681 276.732 103.581C278.142 102.481 266.286 78.796 266.286 78.796L260.21 84.0693L256.431 111.135V124.981C256.431 124.981 251.542 140.013 252.36 152.443Z" fill="#0F241B"/>
<path opacity="0.1" d="M342.005 59.2843L343.427 62.2821C345.138 65.1477 347.73 68.528 347.73 68.528C347.73 68.528 357.838 63.5898 357.838 63.3726C357.838 63.1555 354.771 58.0238 352.277 53.9779C351.508 53.0337 351.042 52.5144 351.042 52.5144C354.006 60.304 342.005 59.2843 342.005 59.2843Z" fill="black"/>
<path d="M333.408 57.9387L337.56 60.1482C337.56 60.1482 342.672 67.4657 344.152 68.2541C345.632 69.0425 346.374 68.9622 346.374 68.9622L342.005 59.7563C342.005 59.7563 354.007 60.7761 351.042 52.9865C351.042 52.9865 364.453 68.5657 365.933 74.8634C365.933 74.8634 373.343 87.9217 371.565 94.3752C369.787 100.829 362.599 102.085 357.412 100.121C352.224 98.1567 336.297 89.4985 336.297 89.4985L333.408 57.9387Z" fill="#0F241B"/>
<path opacity="0.1" d="M348.299 73.2867C348.299 73.2867 359.487 86.5857 358.598 88.3938C357.709 90.202 348.89 75.9635 348.299 73.2867Z" fill="black"/>
<path opacity="0.2" d="M297.811 37.4875C297.811 37.4875 282.066 32.4503 273.176 50.626C264.286 68.8018 263.988 70.0623 264.433 70.9262C264.877 71.7901 282.138 66.9936 283.102 69.1181C284.067 71.2425 273.323 79.9763 273.323 79.9763L314.956 113.495L297.464 74.009C296.288 71.243 294.72 68.6845 292.815 66.4224C289.939 63.0044 286.005 57.7689 287.396 56.1543C288.623 54.738 290.588 51.0415 293.237 46.7879C295.18 43.6673 298.265 40.1502 297.811 37.4875Z" fill="black"/>
<path d="M298.256 37.0153C298.256 37.0153 282.511 31.978 273.621 50.1538C264.73 68.3295 264.433 69.59 264.877 70.454C265.322 71.3179 282.582 66.5214 283.547 68.6459C284.511 70.7703 273.767 79.5041 273.767 79.5041L314.956 113.495L297.909 73.5368C296.733 70.7708 295.165 68.2123 293.259 65.9502C290.383 62.5322 286.449 57.2966 287.841 55.6821C289.068 54.2658 291.032 50.5692 293.682 46.3156C295.624 43.1951 298.709 39.6779 298.256 37.0153Z" fill="#0F241B"/>
<path opacity="0.1" d="M298.256 37.0153C298.256 37.0153 282.511 31.978 273.621 50.1538C264.73 68.3295 264.433 69.59 264.877 70.454C265.322 71.3179 282.582 66.5214 283.547 68.6459C284.511 70.7703 273.767 79.5041 273.767 79.5041L314.956 113.495L297.091 71.6153C296.4 69.9873 295.463 68.49 294.317 67.1823C291.503 63.9626 286.267 57.5091 287.841 55.6821C289.068 54.2658 291.032 50.5692 293.682 46.3156C295.624 43.1951 298.709 39.6779 298.256 37.0153Z" fill="black"/>
<path d="M295.033 120.336C296.832 120.336 298.291 118.787 298.291 116.875C298.291 114.964 296.832 113.415 295.033 113.415C293.233 113.415 291.775 114.964 291.775 116.875C291.775 118.787 293.233 120.336 295.033 120.336Z" fill="#307457"/>
<path d="M295.033 141.816C296.832 141.816 298.291 140.267 298.291 138.356C298.291 136.445 296.832 134.895 295.033 134.895C293.233 134.895 291.775 136.445 291.775 138.356C291.775 140.267 293.233 141.816 295.033 141.816Z" fill="#307457"/>
<path d="M252.72 160.629C254.596 161.101 263.49 160.889 267.535 161.828V161.569L268.287 155.04C263.726 154.435 253.813 153.288 252.471 154.492C250.733 156.064 250.484 160.086 252.72 160.629Z" fill="#0F241B"/>
<path opacity="0.1" d="M252.72 161.102C254.596 161.574 263.49 161.361 267.535 162.301V162.041L268.287 155.512C263.726 154.908 253.813 153.76 252.471 154.964C250.733 156.536 250.484 160.559 252.72 161.102Z" fill="black"/>
<path opacity="0.1" d="M252.72 160.629C254.596 161.101 263.49 160.889 267.535 161.828V161.569L268.287 155.04C263.726 154.435 253.813 153.288 252.471 154.492C250.733 156.064 250.484 160.086 252.72 160.629Z" fill="black"/>
<path d="M254.658 159.562C255.743 159.562 256.622 158.628 256.622 157.476C256.622 156.323 255.743 155.389 254.658 155.389C253.573 155.389 252.693 156.323 252.693 157.476C252.693 158.628 253.573 159.562 254.658 159.562Z" fill="#307457"/>
<path opacity="0.1" d="M291.775 165.818L283.475 195.876C283.475 195.876 281.253 196.976 281.253 195.012C281.253 193.048 291.775 165.818 291.775 165.818Z" fill="white"/>
<path opacity="0.1" d="M294.958 43.3414C295.482 43.788 296.029 44.2026 296.598 44.583C299.42 46.4714 301.932 49.0396 305.533 49.0396C307.53 49.0427 309.513 48.6966 311.405 48.0152C313.103 41.0045 315.036 34.9711 315.036 34.9711C315.036 34.9711 293.308 13.3821 294.886 31.0338C295.442 37.2561 295.789 40.2161 294.958 43.3414Z" fill="black"/>
<path d="M287.281 28.7112C287.281 32.545 288.351 36.2928 290.357 39.4805C292.362 42.6683 295.213 45.1528 298.548 46.62C301.883 48.0871 305.553 48.471 309.093 47.723C312.634 46.9751 315.886 45.1289 318.438 42.418C320.991 39.707 322.729 36.2531 323.433 32.4929C324.138 28.7327 323.776 24.8351 322.395 21.2931C321.013 17.7511 318.674 14.7237 315.672 12.5937C312.671 10.4637 309.142 9.32687 305.532 9.32687C303.132 9.31499 300.754 9.80828 298.534 10.7782C296.315 11.7482 294.298 13.1756 292.601 14.9779C290.904 16.7803 289.56 18.9219 288.647 21.2791C287.734 23.6363 287.269 26.1623 287.281 28.7112Z" fill="#EFB7B9"/>
<path d="M315.876 44.9373C316.044 45.3807 316.344 45.7538 316.73 45.9995L319.628 47.8879L325.047 51.3861L333.621 56.9191C333.823 57.0481 334.027 57.1662 334.235 57.2732C335.24 57.8155 336.349 58.106 337.476 58.1224C338.603 58.1387 339.719 57.8805 340.738 57.3676C341.508 57 342.184 56.4437 342.712 55.7445C343.24 55.0452 343.604 54.223 343.774 53.3453C344.002 52.1235 343.906 50.8583 343.496 49.6912C343.087 48.524 342.379 47.5008 341.454 46.7359C341.407 46.6937 341.353 46.6631 341.294 46.6462C339.469 46.1024 337.752 45.2114 336.226 44.0167L330.83 40.051L326.011 35.3726L323.575 33.5833C323.218 33.3205 322.798 33.1719 322.364 33.1552C321.93 33.1384 321.5 33.2542 321.126 33.4889C318.628 35.0232 313.654 38.9699 315.876 44.9373Z" fill="#E1E7EF"/>
<path d="M319.628 47.8595L325.046 51.3577C326.176 46.5234 329.047 43.1101 331.541 40.5325L326.011 35.3394C321.806 37.5536 320.135 44.9372 319.628 47.8595Z" fill="#0F241B"/>
<path opacity="0.1" d="M334.221 57.2447C335.226 57.7871 336.335 58.0776 337.463 58.0939C338.59 58.1103 339.706 57.8521 340.724 57.3391C341.494 56.9715 342.17 56.4152 342.698 55.716C343.226 55.0168 343.59 54.1946 343.761 53.3169C343.989 52.095 343.893 50.8299 343.483 49.6627C343.073 48.4956 342.366 47.4724 341.44 46.7075C340.094 47.3125 338.849 48.1429 337.751 49.1671C336.219 50.5758 335.109 52.4305 334.559 54.5018C334.341 55.398 334.228 56.3192 334.221 57.2447Z" fill="black"/>
<path opacity="0.1" d="M287.281 28.7112C287.277 31.5343 287.857 34.3239 288.979 36.8832C290.08 38.0476 290.919 39.4614 291.432 41.0187C292.668 42.6144 293.153 43.5161 294.802 44.6208C295.464 43.8797 296.958 43.4312 297.229 42.4728C297.918 40.0037 297.527 37.3647 297.491 34.7918C297.491 33.6493 297.642 32.2991 298.589 31.7515C299.376 31.2794 300.367 31.6193 301.141 32.0819C301.914 32.5446 302.683 33.1441 303.572 33.2527C304.906 33.4132 306.124 32.4171 306.87 31.2463C307.617 30.0755 308.048 28.7064 308.755 27.5073C309.689 25.9258 311.067 24.7125 312.422 23.5322C313.974 22.1726 315.481 20.6666 317.134 19.4486C318.121 18.7168 319.304 18.3769 320.277 17.6404L320.433 17.5177C318.195 14.1589 315.01 11.6433 311.337 10.3349C307.664 9.02642 303.695 8.99304 300.003 10.2396C296.311 11.4861 293.088 13.9478 290.801 17.2686C288.514 20.5893 287.281 24.5968 287.281 28.7112Z" fill="black"/>
<path d="M323.242 7.28258C322.855 4.5633 320.735 2.00926 318.148 1.96205C316.01 1.92428 314.187 3.46331 312.294 4.51609C310.354 5.57747 308.218 6.1702 306.038 6.25182C303.858 6.33344 301.687 5.90192 299.683 4.98819C298.523 4.44528 297.34 3.72297 296.073 3.83627C294.806 3.94958 293.797 4.82768 292.917 5.72466C290.839 7.9112 289.211 10.5314 288.134 13.4199C287.819 14.2696 287.53 15.1713 286.916 15.8134C286.445 16.2242 285.936 16.5833 285.396 16.885C284.467 17.5403 283.67 18.386 283.052 19.3726C282.435 20.3592 282.009 21.4668 281.8 22.6305C281.399 24.9708 281.626 27.3836 282.453 29.5939C282.954 31.1096 283.77 32.486 284.84 33.6209C285.649 34.4282 286.618 35.0372 287.467 35.7878C288.85 37.0376 289.904 38.6464 290.527 40.4574C291.151 42.2684 291.322 44.22 291.024 46.122C293.388 46.698 295.655 44.4508 296.358 41.9817C297.06 39.5127 296.656 36.8784 296.62 34.3007C296.62 33.1582 296.771 31.8128 297.718 31.2651C298.505 30.793 299.496 31.1329 300.269 31.5956C301.043 32.0583 301.808 32.6531 302.701 32.7664C304.035 32.9269 305.253 31.9308 305.999 30.76C306.746 29.5892 307.173 28.2201 307.884 27.021C308.813 25.4394 310.196 24.2262 311.551 23.0459C313.103 21.6863 314.61 20.1803 316.259 18.9623C317.25 18.2305 318.432 17.8906 319.406 17.1541C322.331 14.9306 323.242 10.8516 323.242 7.28258Z" fill="#331100"/>
<path opacity="0.1" d="M309.111 39.692C309.111 39.692 309.359 39.7534 309.791 39.8809C309.584 39.7545 309.349 39.6893 309.111 39.692Z" fill="black"/>
<path opacity="0.1" d="M295.451 40.4569C296.14 37.9878 295.749 35.3488 295.713 32.7759C295.713 31.6334 295.864 30.2832 296.811 29.7356C297.598 29.2635 298.589 29.6034 299.363 30.066C300.136 30.5287 300.901 31.1283 301.794 31.2368C303.128 31.3973 304.346 30.4059 305.092 29.2304C305.839 28.0549 306.266 26.6905 306.977 25.4914C307.906 23.9099 309.289 22.6966 310.644 21.5164C312.196 20.1614 313.703 18.6507 315.352 17.4327C316.343 16.701 317.525 16.3611 318.499 15.6246C321.442 13.3868 322.353 9.30792 322.353 5.74359C322.254 5.06013 322.054 4.39743 321.762 3.77966C322.545 4.73928 323.058 5.91411 323.242 7.16932C323.242 10.7337 322.353 14.8126 319.388 17.0503C318.414 17.7868 317.232 18.1267 316.241 18.8584C314.592 20.0765 313.085 21.5872 311.533 22.9421C310.178 24.1223 308.795 25.3356 307.866 26.9171C307.155 28.1163 306.733 29.4854 305.981 30.6562C305.23 31.827 304.008 32.8231 302.683 32.6626C301.794 32.554 301.038 31.9497 300.252 31.4918C299.465 31.0338 298.474 30.7081 297.7 31.1613C296.753 31.7089 296.584 33.0497 296.602 34.2016C296.638 36.7745 297.047 39.3947 296.34 41.8826C295.633 44.3706 293.379 46.6036 291.006 46.0182C291.08 45.5751 291.126 45.1272 291.144 44.6774C293.122 44.498 294.86 42.5766 295.451 40.4569Z" fill="black"/>
<path opacity="0.1" d="M283.951 32.0914C284.76 32.8987 285.729 33.5077 286.578 34.2583C287.513 35.0948 288.298 36.104 288.894 37.2372C288.471 36.6654 287.993 36.1418 287.467 35.6746C286.614 34.9239 285.649 34.3149 284.84 33.5077C284.195 32.8486 283.649 32.0874 283.222 31.251C283.448 31.5478 283.691 31.8286 283.951 32.0914Z" fill="black"/>
<path opacity="0.1" d="M308.506 200.611C308.831 201.636 309.293 202.637 309.355 203.718C309.462 205.554 308.404 207.268 308.329 209.109C308.24 211.252 309.467 213.174 310.64 214.916C309.249 214.916 307.729 214.406 307.022 213.136C306.78 212.647 306.605 212.124 306.502 211.583C305.244 206.253 304.021 200.422 306.208 195.447C306.544 194.586 307.034 193.803 307.653 193.143C308.022 195.654 307.711 198.123 308.506 200.611Z" fill="black"/>
<path opacity="0.1" d="M343.276 162.995L346.97 157.702C347.859 156.423 348.779 155.092 349.099 153.538C349.446 151.834 349.041 150.068 348.988 148.345C348.988 148.152 348.988 147.953 348.988 147.755C348.938 147.641 348.882 147.531 348.819 147.425C348.348 146.603 347.828 144.965 347.281 142.775C346.742 143.343 346.324 144.027 346.054 144.781C344.334 149.238 345.925 154.468 344.503 159.038C344.094 160.351 343.427 161.607 343.276 162.995Z" fill="black"/>
<path opacity="0.1" d="M333.87 323.196C332.045 324.585 329.961 325.544 327.758 326.007C325.556 326.47 323.285 326.428 321.099 325.882" fill="black"/>
<path opacity="0.1" d="M303.265 323.975C302.331 324.905 301.227 325.621 300.021 326.08C298.815 326.538 297.534 326.729 296.256 326.641C294.978 326.552 293.731 326.186 292.592 325.565C291.452 324.944 290.445 324.082 289.632 323.031" fill="black"/>
<path opacity="0.1" d="M322.771 252.806C324.543 253.24 326.401 253.053 328.064 252.271C329.728 251.49 331.108 250.157 331.999 248.472" fill="black"/>
<path opacity="0.1" d="M301.701 264.736C298.884 264.956 296.082 264.139 293.766 262.423L301.701 264.736Z" fill="black"/>
<path opacity="0.1" d="M316.081 293.26C318.45 294.285 320.561 295.876 322.868 297.037C325.176 298.199 327.847 298.963 330.292 298.151" fill="black"/>
<path d="M188.123 300.262C209.02 300.262 225.96 295.073 225.96 288.672C225.96 282.271 209.02 277.082 188.123 277.082C167.226 277.082 150.286 282.271 150.286 288.672C150.286 295.073 167.226 300.262 188.123 300.262Z" fill="#DCE2DF"/>
<path opacity="0.1" d="M188.123 287.255C192.304 287.255 195.693 286.218 195.693 284.937C195.693 283.657 192.304 282.619 188.123 282.619C183.942 282.619 180.553 283.657 180.553 284.937C180.553 286.218 183.942 287.255 188.123 287.255Z" fill="black"/>
<path d="M191.692 223.801H183.913V284.937H191.692V223.801Z" fill="#DCE2DF"/>
<path opacity="0.1" d="M191.692 226.827V233.908C190.136 233.399 186.585 231.25 183.913 229.56V223.801H185.536L191.692 226.827Z" fill="black"/>
<path d="M173.365 197.184C173.365 197.184 199.049 190.164 205.441 184.909C211.833 179.655 236.935 204.383 233.619 213.707C230.303 223.031 218.23 229.796 218.23 229.796C218.23 229.796 184.838 235.565 179.157 223.532C173.476 211.498 173.365 197.184 173.365 197.184Z" fill="#0F241B"/>
<path opacity="0.1" d="M173.365 197.184C173.365 197.184 199.049 190.164 205.441 184.909C211.833 179.655 236.935 204.383 233.619 213.707C230.303 223.031 218.23 229.796 218.23 229.796C218.23 229.796 184.838 235.565 179.157 223.532C173.476 211.498 173.365 197.184 173.365 197.184Z" fill="black"/>
<path d="M171.142 194.351C171.142 194.351 196.826 187.331 203.218 182.077C209.611 176.822 234.712 201.551 231.396 210.875C228.08 220.199 216.007 226.964 216.007 226.964C216.007 226.964 182.615 232.733 176.934 220.699C171.253 208.665 171.142 194.351 171.142 194.351Z" fill="#0F241B"/>
<path opacity="0.1" d="M223.933 146.241C223.835 146.241 223.742 146.217 223.648 146.197C223.745 146.186 223.843 146.201 223.933 146.241Z" fill="black"/>
<path d="M147.841 173.447C145.276 172.781 138.204 172.167 134.839 184.154C134.055 186.938 133.058 189.649 131.856 192.26C128.625 199.299 124.459 213.769 142.796 216.955L186.803 227.578C186.803 227.578 210.362 230.646 211.918 229.466C213.473 228.286 213.251 225.689 213.251 225.689C213.251 225.689 187.247 225.689 182.135 217.191C177.023 208.694 176.801 197.127 176.801 197.127C176.801 197.127 177.441 179.268 150.575 174.079C149.668 173.905 148.752 173.683 147.841 173.447Z" fill="#0F241B"/>
<path opacity="0.1" d="M147.841 173.527C145.276 172.861 138.204 172.248 134.839 184.234C134.055 187.02 133.057 189.732 131.856 192.345C128.625 199.379 124.459 213.854 142.796 217.04L186.803 227.662C186.803 227.662 210.362 230.731 211.918 229.551C213.473 228.371 213.251 225.774 213.251 225.774C213.251 225.774 187.247 225.774 182.135 217.276C177.023 208.779 176.801 197.212 176.801 197.212C176.801 197.212 177.441 179.353 150.575 174.164C149.668 173.985 148.752 173.763 147.841 173.527Z" fill="black"/>
<path d="M240.091 161.234C239.836 159.505 239 157.934 237.737 156.812C236.474 155.689 234.87 155.091 233.223 155.129C227.573 155.243 211.442 155.97 201.609 160.587C199.449 161.602 197.284 162.589 195.062 163.419C193.053 164.18 190.657 165.393 189.47 167.135C188.283 168.877 160.354 191.684 200.583 213.636C200.583 213.636 222.142 220.156 230.587 204.86C230.587 204.86 236.588 188.426 236.144 182.738C235.699 177.049 240.144 161.706 240.144 161.706C240.144 161.706 240.135 161.545 240.091 161.234Z" fill="#0F241B"/>
<path opacity="0.1" d="M240.091 165.369C239.584 162.064 236.624 159.676 233.223 159.737C226.893 159.85 207.41 160.681 198.36 166.474C198.36 166.474 191.47 170.831 189.47 170.831C187.469 170.831 160.354 193.492 200.583 213.759C200.583 213.759 222.142 219.774 230.587 205.653C230.587 205.653 236.588 190.485 236.144 185.235C235.699 179.985 240.144 165.818 240.144 165.818C240.144 165.818 240.135 165.652 240.091 165.369Z" fill="black"/>
<path d="M218.585 213.651H211.473V229.735H218.585V213.651Z" fill="#DCE2DF"/>
<path d="M52.0666 136.886C52.0666 136.886 49.7525 148.333 60.0516 149.691L60.6889 148.42C60.6889 148.42 52.7141 140.458 52.0666 136.886Z" fill="#307457"/>
<path d="M63.9745 148.344L61.5888 148.884L61.3503 148.938C61.3503 148.938 54.9602 143.429 55.042 131.132C55.8971 132.944 56.9188 134.661 58.0922 136.26C60.6175 139.818 63.4973 144.569 63.9745 148.344Z" fill="#307457"/>
<path d="M64.7854 149.524C64.5966 149.654 64.383 149.737 64.1602 149.767C63.9373 149.798 63.7108 149.775 63.4972 149.701C57.3627 148.174 59.4246 126.901 59.4246 126.901C59.7654 127.071 60.1368 129.796 61.5512 133.271C64.0322 139.419 66.7587 147.982 64.7854 149.524Z" fill="#307457"/>
<path d="M78.4244 136.886C78.4244 136.886 78.8231 148.333 68.524 149.691L67.8867 148.42C67.8867 148.42 77.7871 140.458 78.4244 136.886Z" fill="#307457"/>
<path d="M75.4732 131.132C75.5482 143.437 67.2462 148.938 67.2462 148.938L67.0076 148.884L64.622 148.344C65.0957 144.569 67.9823 139.818 70.5111 136.26C71.9415 134.322 73.6105 132.598 75.4732 131.132Z" fill="#307457"/>
<path d="M66.9701 148.409C66.6016 148.886 66.1354 149.268 65.6069 149.524C65.4459 149.601 65.2781 149.66 65.1059 149.701C63.5927 150.063 63.0611 148.92 63.1497 146.951C63.2928 143.444 65.3683 137.364 67.2393 132.836C68.5821 129.557 70.7734 127.075 71.1006 126.912C71.0802 126.894 70.9882 143.466 66.9701 148.409Z" fill="#307457"/>
<path d="M65.2525 119.431C65.2525 119.431 58.3853 145.293 64.2948 149.195C70.2044 153.096 66.7691 121.722 65.2525 119.431Z" fill="#307457"/>
<path opacity="0.1" d="M52.0666 136.886C52.0666 136.886 49.7525 148.333 60.0516 149.691L60.6889 148.42C60.6889 148.42 52.7141 140.458 52.0666 136.886Z" fill="black"/>
<path opacity="0.1" d="M63.9745 148.344L61.5888 148.884L61.3503 148.938C61.3503 148.938 54.9602 143.429 55.042 131.132C55.8971 132.944 56.9188 134.661 58.0922 136.26C60.6175 139.818 63.4973 144.569 63.9745 148.344Z" fill="black"/>
<path opacity="0.1" d="M64.7854 149.524C64.5966 149.654 64.383 149.737 64.1602 149.767C63.9373 149.798 63.7108 149.775 63.4972 149.701C57.3627 148.174 59.4246 126.901 59.4246 126.901C59.7654 127.071 60.1368 129.796 61.5512 133.271C64.0322 139.419 66.7587 147.982 64.7854 149.524Z" fill="black"/>
<path opacity="0.1" d="M78.4244 136.886C78.4244 136.886 78.8231 148.333 68.524 149.691L67.8867 148.42C67.8867 148.42 77.7871 140.458 78.4244 136.886Z" fill="black"/>
<path opacity="0.1" d="M75.4732 131.132C75.5482 143.437 67.2462 148.938 67.2462 148.938L67.0076 148.884L64.622 148.344C65.0957 144.569 67.9823 139.818 70.5111 136.26C71.9415 134.322 73.6105 132.598 75.4732 131.132Z" fill="black"/>
<path opacity="0.1" d="M66.9701 148.409C66.6016 148.886 66.1354 149.268 65.6069 149.524C65.4459 149.601 65.2781 149.66 65.1059 149.701C63.5927 150.063 63.0611 148.92 63.1497 146.951C63.2928 143.444 65.3683 137.364 67.2393 132.836C68.5821 129.557 70.7734 127.075 71.1006 126.912C71.0802 126.894 70.9882 143.466 66.9701 148.409Z" fill="black"/>
<path opacity="0.1" d="M65.2525 119.431C65.2525 119.431 58.3853 145.293 64.2948 149.195C70.2044 153.096 66.7691 121.722 65.2525 119.431Z" fill="black"/>
<path d="M52.0666 136.886C52.0666 136.886 50.7034 148.333 61.0093 149.691L61.6466 148.42C61.6466 148.42 52.7141 140.458 52.0666 136.886Z" fill="#307457"/>
<path d="M64.932 148.344L62.5464 148.884L62.3044 148.938C62.3044 148.938 54.9567 143.429 55.0385 131.132C55.0385 131.132 56.9197 133.274 59.0463 136.26C61.5751 139.818 64.4549 144.569 64.932 148.344Z" fill="#307457"/>
<path opacity="0.1" d="M64.9321 148.344L62.5464 148.883C60.2732 146.766 59.3735 141.24 59.0463 136.26C61.5751 139.818 64.4549 144.569 64.9321 148.344Z" fill="black"/>
<path d="M65.7431 149.524C65.5543 149.654 65.3407 149.737 65.1179 149.767C64.895 149.798 64.6685 149.775 64.4548 149.701C58.3033 148.174 59.4246 126.901 59.4246 126.901C59.7654 127.071 61.0945 129.796 62.4918 133.271C64.9899 139.419 67.7164 147.982 65.7431 149.524Z" fill="#307457"/>
<path d="M78.4244 136.886C78.4244 136.886 79.7876 148.333 69.4817 149.691L68.8444 148.42C68.8444 148.42 77.7871 140.458 78.4244 136.886Z" fill="#307457"/>
<path d="M75.4731 131.132C75.5481 143.437 68.2037 148.938 68.2037 148.938L67.9652 148.884L65.5795 148.344C66.0567 144.569 68.9399 139.818 71.4686 136.26C73.5884 133.267 75.4731 131.132 75.4731 131.132Z" fill="#307457"/>
<path opacity="0.1" d="M71.4584 136.26C71.1517 140.907 70.3508 146.032 68.4082 148.409C68.2727 148.58 68.1246 148.738 67.9651 148.883L65.5795 148.344C66.0396 144.569 68.9296 139.818 71.4584 136.26Z" fill="black"/>
<path d="M67.9276 148.409C67.5592 148.886 67.0929 149.268 66.5644 149.524C66.4023 149.601 66.2333 149.66 66.06 149.701C64.5468 150.063 64.0152 148.92 64.1038 146.951C64.2503 143.444 66.3224 137.364 68.1934 132.836C69.5362 129.557 70.7699 127.075 71.0971 126.912C71.08 126.894 71.9457 143.466 67.9276 148.409Z" fill="#307457"/>
<path opacity="0.1" d="M65.7432 149.524C65.3954 149.522 65.0564 149.407 64.7719 149.195C61.8785 147.28 61.8205 140.096 62.509 133.271C64.99 139.419 67.7165 147.982 65.7432 149.524Z" fill="black"/>
<path opacity="0.1" d="M67.9276 148.409C67.5868 149.173 67.1471 149.578 66.5643 149.524C66.2694 149.482 65.9874 149.37 65.7396 149.195C64.988 148.645 64.4162 147.861 64.1038 146.951C64.2503 143.444 66.3224 137.364 68.1934 132.836C68.8409 139.13 69.0624 145.822 67.9276 148.409Z" fill="black"/>
<path d="M76.591 147.921H51.9986V152.246H55.7509L55.8429 152.756L57.3458 161.149H71.6426L73.1455 152.756L73.2375 152.246H76.591V147.921Z" fill="#D4DFEC"/>
<path d="M76.5807 147.921H51.9882V152.246H55.7405L55.8325 152.756L57.3354 161.149H71.6322L73.1351 152.756L73.2271 152.246H76.5807V147.921Z" fill="#E7EFFD"/>
<path d="M74.5154 150.465L74.103 152.756L72.6001 161.149H58.3033L56.8004 152.756L56.388 150.465H74.5154Z" fill="#0F241B"/>
<path opacity="0.1" d="M74.5154 150.465L74.103 152.756H56.8004L56.388 150.465H74.5154Z" fill="black"/>
<path d="M148.943 115.183C148.925 115.186 148.908 115.194 148.894 115.206C148.871 115.225 148.858 115.253 148.858 115.282V130.191C148.858 131.295 149.753 132.191 150.858 132.191H227.427C228.532 132.191 229.427 131.295 229.427 130.191V103.372C229.427 102.852 228.985 102.442 228.467 102.48L148.943 115.183Z" fill="#307457"/>
<path d="M176.727 92.2487H155.117C154.872 92.2487 154.672 92.4479 154.672 92.6935C154.672 92.9392 154.872 93.1383 155.117 93.1383H176.727C176.972 93.1383 177.171 92.9392 177.171 92.6935C177.171 92.4479 176.972 92.2487 176.727 92.2487Z" fill="#307457"/>
<path d="M176.727 94.2058H155.117C154.872 94.2058 154.672 94.405 154.672 94.6506C154.672 94.8963 154.872 95.0954 155.117 95.0954H176.727C176.972 95.0954 177.171 94.8963 177.171 94.6506C177.171 94.405 176.972 94.2058 176.727 94.2058Z" fill="#307457"/>
<path d="M161.848 96.1628H155.117C154.872 96.1628 154.672 96.362 154.672 96.6076C154.672 96.8533 154.872 97.0524 155.117 97.0524H161.848C162.094 97.0524 162.293 96.8533 162.293 96.6076C162.293 96.362 162.094 96.1628 161.848 96.1628Z" fill="#307457"/>
<path d="M222.609 116.945H201C200.754 116.945 200.555 117.145 200.555 117.39C200.555 117.636 200.754 117.835 201 117.835H222.609C222.855 117.835 223.054 117.636 223.054 117.39C223.054 117.145 222.855 116.945 222.609 116.945Z" fill="white"/>
<path d="M222.609 118.903H201C200.754 118.903 200.555 119.102 200.555 119.347C200.555 119.593 200.754 119.792 201 119.792H222.609C222.855 119.792 223.054 119.593 223.054 119.347C223.054 119.102 222.855 118.903 222.609 118.903Z" fill="white"/>
<path d="M207.731 120.86H201C200.754 120.86 200.555 121.059 200.555 121.304C200.555 121.55 200.754 121.749 201 121.749H207.731C207.976 121.749 208.175 121.55 208.175 121.304C208.175 121.059 207.976 120.86 207.731 120.86Z" fill="white"/>
<path d="M186.576 131.37C187.065 131.37 187.461 130.982 187.461 130.503C187.461 130.023 187.065 129.635 186.576 129.635C186.087 129.635 185.691 130.023 185.691 130.503C185.691 130.982 186.087 131.37 186.576 131.37Z" fill="#F2F2F2"/>
<path d="M189.143 131.457C189.631 131.457 190.028 131.069 190.028 130.589C190.028 130.11 189.631 129.722 189.143 129.722C188.654 129.722 188.258 130.11 188.258 130.589C188.258 131.069 188.654 131.457 189.143 131.457Z" fill="#F2F2F2"/>
<path d="M191.709 131.544C192.198 131.544 192.594 131.156 192.594 130.676C192.594 130.197 192.198 129.808 191.709 129.808C191.22 129.808 190.824 130.197 190.824 130.676C190.824 131.156 191.22 131.544 191.709 131.544Z" fill="#F2F2F2"/>
<path d="M189.151 131.284C189.542 131.284 189.859 130.973 189.859 130.589C189.859 130.206 189.542 129.895 189.151 129.895C188.76 129.895 188.443 130.206 188.443 130.589C188.443 130.973 188.76 131.284 189.151 131.284Z" fill="#307457"/>
<path d="M168.86 102.431H162.944C162.473 102.431 162.092 102.813 162.092 103.284C162.092 103.754 162.473 104.136 162.944 104.136H168.86C169.331 104.136 169.712 103.754 169.712 103.284C169.712 102.813 169.331 102.431 168.86 102.431Z" fill="#307457"/>
<path d="M214.156 125.501H208.241C207.77 125.501 207.388 125.882 207.388 126.353C207.388 126.824 207.77 127.205 208.241 127.205H214.156C214.627 127.205 215.009 126.824 215.009 126.353C215.009 125.882 214.627 125.501 214.156 125.501Z" fill="white"/>
<path opacity="0.3" d="M165.945 108.462C168.856 108.462 171.217 106.148 171.217 103.293C171.217 100.438 168.856 98.1237 165.945 98.1237C163.034 98.1237 160.673 100.438 160.673 103.293C160.673 106.148 163.034 108.462 165.945 108.462Z" fill="#FF5E0E"/>
<path opacity="0.3" d="M165.945 106.739C167.886 106.739 169.459 105.196 169.459 103.293C169.459 101.389 167.886 99.8466 165.945 99.8466C164.004 99.8466 162.431 101.389 162.431 103.293C162.431 105.196 164.004 106.739 165.945 106.739Z" fill="#FF5E0E"/>
<path d="M165.945 105.686C167.293 105.686 168.386 104.614 168.386 103.293C168.386 101.971 167.293 100.9 165.945 100.9C164.597 100.9 163.504 101.971 163.504 103.293C163.504 104.614 164.597 105.686 165.945 105.686Z" fill="#FF5E0E"/>
<path opacity="0.3" d="M210.302 95.6512C213.213 95.6512 215.574 93.3369 215.574 90.4821C215.574 87.6273 213.213 85.313 210.302 85.313C207.391 85.313 205.03 87.6273 205.03 90.4821C205.03 93.3369 207.391 95.6512 210.302 95.6512Z" fill="#FF5E0E"/>
<path opacity="0.3" d="M210.302 93.9281C212.243 93.9281 213.816 92.3853 213.816 90.4821C213.816 88.5789 212.243 87.036 210.302 87.036C208.361 87.036 206.788 88.5789 206.788 90.4821C206.788 92.3853 208.361 93.9281 210.302 93.9281Z" fill="#FF5E0E"/>
<path d="M210.302 92.8752C211.65 92.8752 212.742 91.8037 212.742 90.4821C212.742 89.1604 211.65 88.089 210.302 88.089C208.954 88.089 207.861 89.1604 207.861 90.4821C207.861 91.8037 208.954 92.8752 210.302 92.8752Z" fill="#FF5E0E"/>
<path opacity="0.3" d="M211.242 131.531C214.153 131.531 216.513 129.217 216.513 126.362C216.513 123.507 214.153 121.193 211.242 121.193C208.33 121.193 205.97 123.507 205.97 126.362C205.97 129.217 208.33 131.531 211.242 131.531Z" fill="#FF5E0E"/>
<path opacity="0.3" d="M211.242 129.808C213.183 129.808 214.756 128.265 214.756 126.362C214.756 124.459 213.183 122.916 211.242 122.916C209.301 122.916 207.727 124.459 207.727 126.362C207.727 128.265 209.301 129.808 211.242 129.808Z" fill="#FF5E0E"/>
<path d="M211.242 128.755C212.589 128.755 213.682 127.684 213.682 126.362C213.682 125.04 212.589 123.969 211.242 123.969C209.894 123.969 208.801 125.04 208.801 126.362C208.801 127.684 209.894 128.755 211.242 128.755Z" fill="#FF5E0E"/>
<path d="M225.809 129.402C226.248 130.137 226.851 130.709 227.439 131.14C228.411 131.852 229.621 131.138 229.454 129.945C229.356 129.24 229.14 128.458 228.708 127.735C228.268 127 227.666 126.428 227.078 125.997C226.106 125.285 224.896 125.998 225.063 127.192C225.161 127.896 225.376 128.678 225.809 129.402Z" fill="#F2F2F2"/>
<path d="M226.559 128.701C227.295 129.1 227.879 129.654 228.328 130.203C229.1 131.148 228.414 132.394 227.201 132.26C226.48 132.181 225.678 131.989 224.931 131.583C224.194 131.183 223.61 130.63 223.162 130.081C222.39 129.136 223.075 127.89 224.289 128.024C225.009 128.103 225.811 128.295 226.559 128.701Z" fill="#FF5E0E"/>
<defs>
<linearGradient id="paint0_linear_205_0" x1="309.044" y1="340.89" x2="309.044" y2="0.479709" gradientUnits="userSpaceOnUse">
<stop stop-color="#808080" stop-opacity="0.25"/>
<stop offset="0.54" stop-color="#808080" stop-opacity="0.12"/>
<stop offset="1" stop-color="#808080" stop-opacity="0.1"/>
</linearGradient>
</defs>
</svg>
