<svg width="448" height="258" viewBox="0 0 448 258" fill="none" xmlns="http://www.w3.org/2000/svg">
<g clip-path="url(#clip0_174_542)">
<path d="M97.0692 228.492C109.937 228.492 120.368 218.061 120.368 205.194C120.368 192.326 109.937 181.895 97.0692 181.895C84.2017 181.895 73.7706 192.326 73.7706 205.194C73.7706 218.061 84.2017 228.492 97.0692 228.492Z" fill="#F4FBF8"/>
<path d="M100.858 225.083C113.725 225.083 124.156 214.652 124.156 201.784C124.156 188.917 113.725 178.486 100.858 178.486C87.9902 178.486 77.5591 188.917 77.5591 201.784C77.5591 214.652 87.9902 225.083 100.858 225.083Z" fill="#FF5E0E"/>
<path d="M407.887 176.005H119.621V176.791H407.887V176.005Z" fill="#0F241B"/>
<path d="M268.914 7.33532H166.598V5.22649H120.203V7.33532H17.4651C16.5562 7.33532 15.6562 7.51433 14.8165 7.86214C13.9769 8.20995 13.2139 8.71974 12.5712 9.36241C11.9286 10.0051 11.4188 10.768 11.071 11.6077C10.7231 12.4474 10.5441 13.3474 10.5441 14.2563V154.359C10.5441 156.195 11.2733 157.955 12.5712 159.253C13.8691 160.551 15.6295 161.28 17.4651 161.28H268.914C270.75 161.28 272.51 160.551 273.808 159.253C275.106 157.955 275.835 156.195 275.835 154.359V14.2563C275.835 13.3474 275.656 12.4474 275.308 11.6077C274.96 10.768 274.451 10.0051 273.808 9.36241C273.165 8.71974 272.402 8.20995 271.563 7.86214C270.723 7.51433 269.823 7.33532 268.914 7.33532Z" fill="#0F241B"/>
<path d="M266.556 19.5665H19.823V158.749H266.556V19.5665Z" fill="white"/>
<path d="M142.979 15.7706C144.376 15.7706 145.509 14.6377 145.509 13.24C145.509 11.8424 144.376 10.7094 142.979 10.7094C141.581 10.7094 140.448 11.8424 140.448 13.24C140.448 14.6377 141.581 15.7706 142.979 15.7706Z" fill="#FF5E0E"/>
<path opacity="0.1" d="M195.995 158.75H19.8231V19.5667L195.995 158.75Z" fill="#FF5E0E"/>
<path d="M58.4293 148.334C71.5277 148.334 82.1461 137.716 82.1461 124.618C82.1461 111.519 71.5277 100.901 58.4293 100.901C45.3309 100.901 34.7126 111.519 34.7126 124.618C34.7126 137.716 45.3309 148.334 58.4293 148.334Z" fill="#FF5E0E"/>
<path d="M223.596 94.629H200.548V99.4449H223.596V94.629Z" fill="#307457"/>
<path d="M251.459 57.1336H172.685V59.1976H251.459V57.1336Z" fill="#0F241B"/>
<path d="M251.459 63.6695H172.685V65.7335H251.459V63.6695Z" fill="#0F241B"/>
<path d="M251.459 70.2054H172.685V72.2694H251.459V70.2054Z" fill="#0F241B"/>
<path d="M251.459 76.7413H172.685V78.8052H251.459V76.7413Z" fill="#0F241B"/>
<path d="M251.459 83.2772H172.685V85.3411H251.459V83.2772Z" fill="#0F241B"/>
<path d="M251.459 22.3903H241.828V32.0221H251.459V22.3903Z" fill="#FF5E0E"/>
<path d="M255.931 36.494H244.236V24.7982H255.931V36.494ZM244.744 35.9855H255.423V25.3067H244.744V35.9855Z" fill="#307457"/>
<path d="M282.763 156.219H258.683V154.484C258.683 154.439 258.674 154.394 258.657 154.352C258.64 154.31 258.614 154.273 258.583 154.241C258.551 154.209 258.513 154.183 258.471 154.166C258.429 154.149 258.384 154.14 258.339 154.14H250.083C250.038 154.14 249.994 154.149 249.952 154.166C249.91 154.183 249.872 154.209 249.84 154.241C249.808 154.273 249.783 154.31 249.766 154.352C249.748 154.394 249.739 154.439 249.739 154.484V156.219H244.58V154.484C244.58 154.439 244.571 154.394 244.553 154.352C244.536 154.31 244.511 154.273 244.479 154.241C244.447 154.209 244.409 154.183 244.367 154.166C244.325 154.149 244.281 154.14 244.236 154.14H235.98C235.935 154.14 235.89 154.149 235.848 154.166C235.806 154.183 235.768 154.209 235.736 154.241C235.705 154.273 235.679 154.31 235.662 154.352C235.645 154.394 235.636 154.439 235.636 154.484V156.219H230.476V154.484C230.476 154.439 230.467 154.394 230.45 154.352C230.432 154.31 230.407 154.273 230.375 154.241C230.343 154.209 230.305 154.183 230.263 154.166C230.222 154.149 230.177 154.14 230.132 154.14H221.876C221.831 154.14 221.786 154.149 221.744 154.166C221.703 154.183 221.665 154.209 221.633 154.241C221.601 154.273 221.575 154.31 221.558 154.352C221.541 154.394 221.532 154.439 221.532 154.484V156.219H216.372V154.484C216.372 154.439 216.363 154.394 216.346 154.352C216.329 154.31 216.303 154.273 216.271 154.241C216.239 154.209 216.201 154.183 216.16 154.166C216.118 154.149 216.073 154.14 216.028 154.14H207.772C207.727 154.14 207.682 154.149 207.641 154.166C207.599 154.183 207.561 154.209 207.529 154.241C207.497 154.273 207.472 154.31 207.454 154.352C207.437 154.394 207.428 154.439 207.428 154.484V156.219H202.268V154.484C202.268 154.439 202.259 154.394 202.242 154.352C202.225 154.31 202.2 154.273 202.168 154.241C202.136 154.209 202.098 154.183 202.056 154.166C202.014 154.149 201.969 154.14 201.924 154.14H193.668C193.623 154.14 193.579 154.149 193.537 154.166C193.495 154.183 193.457 154.209 193.425 154.241C193.393 154.273 193.368 154.31 193.351 154.352C193.333 154.394 193.324 154.439 193.324 154.484V156.219H188.165V154.484C188.165 154.439 188.156 154.394 188.138 154.352C188.121 154.31 188.096 154.273 188.064 154.241C188.032 154.209 187.994 154.183 187.952 154.166C187.91 154.149 187.866 154.14 187.821 154.14H179.565C179.52 154.14 179.475 154.149 179.433 154.166C179.391 154.183 179.353 154.209 179.321 154.241C179.29 154.273 179.264 154.31 179.247 154.352C179.23 154.394 179.221 154.439 179.221 154.484V156.219H174.061V154.484C174.061 154.439 174.052 154.394 174.035 154.352C174.017 154.31 173.992 154.273 173.96 154.241C173.928 154.209 173.89 154.183 173.848 154.166C173.807 154.149 173.762 154.14 173.717 154.14H109.046C109.001 154.14 108.956 154.149 108.914 154.166C108.873 154.183 108.835 154.209 108.803 154.241C108.771 154.273 108.745 154.31 108.728 154.352C108.711 154.394 108.702 154.439 108.702 154.484V156.219H103.542V154.484C103.542 154.439 103.533 154.394 103.516 154.352C103.499 154.31 103.473 154.273 103.441 154.241C103.409 154.209 103.371 154.183 103.33 154.166C103.288 154.149 103.243 154.14 103.198 154.14H94.9423C94.8971 154.14 94.8524 154.149 94.8106 154.166C94.7689 154.183 94.731 154.209 94.699 154.241C94.6671 154.273 94.6417 154.31 94.6245 154.352C94.6072 154.394 94.5983 154.439 94.5983 154.484V156.219H89.4384V154.484C89.4384 154.439 89.4295 154.394 89.4122 154.352C89.3949 154.31 89.3696 154.273 89.3376 154.241C89.3057 154.209 89.2677 154.183 89.226 154.166C89.1843 154.149 89.1395 154.14 89.0944 154.14H80.8385C80.7934 154.14 80.7486 154.149 80.7069 154.166C80.6651 154.183 80.6272 154.209 80.5953 154.241C80.5633 154.273 80.538 154.31 80.5207 154.352C80.5034 154.394 80.4945 154.439 80.4945 154.484V156.219H75.3346V154.484C75.3346 154.439 75.3257 154.394 75.3084 154.352C75.2912 154.31 75.2658 154.273 75.2339 154.241C75.2019 154.209 75.164 154.183 75.1223 154.166C75.0805 154.149 75.0358 154.14 74.9906 154.14H66.7348C66.6896 154.14 66.6449 154.149 66.6031 154.166C66.5614 154.183 66.5235 154.209 66.4915 154.241C66.4596 154.273 66.4343 154.31 66.417 154.352C66.3997 154.394 66.3908 154.439 66.3908 154.484V156.219H61.2309V154.484C61.2309 154.439 61.222 154.394 61.2047 154.352C61.1874 154.31 61.1621 154.273 61.1301 154.241C61.0982 154.209 61.0603 154.183 61.0185 154.166C60.9768 154.149 60.9321 154.14 60.8869 154.14H52.631C52.5859 154.14 52.5411 154.149 52.4994 154.166C52.4577 154.183 52.4197 154.209 52.3878 154.241C52.3558 154.273 52.3305 154.31 52.3132 154.352C52.2959 154.394 52.287 154.439 52.287 154.484V156.219H47.1271V154.484C47.1271 154.439 47.1182 154.394 47.101 154.352C47.0837 154.31 47.0583 154.273 47.0264 154.241C46.9944 154.209 46.9565 154.183 46.9148 154.166C46.8731 154.149 46.8283 154.14 46.7831 154.14H38.5273C38.4821 154.14 38.4374 154.149 38.3957 154.166C38.3539 154.183 38.316 154.209 38.2841 154.241C38.2521 154.273 38.2268 154.31 38.2095 154.352C38.1922 154.394 38.1833 154.439 38.1833 154.484V156.219H33.0234V154.484C33.0234 154.439 33.0145 154.394 32.9972 154.352C32.9799 154.31 32.9546 154.273 32.9226 154.241C32.8907 154.209 32.8528 154.183 32.811 154.166C32.7693 154.149 32.7246 154.14 32.6794 154.14H24.4236C24.3784 154.14 24.3336 154.149 24.2919 154.166C24.2502 154.183 24.2123 154.209 24.1803 154.241C24.1484 154.273 24.123 154.31 24.1057 154.352C24.0885 154.394 24.0796 154.439 24.0796 154.484V156.219H8.25585C6.06626 156.219 3.96636 157.089 2.41809 158.637C0.869813 160.185 2.08602e-06 162.285 0 164.475V168.208C6.25807e-06 170.397 0.869819 172.497 2.41809 174.045C3.96636 175.594 6.06627 176.464 8.25585 176.464H282.763C284.952 176.464 287.052 175.594 288.601 174.045C290.149 172.497 291.019 170.397 291.019 168.208V164.475C291.019 162.285 290.149 160.185 288.601 158.637C287.052 157.089 284.952 156.219 282.763 156.219Z" fill="#0F241B"/>
<path d="M64.1702 139.431C58.2588 139.431 52.4802 137.678 47.5651 134.394C42.6499 131.109 38.8191 126.441 36.5569 120.98C34.2947 115.519 33.7028 109.509 34.856 103.711C36.0093 97.9136 38.8559 92.588 43.0359 88.408C47.2158 84.228 52.5414 81.3814 58.3392 80.2282C64.137 79.0749 70.1466 79.6668 75.608 81.929C81.0693 84.1912 85.7373 88.0221 89.0215 92.9372C92.3056 97.8523 94.0586 103.631 94.0586 109.542C94.0496 117.466 90.8978 125.063 85.2945 130.667C79.6913 136.27 72.0943 139.422 64.1702 139.431ZM64.1702 80.4404C58.4144 80.4404 52.7878 82.1472 48.002 85.345C43.2163 88.5427 39.4862 93.0878 37.2835 98.4055C35.0809 103.723 34.5046 109.575 35.6275 115.22C36.7504 120.865 39.5221 126.05 43.592 130.12C47.662 134.19 52.8475 136.962 58.4927 138.085C64.1379 139.208 69.9893 138.632 75.307 136.429C80.6246 134.226 85.1697 130.496 88.3675 125.71C91.5652 120.925 93.272 115.298 93.272 109.542C93.2633 101.827 90.1944 94.4296 84.7386 88.9738C79.2829 83.518 71.8858 80.4491 64.1702 80.4404Z" fill="#307457"/>
<path d="M330.806 12.7982H230.523V13.5848H330.806V12.7982Z" fill="#0F241B"/>
<path d="M448 220.444H159.734V221.231H448V220.444Z" fill="#0F241B"/>
<path d="M176.055 256.625H75.7717V257.411H176.055V256.625Z" fill="#0F241B"/>
<path d="M196.241 216.298H185.229V227.309H196.241V216.298Z" fill="#FF5E0E"/>
<path d="M202.927 221.017H189.555V207.646H202.927V221.017ZM190.137 220.436H202.345V208.227H190.137V220.436Z" fill="#307457"/>
<path d="M324.053 8.6519H313.042V19.6634H324.053V8.6519Z" fill="#FF5E0E"/>
<path d="M330.739 13.3711H317.368V0H330.739V13.3711ZM317.949 12.7898H330.157V0.581355H317.949V12.7898Z" fill="#307457"/>
<path d="M434.955 216.298H423.943V227.309H434.955V216.298Z" fill="#FF5E0E"/>
<path d="M441.641 221.017H428.269V207.646H441.641V221.017ZM428.851 220.436H441.059V208.227H428.851V220.436Z" fill="#307457"/>
<path d="M415.752 91.2219H414.817V65.5959C414.817 63.6481 414.433 61.7195 413.688 59.92C412.942 58.1206 411.85 56.4855 410.473 55.1083C409.095 53.731 407.46 52.6386 405.661 51.8932C403.861 51.1478 401.933 50.7642 399.985 50.7642H345.693C343.745 50.7642 341.817 51.1478 340.017 51.8932C338.218 52.6386 336.583 53.731 335.205 55.1083C333.828 56.4855 332.736 58.1206 331.99 59.92C331.245 61.7195 330.861 63.6481 330.861 65.5959V206.182C330.861 208.13 331.245 210.058 331.99 211.858C332.736 213.657 333.828 215.292 335.205 216.67C336.583 218.047 338.218 219.139 340.017 219.885C341.817 220.63 343.745 221.014 345.693 221.014H399.985C401.933 221.014 403.861 220.63 405.661 219.885C407.46 219.139 409.095 218.047 410.473 216.67C411.85 215.292 412.942 213.657 413.688 211.858C414.433 210.058 414.817 208.13 414.817 206.182V109.463H415.752V91.2219Z" fill="#0F241B"/>
<path d="M411.658 66.4676V206.849C411.659 209.786 410.492 212.604 408.415 214.681C406.339 216.759 403.521 217.927 400.584 217.927H346.03C343.092 217.927 340.275 216.759 338.198 214.681C336.121 212.604 334.955 209.786 334.955 206.849V66.4676C334.956 63.5305 336.122 60.7139 338.199 58.6371C340.276 56.5603 343.093 55.3935 346.03 55.3931H352.648C352.323 56.1921 352.198 57.0589 352.287 57.9172C352.375 58.7755 352.673 59.599 353.154 60.315C353.635 61.0311 354.286 61.6177 355.047 62.0234C355.809 62.429 356.658 62.6411 357.521 62.6411H388.625C389.487 62.6411 390.337 62.429 391.098 62.0234C391.86 61.6178 392.51 61.0311 392.991 60.315C393.473 59.599 393.771 58.7755 393.859 57.9172C393.947 57.0589 393.823 56.1921 393.497 55.3931H400.584C403.521 55.3935 406.338 56.5603 408.414 58.6371C410.491 60.7139 411.658 63.5305 411.658 66.4676Z" fill="white"/>
<path d="M381.432 147.955H365.181V152.77H381.432V147.955Z" fill="#307457"/>
<path d="M401.079 110.459H345.534V112.523H401.079V110.459Z" fill="#0F241B"/>
<path d="M401.079 116.995H345.534V119.059H401.079V116.995Z" fill="#0F241B"/>
<path d="M401.079 123.531H345.534V125.595H401.079V123.531Z" fill="#0F241B"/>
<path d="M401.079 130.067H345.534V132.131H401.079V130.067Z" fill="#0F241B"/>
<path d="M401.079 136.603H345.534V138.667H401.079V136.603Z" fill="#0F241B"/>
<path d="M375.247 83.0499H365.615V92.6818H375.247V83.0499Z" fill="#FF5E0E"/>
<path d="M369.302 85.4585V97.1543H380.998V85.4585H369.302ZM380.491 96.647H369.81V85.9658H380.491V96.647Z" fill="#307457"/>
<path opacity="0.1" d="M411.658 191.857V206.849C411.659 209.786 410.492 212.604 408.415 214.681C406.339 216.759 403.521 217.927 400.584 217.927H346.03C343.092 217.927 340.275 216.759 338.198 214.681C336.121 212.604 334.955 209.786 334.955 206.849V131.259L380.916 167.569L381.703 168.19L390.253 174.943L391.051 175.576L411.658 191.857Z" fill="#FF5E0E"/>
<path d="M368.588 213.378C378.115 213.378 385.839 205.654 385.839 196.126C385.839 186.598 378.115 178.874 368.588 178.874C359.06 178.874 351.336 186.598 351.336 196.126C351.336 205.654 359.06 213.378 368.588 213.378Z" fill="#FF5E0E"/>
<path d="M125.913 257.411C119.146 257.411 112.531 255.405 106.905 251.645C101.278 247.886 96.8929 242.542 94.3033 236.29C91.7137 230.038 91.0362 223.159 92.3563 216.522C93.6765 209.885 96.9351 203.789 101.72 199.004C106.505 194.219 112.601 190.96 119.238 189.64C125.875 188.32 132.755 188.997 139.007 191.587C145.258 194.177 150.602 198.562 154.362 204.188C158.121 209.815 160.128 216.43 160.128 223.197C160.117 232.268 156.509 240.965 150.095 247.379C143.681 253.793 134.984 257.401 125.913 257.411ZM125.913 189.769C119.302 189.769 112.839 191.73 107.342 195.403C101.845 199.076 97.5601 204.296 95.03 210.405C92.4999 216.513 91.838 223.234 93.1278 229.718C94.4176 236.203 97.6013 242.159 102.276 246.834C106.951 251.509 112.907 254.693 119.392 255.982C125.876 257.272 132.597 256.61 138.706 254.08C144.814 251.55 150.034 247.266 153.708 241.768C157.381 236.271 159.341 229.808 159.341 223.197C159.331 214.334 155.806 205.838 149.539 199.571C143.273 193.304 134.776 189.779 125.913 189.769Z" fill="#307457"/>
<path d="M373.672 209.432C369.395 209.432 365.213 208.164 361.656 205.787C358.099 203.411 355.326 200.032 353.689 196.08C352.052 192.128 351.624 187.779 352.458 183.583C353.293 179.387 355.353 175.533 358.378 172.508C361.403 169.483 365.257 167.423 369.453 166.589C373.648 165.754 377.998 166.182 381.95 167.819C385.902 169.457 389.28 172.229 391.657 175.786C394.034 179.343 395.302 183.525 395.302 187.803C395.296 193.537 393.015 199.035 388.96 203.09C384.905 207.145 379.407 209.426 373.672 209.432ZM373.672 166.959C369.55 166.959 365.52 168.182 362.093 170.472C358.665 172.762 355.993 176.018 354.416 179.826C352.838 183.635 352.426 187.826 353.23 191.869C354.034 195.912 356.019 199.626 358.934 202.541C361.849 205.456 365.563 207.441 369.606 208.245C373.649 209.05 377.84 208.637 381.649 207.059C385.457 205.482 388.713 202.81 391.003 199.383C393.293 195.955 394.516 191.925 394.516 187.803C394.51 182.277 392.312 176.979 388.404 173.071C384.496 169.164 379.199 166.966 373.672 166.959Z" fill="#307457"/>
</g>
<defs>
<clipPath id="clip0_174_542">
<rect width="448" height="257.411" fill="white"/>
</clipPath>
</defs>
</svg>
