<svg width="440" height="585" viewBox="0 0 440 585" fill="none" xmlns="http://www.w3.org/2000/svg">
<path d="M24.416 57C20.294 57 17.243 56.019 15.263 54.057C13.301 52.077 12.32 49.026 12.32 44.904V32.43C12.32 28.272 13.31 25.221 15.29 23.277C17.27 21.315 20.312 20.352 24.416 20.388H30.896C35.036 20.388 38.087 21.369 40.049 23.331C42.011 25.293 42.992 28.344 42.992 32.484V44.904C42.992 49.026 42.011 52.077 40.049 54.057C38.087 56.019 35.036 57 30.896 57H24.416ZM24.416 52.464H30.896C32.822 52.464 34.334 52.239 35.432 51.789C36.53 51.321 37.304 50.538 37.754 49.44C38.222 48.342 38.456 46.83 38.456 44.904V32.484C38.456 30.576 38.222 29.073 37.754 27.975C37.304 26.877 36.53 26.094 35.432 25.626C34.334 25.158 32.822 24.924 30.896 24.924H24.416C22.508 24.906 21.005 25.122 19.907 25.572C18.809 26.022 18.026 26.796 17.558 27.894C17.09 28.992 16.856 30.504 16.856 32.43V44.904C16.856 46.83 17.081 48.342 17.531 49.44C17.999 50.538 18.782 51.321 19.88 51.789C20.978 52.239 22.49 52.464 24.416 52.464ZM75.1511 29.622C76.6631 29.622 77.4191 30.378 77.4191 31.89V54.732C77.4191 56.244 76.6631 57 75.1511 57C73.6391 57 72.8831 56.244 72.8831 54.732V53.841C70.9751 55.947 68.1671 57 64.4591 57H62.9471C59.3471 57 56.6831 56.136 54.9551 54.408C53.2271 52.68 52.3631 50.016 52.3631 46.416V31.89C52.3631 30.378 53.1191 29.622 54.6311 29.622C56.1431 29.622 56.8991 30.378 56.8991 31.89V46.416C56.8991 48.774 57.3221 50.376 58.1681 51.222C59.0321 52.05 60.6251 52.464 62.9471 52.464H64.4591C66.6191 52.464 68.5001 52.221 70.1021 51.735C71.7041 51.231 72.6311 50.448 72.8831 49.386V31.89C72.8831 30.378 73.6391 29.622 75.1511 29.622ZM90.925 57C89.413 57 88.657 56.244 88.657 54.732V31.89C88.657 30.378 89.413 29.622 90.925 29.622C92.437 29.622 93.193 30.378 93.193 31.89V33.996C94.255 32.556 95.605 31.467 97.243 30.729C98.899 29.991 100.789 29.622 102.913 29.622C104.425 29.622 105.181 30.378 105.181 31.89C105.181 33.402 104.425 34.158 102.913 34.158C99.799 34.158 97.423 34.734 95.785 35.886C94.147 37.038 93.283 38.559 93.193 40.449V54.732C93.193 56.244 92.437 57 90.925 57ZM126.954 56.784C125.514 56.226 125.082 55.236 125.658 53.814L138.51 22.17C139.05 20.982 139.896 20.388 141.048 20.388H141.156C142.326 20.442 143.118 21.036 143.532 22.17L156.6 53.814C157.176 55.236 156.762 56.226 155.358 56.784C153.936 57.342 152.946 56.928 152.388 55.542L149.472 48.468H132.651L129.87 55.542C129.312 56.946 128.34 57.36 126.954 56.784ZM134.433 43.932H147.609L140.886 27.57L134.433 43.932ZM166.388 67.8C164.876 67.8 164.12 67.044 164.12 65.532V31.89C164.12 30.378 164.876 29.622 166.388 29.622C167.9 29.622 168.656 30.378 168.656 31.89V32.565C169.628 31.593 170.825 30.864 172.247 30.378C173.687 29.874 175.298 29.622 177.08 29.622H179.132C182.732 29.622 185.396 30.486 187.124 32.214C188.852 33.942 189.716 36.606 189.716 40.206V46.416C189.716 49.998 188.852 52.662 187.124 54.408C185.396 56.136 182.732 57 179.132 57H168.656V65.532C168.656 67.044 167.9 67.8 166.388 67.8ZM168.656 52.464H179.132C181.49 52.464 183.083 52.041 183.911 51.195C184.757 50.349 185.18 48.756 185.18 46.416V40.206C185.18 37.848 184.757 36.255 183.911 35.427C183.083 34.581 181.49 34.158 179.132 34.158H177.08C174.83 34.158 172.886 34.428 171.248 34.968C169.61 35.508 168.746 36.363 168.656 37.533V52.464ZM201.931 67.8C200.419 67.8 199.663 67.044 199.663 65.532V31.89C199.663 30.378 200.419 29.622 201.931 29.622C203.443 29.622 204.199 30.378 204.199 31.89V32.565C205.171 31.593 206.368 30.864 207.79 30.378C209.23 29.874 210.841 29.622 212.623 29.622H214.675C218.275 29.622 220.939 30.486 222.667 32.214C224.395 33.942 225.259 36.606 225.259 40.206V46.416C225.259 49.998 224.395 52.662 222.667 54.408C220.939 56.136 218.275 57 214.675 57H204.199V65.532C204.199 67.044 203.443 67.8 201.931 67.8ZM204.199 52.464H214.675C217.033 52.464 218.626 52.041 219.454 51.195C220.3 50.349 220.723 48.756 220.723 46.416V40.206C220.723 37.848 220.3 36.255 219.454 35.427C218.626 34.581 217.033 34.158 214.675 34.158H212.623C210.373 34.158 208.429 34.428 206.791 34.968C205.153 35.508 204.289 36.363 204.199 37.533V52.464ZM237.474 57C235.962 57 235.206 56.244 235.206 54.732V31.89C235.206 30.378 235.962 29.622 237.474 29.622C238.986 29.622 239.742 30.378 239.742 31.89V33.996C240.804 32.556 242.154 31.467 243.792 30.729C245.448 29.991 247.338 29.622 249.462 29.622C250.974 29.622 251.73 30.378 251.73 31.89C251.73 33.402 250.974 34.158 249.462 34.158C246.348 34.158 243.972 34.734 242.334 35.886C240.696 37.038 239.832 38.559 239.742 40.449V54.732C239.742 56.244 238.986 57 237.474 57ZM266.484 57C262.902 57 260.238 56.136 258.492 54.408C256.764 52.68 255.9 50.034 255.9 46.47V40.206C255.9 36.588 256.764 33.924 258.492 32.214C260.238 30.486 262.902 29.622 266.484 29.622H270.912C274.512 29.622 277.176 30.486 278.904 32.214C280.632 33.942 281.496 36.606 281.496 40.206V46.416C281.496 49.998 280.632 52.662 278.904 54.408C277.176 56.136 274.512 57 270.912 57H266.484ZM260.436 46.47C260.436 48.792 260.859 50.376 261.705 51.222C262.551 52.05 264.144 52.464 266.484 52.464H270.912C273.27 52.464 274.863 52.041 275.691 51.195C276.537 50.349 276.96 48.756 276.96 46.416V40.206C276.96 37.848 276.537 36.255 275.691 35.427C274.863 34.581 273.27 34.158 270.912 34.158H266.484C264.918 34.158 263.694 34.338 262.812 34.698C261.948 35.04 261.336 35.652 260.976 36.534C260.616 37.398 260.436 38.622 260.436 40.206V46.47ZM299.845 57C296.821 57 294.571 56.262 293.095 54.786C291.619 53.31 290.881 51.06 290.881 48.036C290.881 45.012 291.61 42.762 293.068 41.286C294.544 39.81 296.803 39.072 299.845 39.072H311.266C311.158 37.182 310.663 35.895 309.781 35.211C308.899 34.509 307.387 34.158 305.245 34.158H302.113C300.313 34.158 298.972 34.284 298.09 34.536C297.208 34.77 296.587 35.202 296.227 35.832C295.903 36.588 295.57 37.11 295.228 37.398C294.886 37.686 294.373 37.83 293.689 37.83C292.933 37.83 292.339 37.623 291.907 37.209C291.475 36.777 291.349 36.21 291.529 35.508C292.069 33.474 293.194 31.989 294.904 31.053C296.632 30.099 299.035 29.622 302.113 29.622H305.245C308.845 29.622 311.509 30.486 313.237 32.214C314.965 33.942 315.829 36.606 315.829 40.206V54.732C315.829 56.244 315.073 57 313.561 57C312.049 57 311.293 56.244 311.293 54.732V53.517C309.367 55.839 306.559 57 302.869 57H299.845ZM299.845 52.464H302.869C304.201 52.464 305.452 52.347 306.622 52.113C307.792 51.861 308.791 51.411 309.619 50.763C310.465 50.115 311.023 49.188 311.293 47.982V43.608H299.845C298.063 43.608 296.875 43.905 296.281 44.499C295.705 45.093 295.417 46.272 295.417 48.036C295.417 49.818 295.705 51.006 296.281 51.6C296.875 52.176 298.063 52.464 299.845 52.464ZM335.83 57C332.248 57 329.584 56.136 327.838 54.408C326.11 52.662 325.246 49.998 325.246 46.416V40.152C325.246 36.552 326.101 33.888 327.811 32.16C329.539 30.432 332.212 29.586 335.83 29.622H340.258C342.94 29.622 345.046 30.072 346.576 30.972C348.124 31.872 349.114 33.258 349.546 35.13C349.708 35.886 349.573 36.471 349.141 36.885C348.727 37.299 348.124 37.506 347.332 37.506C346.63 37.506 346.117 37.326 345.793 36.966C345.469 36.606 345.172 36.102 344.902 35.454C344.632 34.968 344.137 34.635 343.417 34.455C342.697 34.257 341.644 34.158 340.258 34.158H335.83C333.508 34.122 331.915 34.527 331.051 35.373C330.205 36.201 329.782 37.794 329.782 40.152V46.416C329.782 48.756 330.205 50.349 331.051 51.195C331.915 52.041 333.508 52.464 335.83 52.464H340.258C341.644 52.464 342.697 52.374 343.417 52.194C344.137 51.996 344.632 51.654 344.902 51.168C345.172 50.484 345.469 49.971 345.793 49.629C346.135 49.287 346.666 49.116 347.386 49.116C348.142 49.116 348.727 49.323 349.141 49.737C349.573 50.151 349.708 50.736 349.546 51.492C349.114 53.346 348.124 54.732 346.576 55.65C345.046 56.55 342.94 57 340.258 57H335.83ZM361.241 57C359.729 57 358.973 56.244 358.973 54.732V21.252C358.973 19.74 359.729 18.984 361.241 18.984C362.753 18.984 363.509 19.74 363.509 21.252V32.781C365.417 30.675 368.225 29.622 371.933 29.622H373.445C377.045 29.622 379.709 30.486 381.437 32.214C383.165 33.942 384.029 36.606 384.029 40.206V54.732C384.029 56.244 383.273 57 381.761 57C380.249 57 379.493 56.244 379.493 54.732V40.206C379.493 37.848 379.061 36.255 378.197 35.427C377.351 34.581 375.767 34.158 373.445 34.158H371.933C369.773 34.158 367.892 34.41 366.29 34.914C364.688 35.4 363.761 36.174 363.509 37.236V54.732C363.509 56.244 362.753 57 361.241 57ZM25.172 131C21.608 131 18.98 130.154 17.288 128.462C15.596 126.77 14.75 124.16 14.75 120.632V108.158H12.104C10.592 108.158 9.836 107.402 9.836 105.89C9.836 104.378 10.592 103.622 12.104 103.622H14.75V99.68C14.75 98.168 15.506 97.412 17.018 97.412C18.53 97.412 19.286 98.168 19.286 99.68V103.622H25.496C27.008 103.622 27.764 104.378 27.764 105.89C27.764 107.402 27.008 108.158 25.496 108.158H19.286V120.632C19.286 122.918 19.7 124.466 20.528 125.276C21.356 126.068 22.904 126.464 25.172 126.464C25.874 126.464 26.423 126.644 26.819 127.004C27.233 127.364 27.44 127.94 27.44 128.732C27.44 130.244 26.684 131 25.172 131ZM43.3649 131C39.7829 131 37.1189 130.136 35.3729 128.408C33.6449 126.68 32.7809 124.034 32.7809 120.47V114.206C32.7809 110.588 33.6449 107.924 35.3729 106.214C37.1189 104.486 39.7829 103.622 43.3649 103.622H47.7929C51.3929 103.622 54.0569 104.486 55.7849 106.214C57.5129 107.942 58.3769 110.606 58.3769 114.206V120.416C58.3769 123.998 57.5129 126.662 55.7849 128.408C54.0569 130.136 51.3929 131 47.7929 131H43.3649ZM37.3169 120.47C37.3169 122.792 37.7399 124.376 38.5859 125.222C39.4319 126.05 41.0249 126.464 43.3649 126.464H47.7929C50.1509 126.464 51.7439 126.041 52.5719 125.195C53.4179 124.349 53.8409 122.756 53.8409 120.416V114.206C53.8409 111.848 53.4179 110.255 52.5719 109.427C51.7439 108.581 50.1509 108.158 47.7929 108.158H43.3649C41.7989 108.158 40.5749 108.338 39.6929 108.698C38.8289 109.04 38.2169 109.652 37.8569 110.534C37.4969 111.398 37.3169 112.622 37.3169 114.206V120.47ZM91.546 131C90.358 131 89.566 130.388 89.17 129.164L81.664 106.592C81.196 105.224 81.682 104.288 83.122 103.784C84.544 103.298 85.498 103.784 85.984 105.242L92.086 123.413H91.735L97.486 105.242C97.882 104.054 98.746 103.46 100.078 103.46C101.338 103.46 102.148 104.09 102.508 105.35L107.881 123.224H107.665L113.902 105.188C114.424 103.73 115.396 103.262 116.818 103.784C118.24 104.288 118.69 105.26 118.168 106.7L109.96 129.164C109.51 130.388 108.664 131 107.422 131C106.144 131 105.316 130.37 104.938 129.11L99.376 110.534H99.97L93.922 129.164C93.742 129.758 93.445 130.217 93.031 130.541C92.617 130.847 92.122 131 91.546 131ZM134.068 131C130.486 131 127.822 130.136 126.076 128.408C124.348 126.68 123.484 124.034 123.484 120.47V114.206C123.484 110.588 124.348 107.924 126.076 106.214C127.822 104.486 130.486 103.622 134.068 103.622H138.496C142.096 103.622 144.76 104.486 146.488 106.214C148.216 107.942 149.08 110.606 149.08 114.206V120.416C149.08 123.998 148.216 126.662 146.488 128.408C144.76 130.136 142.096 131 138.496 131H134.068ZM128.02 120.47C128.02 122.792 128.443 124.376 129.289 125.222C130.135 126.05 131.728 126.464 134.068 126.464H138.496C140.854 126.464 142.447 126.041 143.275 125.195C144.121 124.349 144.544 122.756 144.544 120.416V114.206C144.544 111.848 144.121 110.255 143.275 109.427C142.447 108.581 140.854 108.158 138.496 108.158H134.068C132.502 108.158 131.278 108.338 130.396 108.698C129.532 109.04 128.92 109.652 128.56 110.534C128.2 111.398 128.02 112.622 128.02 114.206V120.47ZM161.273 131C159.761 131 159.005 130.244 159.005 128.732V105.89C159.005 104.378 159.761 103.622 161.273 103.622C162.785 103.622 163.541 104.378 163.541 105.89V107.996C164.603 106.556 165.953 105.467 167.591 104.729C169.247 103.991 171.137 103.622 173.261 103.622C174.773 103.622 175.529 104.378 175.529 105.89C175.529 107.402 174.773 108.158 173.261 108.158C170.147 108.158 167.771 108.734 166.133 109.886C164.495 111.038 163.631 112.559 163.541 114.449V128.732C163.541 130.244 162.785 131 161.273 131ZM184.318 131C182.806 131 182.05 130.244 182.05 128.732V95.252C182.05 93.74 182.806 92.984 184.318 92.984C185.83 92.984 186.586 93.74 186.586 95.252V115.529L199.438 104.486C200.59 103.496 201.652 103.568 202.624 104.702C203.614 105.854 203.542 106.916 202.408 107.888L192.553 116.393L201.976 127.112C202.984 128.282 202.93 129.344 201.814 130.298C200.662 131.288 199.582 131.216 198.574 130.082L189.097 119.39L186.586 121.55V128.732C186.586 130.244 185.83 131 184.318 131Z" fill="#307457"/>
<g opacity="0.5">
<path opacity="0.5" d="M326.938 229.218H125.39V502.278H326.938V229.218Z" fill="#C3D9CF"/>
</g>
<path d="M324.374 231.229H127.955V498.254H324.374V231.229Z" fill="#F4FBF8"/>
<path d="M275.141 224.179H177.7V247.321H275.141V224.179Z" fill="url(#paint0_linear_141_696)"/>
<path d="M226.421 201.56C218.897 201.56 212.799 207.685 212.799 215.238C212.799 222.791 218.897 228.916 226.421 228.916C233.944 228.916 240.042 222.791 240.042 215.238C240.042 207.685 233.944 201.56 226.421 201.56ZM226.421 223.128C224.821 223.169 223.245 222.741 221.894 221.9C220.544 221.058 219.48 219.841 218.838 218.403C218.197 216.965 218.007 215.373 218.294 213.829C218.58 212.285 219.329 210.86 220.446 209.736C221.562 208.612 222.995 207.84 224.562 207.518C226.128 207.196 227.756 207.34 229.239 207.931C230.722 208.521 231.991 209.532 232.885 210.834C233.779 212.135 234.256 213.669 234.257 215.238C234.282 217.302 233.471 219.292 232.002 220.771C230.533 222.25 228.526 223.098 226.421 223.128Z" fill="url(#paint1_linear_141_696)"/>
<path d="M274.115 224.189H178.726V246.315H274.115V224.189Z" fill="#0F241B"/>
<path d="M226.421 202.566C223.783 202.566 221.205 203.332 219.013 204.769C216.82 206.206 215.111 208.248 214.102 210.637C213.092 213.026 212.828 215.655 213.343 218.191C213.857 220.727 215.127 223.057 216.992 224.885C218.857 226.714 221.233 227.959 223.819 228.464C226.406 228.968 229.087 228.709 231.523 227.72C233.96 226.73 236.042 225.054 237.507 222.904C238.973 220.754 239.755 218.226 239.755 215.64C239.755 212.173 238.35 208.847 235.849 206.395C233.349 203.943 229.957 202.566 226.421 202.566ZM226.421 223.183C224.899 223.183 223.412 222.741 222.147 221.912C220.882 221.083 219.896 219.905 219.314 218.527C218.731 217.149 218.579 215.632 218.876 214.169C219.173 212.705 219.905 211.361 220.981 210.306C222.057 209.252 223.428 208.533 224.92 208.242C226.412 207.951 227.959 208.1 229.364 208.671C230.77 209.242 231.972 210.209 232.817 211.45C233.662 212.69 234.113 214.148 234.113 215.64C234.113 217.641 233.303 219.559 231.86 220.974C230.417 222.389 228.461 223.183 226.421 223.183Z" fill="#0F241B"/>
<path d="M158.621 274.476H157.804C146.417 274.476 137.186 283.707 137.186 295.094C137.186 306.481 146.417 315.712 157.804 315.712H158.621C170.008 315.712 179.239 306.481 179.239 295.094C179.239 283.707 170.008 274.476 158.621 274.476Z" fill="url(#paint2_linear_141_696)"/>
<path d="M158.765 356.193H157.947C146.56 356.193 137.329 365.424 137.329 376.811C137.329 388.198 146.56 397.428 157.947 397.428H158.765C170.152 397.428 179.383 388.198 179.383 376.811C179.383 365.424 170.152 356.193 158.765 356.193Z" fill="url(#paint3_linear_141_696)"/>
<path d="M158.908 436.904H158.091C146.704 436.904 137.473 446.135 137.473 457.522C137.473 468.909 146.704 478.14 158.091 478.14H158.908C170.295 478.14 179.526 468.909 179.526 457.522C179.526 446.135 170.295 436.904 158.908 436.904Z" fill="url(#paint4_linear_141_696)"/>
<path d="M158.591 275.985H157.833C147.28 275.985 138.724 284.54 138.724 295.094C138.724 305.648 147.28 314.203 157.833 314.203H158.591C169.145 314.203 177.7 305.648 177.7 295.094C177.7 284.54 169.145 275.985 158.591 275.985Z" fill="#307457"/>
<path d="M158.591 356.948H157.833C147.28 356.948 138.724 365.503 138.724 376.057C138.724 386.61 147.28 395.166 157.833 395.166H158.591C169.145 395.166 177.7 386.61 177.7 376.057C177.7 365.503 169.145 356.948 158.591 356.948Z" fill="#307457"/>
<path d="M158.591 437.91H157.833C147.28 437.91 138.724 446.465 138.724 457.019C138.724 467.573 147.28 476.128 157.833 476.128H158.591C169.145 476.128 177.7 467.573 177.7 457.019C177.7 446.465 169.145 437.91 158.591 437.91Z" fill="#307457"/>
<path d="M256.766 287.782H203.343V291.438H256.766V287.782Z" fill="#E2E4E3"/>
<path d="M291.552 293.269H203.343V296.925H291.552V293.269Z" fill="#E2E4E3"/>
<path d="M285.341 298.75H203.343V302.406H285.341V298.75Z" fill="#E2E4E3"/>
<path d="M256.766 368.745H203.343V372.401H256.766V368.745Z" fill="#E0E0E0"/>
<path d="M291.552 374.231H203.343V377.887H291.552V374.231Z" fill="#E0E0E0"/>
<path d="M285.341 379.712H203.343V383.368H285.341V379.712Z" fill="#E0E0E0"/>
<path d="M256.766 449.707H203.343V453.363H256.766V449.707Z" fill="#E0E0E0"/>
<path d="M291.552 455.194H203.343V458.85H291.552V455.194Z" fill="#E0E0E0"/>
<path d="M285.341 460.675H203.343V464.331H285.341V460.675Z" fill="#E0E0E0"/>
<path d="M149.366 292.816L156.443 299.183L166.469 284.725L170.008 287.616L156.443 304.966L146.417 293.978L149.366 292.816Z" fill="url(#paint5_linear_141_696)"/>
<path d="M150.52 293.083L156.674 298.614L165.392 286.042L168.469 288.557L156.674 303.643L147.956 294.088L150.52 293.083Z" fill="#FFF5F0"/>
<path d="M150.52 374.548L156.674 380.079L165.392 367.508L168.469 370.022L156.674 385.108L147.956 375.554L150.52 374.548Z" fill="#FFF5F0"/>
<path d="M150.52 456.013L156.674 461.545L165.392 448.973L168.469 451.487L156.674 466.573L147.956 457.019L150.52 456.013Z" fill="#FFF5F0"/>
<g opacity="0.5">
<path opacity="0.5" d="M333.861 378.068H336.939" stroke="#307457" stroke-width="5" stroke-miterlimit="10"/>
<path opacity="0.5" d="M342.857 378.068H410.906" stroke="#307457" stroke-width="5" stroke-miterlimit="10" stroke-dasharray="11.54 11.54"/>
<path opacity="0.5" d="M413.865 378.068H416.942V375.051" stroke="#307457" stroke-width="5" stroke-miterlimit="10"/>
<path opacity="0.5" d="M416.942 369.293V314.57" stroke="#307457" stroke-width="5" stroke-miterlimit="10" stroke-dasharray="11.45 11.45"/>
<path opacity="0.5" d="M416.942 311.689V308.672" stroke="#307457" stroke-width="5" stroke-miterlimit="10"/>
</g>
<path opacity="0.5" d="M118.723 293.334H50.0023V356.696" stroke="#C3D9CF" stroke-width="5" stroke-miterlimit="10" stroke-dasharray="12 12"/>
<path opacity="0.5" d="M158.212 509.066V545.273H260.781" stroke="#C3D9CF" stroke-width="5" stroke-miterlimit="10" stroke-dasharray="12 12"/>
<g opacity="0.5">
<path opacity="0.5" d="M439.643 303.414H394V249.607H439.643V276.973V303.414Z" fill="url(#paint6_linear_141_696)"/>
</g>
<path d="M439 302.557H395V250.588H439V277.018V302.557Z" fill="#F4FBF8"/>
<path d="M432.463 258.659H400.667V260.67H432.463V258.659Z" fill="#307457"/>
<path d="M432.463 262.682H400.667V264.693H432.463V262.682Z" fill="#C3D9CF"/>
<path d="M432.463 266.705H400.667V268.716H432.463V266.705Z" fill="#FF5E0E"/>
<path d="M432.463 270.728H400.667V272.739H432.463V270.728Z" fill="#C3D9CF"/>
<path d="M432.463 274.751H400.667V276.762H432.463V274.751Z" fill="#FF5E0E"/>
<path d="M360.016 517.866H285.141V582.234H360.016V517.866Z" fill="#F4FBF8" stroke="#C3D9CF" stroke-opacity="0.11" stroke-width="2"/>
<path d="M360.016 561.616C339.323 561.616 322.579 556.442 322.579 550.05C301.886 550.05 285.141 554.551 285.141 560.108V584.246H360.016V561.616Z" fill="#307457"/>
<path d="M347.708 539.49C351.957 539.49 355.401 536.113 355.401 531.947C355.401 527.781 351.957 524.404 347.708 524.404C343.46 524.404 340.016 527.781 340.016 531.947C340.016 536.113 343.46 539.49 347.708 539.49Z" fill="#FF5E0E"/>
<g opacity="0.5">
<path opacity="0.5" d="M104.62 362.353H0V435.018H104.62V362.353Z" fill="#C3D9CF"/>
</g>
<path d="M101.543 364.49H3.07709V432.881H101.543V364.49Z" fill="#F4FBF8"/>
<path d="M54.3358 381.759C53.5126 381.761 52.6903 381.814 51.8742 381.92L54.3358 400.365L35.4067 399.128C35.3811 399.536 35.3606 399.948 35.3606 400.365C35.3606 404.045 36.4735 407.643 38.5585 410.702C40.6435 413.762 43.607 416.147 47.0743 417.555C50.5416 418.964 54.3569 419.332 58.0377 418.614C61.7185 417.896 65.0996 416.124 67.7533 413.522C70.4071 410.92 72.2143 407.605 72.9464 403.995C73.6786 400.386 73.3028 396.645 71.8667 393.245C70.4305 389.845 67.9984 386.939 64.8779 384.895C61.7574 382.85 58.0888 381.759 54.3358 381.759Z" fill="#307457"/>
<path d="M47.7714 378.4C43.4208 378.959 39.4022 380.979 36.3997 384.117C33.3972 387.254 31.5965 391.315 31.304 395.608L50.2331 396.845L47.7714 378.4Z" fill="#FF5E0E"/>
<defs>
<linearGradient id="paint0_linear_141_696" x1="43197.6" y1="2330.13" x2="43197.6" y2="1265.12" gradientUnits="userSpaceOnUse">
<stop stop-color="#808080" stop-opacity="0.25"/>
<stop offset="0.54" stop-color="#808080" stop-opacity="0.12"/>
<stop offset="1" stop-color="#808080" stop-opacity="0.1"/>
</linearGradient>
<linearGradient id="paint1_linear_141_696" x1="16686.8" y1="3125.68" x2="16686.8" y2="1637.77" gradientUnits="userSpaceOnUse">
<stop stop-color="#808080" stop-opacity="0.25"/>
<stop offset="0.54" stop-color="#808080" stop-opacity="0.12"/>
<stop offset="1" stop-color="#808080" stop-opacity="0.1"/>
</linearGradient>
<linearGradient id="paint2_linear_141_696" x1="13110.6" y1="9634.96" x2="13110.6" y2="6253.64" gradientUnits="userSpaceOnUse">
<stop stop-color="#808080" stop-opacity="0.25"/>
<stop offset="0.54" stop-color="#808080" stop-opacity="0.12"/>
<stop offset="1" stop-color="#808080" stop-opacity="0.1"/>
</linearGradient>
<linearGradient id="paint3_linear_141_696" x1="13122.5" y1="16417.5" x2="13122.5" y2="13036.1" gradientUnits="userSpaceOnUse">
<stop stop-color="#808080" stop-opacity="0.25"/>
<stop offset="0.54" stop-color="#808080" stop-opacity="0.12"/>
<stop offset="1" stop-color="#808080" stop-opacity="0.1"/>
</linearGradient>
<linearGradient id="paint4_linear_141_696" x1="13134.4" y1="23116.5" x2="13134.4" y2="19735.2" gradientUnits="userSpaceOnUse">
<stop stop-color="#808080" stop-opacity="0.25"/>
<stop offset="0.54" stop-color="#808080" stop-opacity="0.12"/>
<stop offset="1" stop-color="#808080" stop-opacity="0.1"/>
</linearGradient>
<linearGradient id="paint5_linear_141_696" x1="7424.18" y1="4446.82" x2="7424.18" y2="3631.93" gradientUnits="userSpaceOnUse">
<stop stop-color="#808080" stop-opacity="0.25"/>
<stop offset="0.54" stop-color="#808080" stop-opacity="0.12"/>
<stop offset="1" stop-color="#808080" stop-opacity="0.1"/>
</linearGradient>
<linearGradient id="paint6_linear_141_696" x1="36748.7" y1="9719.66" x2="36748.7" y2="3962.3" gradientUnits="userSpaceOnUse">
<stop stop-color="#808080" stop-opacity="0.25"/>
<stop offset="0.54" stop-color="#808080" stop-opacity="0.12"/>
<stop offset="1" stop-color="#808080" stop-opacity="0.1"/>
</linearGradient>
</defs>
</svg>
