<svg width="441" height="249" viewBox="0 0 441 249" fill="none" xmlns="http://www.w3.org/2000/svg">
<g clip-path="url(#clip0_179_1027)">
<path opacity="0.1" d="M245.525 33.8765C220.082 33.7304 195.695 27.2295 172.379 20.0303C149.064 12.8311 125.956 4.81167 101.037 1.28718C85.0101 -0.970445 66.7461 -0.901422 54.0653 6.8013C41.8635 14.2157 38.1604 26.592 36.2885 38.0385C34.8754 46.6508 34.1446 55.6975 38.7735 63.6195C41.9853 69.1174 47.5604 73.6692 51.4706 78.9153C65.0691 97.1671 56.3432 120.292 42.5376 138.771C36.0408 147.44 28.5046 155.744 23.567 164.92C18.6295 174.097 16.4977 184.536 21.2323 193.66C25.9262 202.707 36.7514 209.326 48.4131 213.885C72.1019 223.139 99.8024 225.279 126.78 226.217C186.514 228.296 246.442 225.316 306.209 222.339C328.33 221.235 350.545 220.122 372.244 216.655C384.296 214.722 396.716 211.811 405.341 205.31C416.304 197.051 418.741 183.464 411.026 173.638C398.097 157.148 363.364 153.815 354.179 136.006C349.12 126.2 353.797 115.029 360.578 105.658C375.123 85.5542 399.88 67.6231 400.659 45.0307C401.195 29.5115 388.713 14.2848 369.82 7.40631C349.989 0.170546 322.824 1.79474 308.645 14.8695C294.06 28.3299 268.008 34.0065 245.525 33.8765Z" fill="#FF5E0E"/>
<path d="M231.057 99.0512C231.057 99.0512 219.899 79.2807 203.089 73.5839C196.024 71.238 189.91 66.6646 185.665 60.5498C183.673 57.6316 181.952 54.5367 180.525 51.3041" stroke="#535461" stroke-width="2" stroke-miterlimit="10"/>
<path d="M169.959 47.6497C171.872 49.5094 180.793 51.43 180.793 51.43C180.793 51.43 178.604 42.5741 176.692 40.7144C175.772 39.8216 174.535 39.3308 173.254 39.3498C171.972 39.3688 170.751 39.8962 169.858 40.8159C168.965 41.7356 168.474 42.9722 168.493 44.2538C168.512 45.5354 169.04 46.7569 169.959 47.6497Z" fill="#FF5E0E"/>
<path d="M175.023 63.6885C177.642 64.2083 186.177 60.9721 186.177 60.9721C186.177 60.9721 179.489 54.7189 176.886 54.1992C175.628 53.952 174.323 54.2149 173.259 54.9299C172.194 55.645 171.457 56.7536 171.21 58.012C170.963 59.2703 171.226 60.5753 171.941 61.6399C172.656 62.7045 173.764 63.4414 175.023 63.6885Z" fill="#FF5E0E"/>
<path d="M193.376 81.0227C195.898 80.1497 201.631 73.052 201.631 73.052C201.631 73.052 192.739 71.0218 190.217 71.8907C189.609 72.0915 189.047 72.4111 188.564 72.831C188.08 73.2509 187.685 73.7626 187.401 74.3365C187.118 74.9103 186.951 75.5349 186.91 76.1739C186.87 76.8128 186.957 77.4535 187.166 78.0585C187.375 78.6636 187.703 79.2211 188.129 79.6985C188.556 80.1759 189.073 80.5638 189.651 80.8395C190.229 81.1153 190.856 81.2736 191.495 81.305C192.135 81.3364 192.774 81.2405 193.376 81.0227Z" fill="#FF5E0E"/>
<path d="M210.235 91.0196C212.866 90.5851 219.716 84.5553 219.716 84.5553C219.716 84.5553 211.295 81.0471 208.66 81.4815C207.395 81.6905 206.265 82.3933 205.518 83.4354C204.772 84.4775 204.469 85.7735 204.678 87.0383C204.887 88.3031 205.59 89.4331 206.632 90.1798C207.674 90.9264 208.97 91.2285 210.235 91.0196Z" fill="#FF5E0E"/>
<path d="M193.591 54.0409C193.591 56.7126 188.763 64.4519 188.763 64.4519C188.763 64.4519 183.927 56.7167 183.927 54.0449C183.927 52.7634 184.436 51.5344 185.343 50.6282C186.249 49.722 187.478 49.213 188.759 49.213C190.041 49.213 191.27 49.722 192.176 50.6282C193.082 51.5344 193.591 52.7634 193.591 54.0449V54.0409Z" fill="#FF5E0E"/>
<path d="M213.159 65.9786C212.346 68.5286 205.444 74.4691 205.444 74.4691C205.444 74.4691 203.145 65.6376 203.941 63.0998C204.324 61.8764 205.177 60.8552 206.313 60.2609C207.449 59.6665 208.774 59.5477 209.998 59.9306C211.221 60.3134 212.242 61.1665 212.836 62.3023C213.431 63.4381 213.55 64.7634 213.167 65.9868L213.159 65.9786Z" fill="#FF5E0E"/>
<path d="M230.582 80.1903C230.229 82.8377 224.406 89.8664 224.406 89.8664C224.406 89.8664 220.65 81.5506 221.003 78.9031C221.174 77.6329 221.842 76.4825 222.861 75.7051C223.88 74.9276 225.166 74.5867 226.436 74.7574C227.707 74.9281 228.857 75.5964 229.634 76.6152C230.412 77.6341 230.753 78.9201 230.582 80.1903Z" fill="#FF5E0E"/>
<path opacity="0.25" d="M169.959 47.6497C171.872 49.5094 180.793 51.43 180.793 51.43C180.793 51.43 178.604 42.5741 176.692 40.7144C175.772 39.8216 174.535 39.3308 173.254 39.3498C171.972 39.3688 170.751 39.8962 169.858 40.8159C168.965 41.7356 168.474 42.9722 168.493 44.2538C168.512 45.5354 169.04 46.7569 169.959 47.6497Z" fill="black"/>
<path opacity="0.25" d="M175.023 63.6885C177.642 64.2083 186.177 60.9721 186.177 60.9721C186.177 60.9721 179.489 54.7189 176.886 54.1992C175.628 53.952 174.323 54.2149 173.259 54.9299C172.194 55.645 171.457 56.7536 171.21 58.012C170.963 59.2703 171.226 60.5753 171.941 61.6399C172.656 62.7045 173.764 63.4414 175.023 63.6885Z" fill="black"/>
<path opacity="0.25" d="M193.376 81.0227C195.898 80.1497 201.631 73.052 201.631 73.052C201.631 73.052 192.739 71.0218 190.217 71.8907C189.609 72.0915 189.047 72.4111 188.564 72.831C188.08 73.2509 187.685 73.7626 187.401 74.3365C187.118 74.9103 186.951 75.5349 186.91 76.1739C186.87 76.8128 186.957 77.4535 187.166 78.0585C187.375 78.6636 187.703 79.2211 188.129 79.6985C188.556 80.1759 189.073 80.5638 189.651 80.8395C190.229 81.1153 190.856 81.2736 191.495 81.305C192.135 81.3364 192.774 81.2405 193.376 81.0227Z" fill="black"/>
<path opacity="0.25" d="M210.235 91.0196C212.866 90.5851 219.716 84.5553 219.716 84.5553C219.716 84.5553 211.295 81.0471 208.66 81.4815C207.395 81.6905 206.265 82.3933 205.518 83.4354C204.772 84.4775 204.469 85.7735 204.678 87.0383C204.887 88.3031 205.59 89.4331 206.632 90.1798C207.674 90.9264 208.97 91.2285 210.235 91.0196Z" fill="black"/>
<path opacity="0.25" d="M193.591 54.0409C193.591 56.7126 188.763 64.4519 188.763 64.4519C188.763 64.4519 183.927 56.7167 183.927 54.0449C183.927 52.7634 184.436 51.5344 185.343 50.6282C186.249 49.722 187.478 49.213 188.759 49.213C190.041 49.213 191.27 49.722 192.176 50.6282C193.082 51.5344 193.591 52.7634 193.591 54.0449V54.0409Z" fill="black"/>
<path opacity="0.25" d="M213.159 65.9786C212.346 68.5286 205.444 74.4691 205.444 74.4691C205.444 74.4691 203.145 65.6376 203.941 63.0998C204.324 61.8764 205.177 60.8552 206.313 60.2609C207.449 59.6665 208.774 59.5477 209.998 59.9306C211.221 60.3134 212.242 61.1665 212.836 62.3023C213.431 63.4381 213.55 64.7634 213.167 65.9868L213.159 65.9786Z" fill="black"/>
<path opacity="0.25" d="M230.582 80.1903C230.229 82.8377 224.406 89.8664 224.406 89.8664C224.406 89.8664 220.65 81.5506 221.003 78.9031C221.174 77.6329 221.842 76.4825 222.861 75.7051C223.88 74.9276 225.166 74.5867 226.436 74.7574C227.707 74.9281 228.857 75.5964 229.634 76.6152C230.412 77.6341 230.753 78.9201 230.582 80.1903Z" fill="black"/>
<path d="M230.42 98.6614C230.42 98.6614 228.227 76.0608 215.173 64.0418C209.663 59.0359 205.926 52.3779 204.522 45.0672C203.884 41.5914 203.566 38.0643 203.572 34.5303" stroke="#535461" stroke-width="2" stroke-miterlimit="10"/>
<path d="M195.39 26.9047C196.385 29.3816 203.763 34.7536 203.763 34.7536C203.763 34.7536 205.35 25.7678 204.351 23.2909C204.121 22.6926 203.774 22.1461 203.331 21.6832C202.887 21.2203 202.356 20.8503 201.768 20.5947C201.18 20.3391 200.547 20.2031 199.907 20.1945C199.266 20.1859 198.629 20.305 198.035 20.5447C197.44 20.7845 196.899 21.1402 196.444 21.591C195.988 22.0418 195.626 22.5789 195.38 23.1708C195.134 23.7627 195.008 24.3977 195.01 25.0387C195.012 25.6798 195.141 26.3141 195.39 26.9047Z" fill="#FF5E0E"/>
<path d="M193.506 43.6054C195.69 45.1403 204.798 45.6357 204.798 45.6357C204.798 45.6357 201.249 37.2305 199.069 35.6956C198.02 34.9579 196.722 34.6669 195.459 34.8866C194.196 35.1063 193.072 35.8187 192.335 36.8671C191.597 37.9154 191.306 39.2139 191.526 40.4768C191.745 41.7398 192.458 42.8637 193.506 43.6014V43.6054Z" fill="#FF5E0E"/>
<path d="M203.275 66.9085C205.935 67.1318 214.052 62.9617 214.052 62.9617C214.052 62.9617 206.743 57.5004 204.083 57.277C202.806 57.1694 201.539 57.5734 200.559 58.4004C199.58 59.2274 198.969 60.4095 198.862 61.6867C198.754 62.9639 199.158 64.2316 199.985 65.2109C200.812 66.1902 201.994 66.8008 203.271 66.9085H203.275Z" fill="#FF5E0E"/>
<path d="M214.637 82.8743C217.219 83.5443 225.925 80.8075 225.925 80.8075C225.925 80.8075 219.643 74.1889 217.061 73.4986C216.436 73.3015 215.778 73.2335 215.126 73.2987C214.474 73.3639 213.842 73.5609 213.269 73.8779C212.696 74.1948 212.193 74.625 211.791 75.1422C211.389 75.6595 211.097 76.2531 210.931 76.887C210.766 77.5208 210.731 78.1817 210.829 78.8294C210.927 79.4771 211.156 80.0981 211.501 80.6547C211.847 81.2112 212.302 81.6918 212.839 82.0671C213.375 82.4424 213.983 82.7046 214.624 82.8377L214.637 82.8743Z" fill="#FF5E0E"/>
<path d="M214.409 42.3264C213.329 44.7627 205.777 49.887 205.777 49.887C205.777 49.887 204.49 40.8565 205.57 38.4161C206.088 37.2439 207.051 36.3257 208.247 35.8635C209.442 35.4013 210.772 35.4329 211.945 35.9514C213.117 36.4699 214.035 37.4329 214.497 38.6284C214.959 39.824 214.928 41.1542 214.409 42.3264Z" fill="#FF5E0E"/>
<path d="M227.456 61.1711C225.693 63.1729 216.955 65.8 216.955 65.8C216.955 65.8 218.429 56.7979 220.204 54.7921C220.622 54.3151 221.131 53.9253 221.701 53.6449C222.27 53.3645 222.889 53.1991 223.523 53.158C224.156 53.1169 224.791 53.2009 225.392 53.4054C225.993 53.6098 226.548 53.9306 227.025 54.3495C227.502 54.7683 227.892 55.277 228.172 55.8465C228.453 56.416 228.618 57.0352 228.659 57.6686C228.7 58.302 228.616 58.9374 228.412 59.5383C228.207 60.1393 227.887 60.6941 227.468 61.1711H227.456Z" fill="#FF5E0E"/>
<path d="M237.627 81.2217C236.23 83.4955 228.061 87.5641 228.061 87.5641C228.061 87.5641 227.992 78.4402 229.388 76.1623C230.077 75.1087 231.15 74.3653 232.378 74.09C233.607 73.8146 234.894 74.0292 235.967 74.6879C237.039 75.3467 237.813 76.3977 238.123 77.6178C238.433 78.8378 238.255 80.1307 237.627 81.2217Z" fill="#FF5E0E"/>
<path opacity="0.1" d="M335.602 242.37C336.8 244.806 328.326 247.425 317.83 248.18C308.426 248.858 300.694 247.754 299.716 245.772C298.737 243.791 304.726 241.387 313.928 240.303C324.196 239.101 334.404 239.958 335.602 242.37Z" fill="#FF5E0E"/>
<path d="M88.8229 113.511L218.181 67.6962V225.969L88.8229 223.273V113.511Z" fill="white"/>
<path opacity="0.5" d="M88.8229 113.511L218.181 67.6962V225.969L88.8229 223.273V113.511Z" fill="#FF5E0E"/>
<path d="M0 139.648L73.7991 113.511V223.273H0V139.648Z" fill="white"/>
<path opacity="0.5" d="M0 139.648L73.7991 113.511V223.273H0V139.648Z" fill="#FF5E0E"/>
<path d="M218.182 67.6962L347.536 113.511V223.273L218.182 225.969V67.6962Z" fill="white"/>
<path d="M218.182 67.6962L347.536 113.511V223.273L218.182 225.969V67.6962Z" fill="#FF5E0E"/>
<path d="M437.695 139.977L362.966 113.511V223.273H437.695V139.977Z" fill="white"/>
<path d="M437.695 139.977L362.966 113.511V223.273H437.695V139.977Z" fill="#FF5E0E"/>
<path d="M224.792 202.93C224.792 202.93 227.2 206.081 223.679 210.836C220.159 215.591 217.252 219.611 218.429 222.567C218.429 222.567 223.74 213.735 228.061 213.634C232.381 213.532 229.543 208.241 224.792 202.93Z" fill="#307457"/>
<path opacity="0.1" d="M224.792 202.93C225.001 203.236 225.166 203.57 225.283 203.921C229.498 208.875 231.744 213.496 227.691 213.613C223.915 213.723 219.387 220.472 218.303 222.177C218.337 222.315 218.379 222.45 218.429 222.583C218.429 222.583 223.74 213.751 228.061 213.65C232.381 213.548 229.543 208.241 224.792 202.93Z" fill="black"/>
<path d="M229.267 206.946C229.267 208.055 229.141 208.952 228.986 208.952C228.832 208.952 228.71 208.055 228.71 206.946C228.71 205.838 228.865 206.357 229.019 206.357C229.173 206.357 229.267 205.838 229.267 206.946Z" fill="#FFD037"/>
<path d="M230.801 208.27C229.831 208.798 228.982 209.119 228.909 208.985C228.836 208.851 229.563 208.31 230.533 207.766C231.504 207.222 231.122 207.624 231.195 207.766C231.268 207.909 231.776 207.738 230.801 208.27Z" fill="#FFD037"/>
<path d="M212.07 202.93C212.07 202.93 209.663 206.081 213.183 210.836C216.703 215.591 219.603 219.611 218.429 222.567C218.429 222.567 213.122 213.735 208.798 213.634C204.473 213.532 207.316 208.241 212.07 202.93Z" fill="#307457"/>
<path opacity="0.1" d="M212.07 202.93C211.861 203.236 211.696 203.57 211.579 203.921C207.36 208.875 205.115 213.496 209.171 213.613C212.943 213.723 217.475 220.472 218.559 222.177C218.524 222.315 218.481 222.451 218.429 222.583C218.429 222.583 213.122 213.751 208.798 213.65C204.473 213.548 207.316 208.241 212.07 202.93Z" fill="black"/>
<path d="M207.596 206.946C207.596 208.055 207.718 208.952 207.872 208.952C208.026 208.952 208.152 208.055 208.152 206.946C208.152 205.838 207.994 206.357 207.844 206.357C207.693 206.357 207.596 205.838 207.596 206.946Z" fill="#FFD037"/>
<path d="M206.057 208.27C207.031 208.798 207.88 209.119 207.953 208.985C208.026 208.851 207.299 208.31 206.329 207.766C205.358 207.222 205.74 207.624 205.667 207.766C205.594 207.909 205.07 207.738 206.057 208.27Z" fill="#FFD037"/>
<path opacity="0.1" d="M218.429 246.654C232.333 246.654 243.604 244.925 243.604 242.792C243.604 240.659 232.333 238.931 218.429 238.931C204.525 238.931 193.254 240.659 193.254 242.792C193.254 244.925 204.525 246.654 218.429 246.654Z" fill="#FF5E0E"/>
<path d="M231.39 218.324L231.268 219.306L231.098 220.695L231.029 221.271L230.858 222.664L230.785 223.241L230.619 224.629L228.69 240.425C228.519 241.834 226.217 242.934 223.436 242.934H213.427C210.645 242.934 208.347 241.834 208.172 240.425L206.244 224.629L206.073 223.241L206.004 222.664L205.834 221.271L205.76 220.695L205.594 219.306L205.472 218.324C205.375 217.511 206.621 216.85 208.197 216.85H228.67C230.245 216.85 231.488 217.524 231.39 218.324Z" fill="#0F241B"/>
<path d="M231.268 219.306L231.098 220.695H205.76L205.594 219.306H231.268Z" fill="#F4FBF8"/>
<path d="M231.029 221.276L230.858 222.664H206.004L205.833 221.276H231.029Z" fill="#F4FBF8"/>
<path d="M230.785 223.245L230.619 224.634H206.244L206.073 223.245H230.785Z" fill="#F4FBF8"/>
<path d="M169.484 132.554L165.606 137.707C165.574 137.755 165.528 137.793 165.475 137.815C165.422 137.837 165.363 137.843 165.306 137.833L161.298 136.875C161.223 136.846 161.156 136.796 161.108 136.732C161.059 136.667 161.029 136.59 161.022 136.509L160.308 131.202C160.286 131.06 160.319 130.915 160.401 130.796L164.271 125.651C164.415 125.445 164.486 125.195 164.469 124.943C164.453 124.692 164.351 124.453 164.181 124.267C163.448 123.535 162.47 123.101 161.436 123.049C161.38 123.042 161.322 123.042 161.266 123.049C160.186 123.13 157.871 123.93 156.085 126.443C154.351 128.879 152.536 133.37 154.144 138.389C154.335 138.994 154.55 139.794 153.908 140.643C153.267 141.491 136.672 162.163 136.672 162.163C135.116 163.938 135.23 167.218 136.672 169.127C136.978 169.563 137.381 169.921 137.85 170.175C138.318 170.429 138.839 170.57 139.372 170.589C139.89 170.579 140.398 170.436 140.845 170.174C141.292 169.911 141.664 169.538 141.926 169.09C141.926 169.09 157.412 147.245 158.168 146.25C158.269 146.084 158.409 145.944 158.576 145.843C158.743 145.742 158.931 145.683 159.126 145.67C159.394 145.683 159.652 145.778 159.865 145.942C160.689 146.504 161.665 146.8 162.663 146.79C164.977 146.79 167.409 145.369 168.895 143.404C170.428 141.428 171.319 139.031 171.449 136.533C171.501 135.171 171.182 133.82 170.528 132.623C170.485 132.525 170.416 132.441 170.329 132.378C170.241 132.316 170.139 132.278 170.032 132.269C169.926 132.26 169.818 132.28 169.722 132.326C169.626 132.373 169.543 132.445 169.484 132.534V132.554ZM140.249 166.642C140.155 166.784 140.028 166.901 139.878 166.982C139.728 167.063 139.56 167.105 139.39 167.105C139.22 167.105 139.052 167.063 138.902 166.982C138.752 166.901 138.625 166.784 138.531 166.642C138.304 166.306 138.183 165.91 138.183 165.505C138.183 165.1 138.304 164.704 138.531 164.368C138.625 164.226 138.752 164.109 138.902 164.028C139.052 163.947 139.22 163.904 139.39 163.904C139.56 163.904 139.728 163.947 139.878 164.028C140.028 164.109 140.155 164.226 140.249 164.368C140.476 164.703 140.598 165.099 140.599 165.504C140.6 165.91 140.479 166.306 140.253 166.642H140.249Z" fill="white"/>
<path d="M306.773 142.515C305.701 130.122 297.3 120.466 287.08 120.466C280.315 120.466 274.358 124.685 270.781 131.129C269.683 130.56 268.465 130.26 267.228 130.256C262.063 130.256 257.889 135.941 257.795 142.348C252.517 144.443 249.041 150.875 249.041 157.624C249.041 165.895 254.417 173.196 261.044 173.196H304.67C311.3 173.196 316.676 165.887 316.676 157.624C316.676 150.258 312.397 143.765 306.773 142.515ZM296.918 139.672L279.259 161.802C279.032 162.082 278.447 162.707 277.724 162.707C277.415 162.671 277.117 162.569 276.85 162.407C276.584 162.245 276.356 162.028 276.181 161.769L268.771 152.532C268.668 152.397 268.613 152.232 268.613 152.063C268.613 151.893 268.668 151.729 268.771 151.594L271.122 148.662C271.164 148.603 271.219 148.554 271.283 148.52C271.348 148.485 271.419 148.466 271.491 148.463C271.564 148.465 271.635 148.485 271.7 148.519C271.764 148.554 271.819 148.603 271.861 148.662L277.728 155.971L293.84 135.721C293.883 135.663 293.939 135.614 294.002 135.58C294.066 135.546 294.137 135.526 294.21 135.522C294.283 135.523 294.355 135.541 294.419 135.576C294.484 135.61 294.539 135.66 294.579 135.721L296.89 138.706C297.003 138.838 297.067 139.004 297.073 139.178C297.078 139.352 297.023 139.522 296.918 139.66V139.672Z" fill="white"/>
<path d="M440.911 220.983C440.911 220.983 436.164 220.699 436.724 224.02C436.694 224.188 436.716 224.36 436.789 224.514C436.862 224.668 436.981 224.795 437.13 224.877C437.13 224.877 437.13 224.629 437.618 224.715C437.788 224.742 437.961 224.751 438.133 224.739C438.365 224.721 438.586 224.63 438.763 224.479C438.763 224.479 440.094 223.927 440.614 221.747C440.614 221.747 441 221.271 440.984 221.15L440.172 221.491C440.325 221.824 440.345 222.203 440.229 222.551C440.229 222.551 440.204 221.511 440.05 221.535C440.017 221.535 439.644 221.738 439.644 221.738C439.644 221.738 440.115 222.741 439.762 223.472C439.762 223.472 439.896 222.254 439.498 221.812L438.933 222.14C438.933 222.14 439.485 223.176 439.112 224.024C439.112 224.024 439.209 222.725 438.815 222.218L438.304 222.624C438.304 222.624 438.824 223.651 438.507 224.353C438.507 224.353 438.466 222.839 438.194 222.729C438 222.893 437.827 223.08 437.679 223.285C437.679 223.285 438.032 224.029 437.813 224.418C437.813 224.418 437.679 223.411 437.569 223.407C437.336 223.748 437.17 224.13 437.078 224.532C437.1 224.109 437.233 223.699 437.463 223.342C437.206 223.391 436.969 223.514 436.781 223.696C436.781 223.696 436.85 223.225 437.593 223.18C437.727 222.984 437.882 222.805 438.056 222.644C437.667 222.61 437.274 222.656 436.903 222.778C436.903 222.778 437.309 222.331 438.19 222.534L438.694 222.128C438.247 222.055 437.792 222.055 437.346 222.128C437.346 222.128 437.808 221.722 438.828 222.023L439.38 221.694C438.958 221.601 438.525 221.562 438.093 221.58C438.56 221.405 439.077 221.414 439.538 221.604L439.944 221.43C439.944 221.43 439.351 221.312 439.181 221.296C439.01 221.28 438.998 221.227 438.998 221.227C439.372 221.166 439.756 221.209 440.107 221.353C440.385 221.253 440.654 221.13 440.911 220.983Z" fill="#307457"/>
<path opacity="0.1" d="M437.642 225.734C439.497 225.734 441 225.479 441 225.166C441 224.852 439.497 224.597 437.642 224.597C435.787 224.597 434.284 224.852 434.284 225.166C434.284 225.479 435.787 225.734 437.642 225.734Z" fill="#FF5E0E"/>
<path d="M367.806 221.121C367.806 221.121 362.081 220.776 362.755 224.776C362.72 224.979 362.75 225.188 362.841 225.374C362.932 225.559 363.08 225.711 363.262 225.807C363.262 225.807 363.262 225.511 363.851 225.612C364.056 225.647 364.265 225.657 364.472 225.641C364.754 225.623 365.022 225.513 365.236 225.328C365.236 225.328 366.86 224.662 367.469 222.031C367.469 222.031 367.936 221.458 367.916 221.308L366.949 221.714C367.134 222.115 367.158 222.571 367.018 222.989C367.018 222.989 366.99 221.738 366.803 221.771C366.766 221.771 366.3 222.01 366.3 222.01C366.3 222.01 366.868 223.229 366.442 224.11C366.442 224.11 366.604 222.611 366.121 222.08L365.443 222.486C365.443 222.486 366.105 223.74 365.658 224.768C365.658 224.768 365.772 223.196 365.301 222.583L364.683 223.066C364.683 223.066 365.309 224.284 364.927 225.149C364.927 225.149 364.878 223.322 364.549 223.184C364.316 223.381 364.107 223.606 363.928 223.854C363.928 223.854 364.334 224.751 364.091 225.226C364.091 225.226 363.928 224.008 363.794 224.008C363.515 224.421 363.314 224.883 363.201 225.369C363.228 224.857 363.388 224.362 363.664 223.931C363.36 223.987 363.079 224.127 362.852 224.337C362.852 224.337 362.937 223.765 363.81 223.716C363.972 223.479 364.16 223.261 364.371 223.066C363.9 223.026 363.427 223.081 362.978 223.229C362.978 223.229 363.441 222.689 364.529 222.932L365.138 222.437C364.6 222.35 364.052 222.35 363.514 222.437C363.514 222.437 364.07 221.962 365.305 222.307L365.967 221.901C365.456 221.788 364.933 221.743 364.411 221.767C364.411 221.767 365.025 221.434 366.161 221.791L366.632 221.58C366.632 221.58 365.922 221.442 365.711 221.418C365.5 221.393 365.491 221.336 365.491 221.336C365.943 221.262 366.407 221.314 366.831 221.487C367.167 221.395 367.493 221.272 367.806 221.121Z" fill="#307457"/>
<path opacity="0.1" d="M363.863 226.859C366.101 226.859 367.915 226.552 367.915 226.173C367.915 225.794 366.101 225.486 363.863 225.486C361.625 225.486 359.811 225.794 359.811 226.173C359.811 226.552 361.625 226.859 363.863 226.859Z" fill="#FF5E0E"/>
<path d="M331.887 181.093C331.887 181.093 332.354 180.642 332.2 180.338C332.155 180.243 332.131 180.14 332.131 180.035C332.131 179.931 332.155 179.827 332.2 179.733C332.2 179.733 331.152 175.616 330.762 175.201C330.506 174.9 330.309 174.553 330.182 174.178C330.222 174.098 330.242 174.008 330.238 173.918C330.221 173.503 330.08 173.103 329.832 172.769C329.528 172.319 329.36 171.79 329.349 171.246C329.345 171.179 329.345 171.111 329.349 171.043C329.233 170.738 329.044 170.465 328.8 170.248C328.555 170.031 328.262 169.876 327.944 169.797C328.078 168.924 328.261 168.051 328.318 167.174C328.501 164.425 327.477 161.757 326.47 159.183C326.25 158.545 325.955 157.935 325.589 157.368C325.139 156.775 324.568 156.283 323.915 155.927C323.261 155.57 322.539 155.355 321.797 155.297C321.25 155.228 320.695 155.283 320.173 155.455C319.656 155.687 319.183 156.004 318.772 156.393C318.337 156.759 317.903 157.132 317.501 157.53L317.452 157.579L317.31 157.729L317.253 157.786L317.119 157.936L317.07 157.989C317.013 158.058 316.953 158.127 316.896 158.2C316.843 158.269 316.79 158.334 316.741 158.403L316.693 158.472L316.587 158.622L316.538 158.7C316.502 158.752 316.473 158.805 316.441 158.858L316.396 158.931C316.356 159.008 316.311 159.085 316.27 159.167L316.124 159.491V159.536L316.039 159.751C315.929 160.011 315.824 160.271 315.69 160.519L315.665 160.559L315.373 160.913C315.24 161.088 315.128 161.279 315.04 161.481L315.012 161.546C315.012 161.574 314.991 161.607 314.979 161.635L314.951 161.708C314.943 161.74 314.934 161.771 314.922 161.802C314.922 161.826 314.922 161.851 314.922 161.879L314.898 161.968C314.898 161.997 314.898 162.021 314.898 162.049C314.898 162.078 314.898 162.11 314.878 162.139V162.224V162.313C314.878 162.346 314.878 162.378 314.878 162.415C314.878 162.451 314.878 162.464 314.878 162.484C314.878 162.504 314.878 162.598 314.878 162.654C314.878 162.711 314.878 162.699 314.878 162.724C314.876 162.76 314.876 162.797 314.878 162.833C314.876 162.857 314.876 162.882 314.878 162.906C314.876 162.94 314.876 162.974 314.878 163.008V163.081C314.878 163.117 314.878 163.15 314.878 163.182C314.876 163.207 314.876 163.231 314.878 163.255L314.902 163.361C314.902 163.361 314.902 163.406 314.902 163.426L314.939 163.54C314.939 163.54 314.939 163.576 314.959 163.592C314.979 163.609 314.999 163.706 315.024 163.759C315.149 164.031 315.301 164.29 315.479 164.53C315.596 164.693 315.718 164.851 315.84 165.014L316.015 165.257C316.133 165.419 316.24 165.589 316.335 165.765C316.62 166.309 316.759 166.918 316.737 167.532C316.715 168.145 316.533 168.743 316.21 169.265L316.063 169.488C315.983 169.612 315.927 169.75 315.897 169.894C315.883 170.02 315.896 170.147 315.936 170.267C315.976 170.387 316.042 170.497 316.128 170.589L315.767 170.682C315.47 170.763 315.267 170.828 315.267 170.828C315.022 170.807 314.774 170.807 314.528 170.828C314.187 170.936 313.88 171.132 313.639 171.397C313.639 171.397 312.088 171.583 311.581 171.133C311.073 170.682 309.295 170.528 309.295 170.528C309.295 170.528 308.791 169.545 308.247 169.241C307.703 168.936 306.387 168.372 306.347 168.071C306.233 167.753 306.063 167.459 305.843 167.202C305.576 167.145 305.304 167.112 305.031 167.105L304.946 166.959L303.862 165.087C303.862 165.087 302.501 163.499 301.766 163.349C301.031 163.199 302.802 165.034 302.887 165.119C302.636 164.94 302.324 164.867 302.02 164.917C301.715 164.968 301.443 165.137 301.263 165.387C300.686 166.029 302.217 167.535 303.167 168.368L303.322 168.502C303.328 168.585 303.341 168.668 303.358 168.749C303.784 170.978 306.148 172.907 306.148 172.907C306.148 172.907 306.42 174.154 307.313 174.458C308.024 174.698 311.84 176.428 313.83 176.773C313.664 177.203 313.469 178.202 314.293 179.672C314.293 179.672 314.488 182.279 314.061 182.62C313.635 182.961 313.655 186.737 313.655 186.737C313.655 186.737 312.031 193.311 313.655 194.708C313.758 194.796 313.875 194.868 314.001 194.919C314.001 195.021 314.029 195.126 314.041 195.236C314.114 195.894 314.139 196.576 313.964 196.86C313.558 197.501 314.098 199.239 314.098 199.239C314.098 199.239 312.531 208.12 313.229 211.254C313.67 213.597 313.877 215.977 313.846 218.36C313.846 218.36 313.615 221.117 314.817 222.782C314.949 223.176 315.027 223.585 315.048 224C315.127 224.797 315.337 225.574 315.669 226.302C315.942 226.83 316.482 229.064 316.019 229.665C315.556 230.265 316.522 236.847 316.522 236.847C316.522 236.847 315.747 238.878 316.522 239.946L316.547 239.974C316.087 239.969 315.629 239.903 315.186 239.779C314.317 239.487 314.967 240.591 315.998 241.346C315.548 242.37 314.93 243.742 314.723 244.189C313.826 244.343 312.048 244.595 311.004 244.347C309.571 244.01 311.625 246.312 313.562 246.731C314.93 246.986 316.322 247.087 317.712 247.031L318.962 245.651C319.973 245.786 320.994 245.824 322.012 245.764L321.902 247.047H322.637V245.716C323.1 245.671 323.579 245.61 324.075 245.521C324.075 245.521 324.103 244.116 324.014 242.788L324.464 242.829L324.533 242.094L326.129 242.382L327.563 230.607C327.563 230.607 327.721 226.225 328.07 223.769C328.419 221.312 327.331 213.073 327.331 213.073C327.331 213.073 327.254 212.667 327.177 211.904C327.1 211.141 327.177 206.686 327.177 206.686C327.177 206.686 327.757 204.25 327.644 204.043C327.53 203.836 327.68 202.796 327.68 202.796C330.117 197.83 327.12 193.344 326.076 192.012C326.137 191.956 326.173 191.879 326.178 191.797C326.184 191.768 326.184 191.739 326.178 191.711C326.014 191.291 325.818 190.884 325.593 190.493L326.202 189.718C326.413 190.022 326.564 190.249 326.564 190.249C326.564 190.249 327.222 188.776 327.883 188.219C328.545 187.663 331.721 182.364 331.721 182.364C331.721 182.364 332.46 181.869 332.07 181.455C331.68 181.04 331.887 181.093 331.887 181.093ZM322.117 222.884C322.065 222.712 321.97 222.557 321.841 222.433C321.841 222.433 321.728 221.621 321.687 220.577C321.919 221.389 322.154 221.978 322.154 221.978L322.117 222.884ZM323.945 242.199C323.945 242.126 323.945 242.053 323.945 241.984H324.002L323.945 242.199ZM324.424 188.447V188.398C324.415 188.294 324.434 188.189 324.478 188.094C324.522 188 324.59 187.918 324.676 187.858C324.72 187.83 324.756 187.791 324.78 187.745C324.803 187.698 324.814 187.646 324.81 187.594C324.791 187.423 324.726 187.26 324.623 187.123C324.7 187.18 324.94 187.31 325.102 186.839C325.126 186.765 325.139 186.689 325.138 186.611C325.1 186.218 324.939 185.846 324.68 185.547L326.434 181.852C326.626 181.91 326.821 181.954 327.018 181.986C326.56 183.408 326.182 185.101 326.182 185.101L324.826 188.085C324.918 188.121 324.999 188.18 325.061 188.256L324.424 188.447Z" fill="url(#paint0_linear_179_1027)"/>
<path d="M318.589 239.881C318.589 239.881 316.311 240.161 315.202 239.779C314.094 239.397 315.544 241.403 317.042 241.895C318.099 242.205 319.19 242.39 320.29 242.447L322.048 240.79L323.916 240.936L323.591 242.768L324.172 242.82L324.395 240.425L318.589 239.881Z" fill="#444053"/>
<path opacity="0.1" d="M318.589 239.881C318.589 239.881 316.311 240.161 315.202 239.779C314.094 239.397 315.544 241.403 317.042 241.895C318.099 242.205 319.19 242.39 320.29 242.447L322.048 240.79L323.916 240.936L323.591 242.768L324.172 242.82L324.395 240.425L318.589 239.881Z" fill="black"/>
<path d="M315.3 244.067C315.3 244.067 312.563 244.664 311.178 244.327C309.794 243.99 311.779 246.276 313.651 246.686C314.971 246.941 316.316 247.042 317.659 246.987L319.608 244.778L321.89 244.741L321.703 247.003H322.418V244.067H315.3Z" fill="#444053"/>
<path opacity="0.1" d="M315.3 244.067C315.3 244.067 312.563 244.664 311.178 244.327C309.794 243.99 311.779 246.276 313.651 246.686C314.971 246.941 316.316 247.042 317.659 246.987L319.608 244.778L321.89 244.741L321.703 247.003H322.418V244.067H315.3Z" fill="black"/>
<path d="M325.411 192.04C325.411 192.04 330.092 197.246 327.286 203.125C327.286 203.125 327.136 204.177 327.246 204.364C327.355 204.55 326.799 206.987 326.799 206.987C326.799 206.987 326.722 211.405 326.799 212.156C326.876 212.907 326.949 213.313 326.949 213.313C326.949 213.313 327.997 221.479 327.66 223.915C327.323 226.351 327.173 230.696 327.173 230.696L325.788 242.382L318.597 241.034L321.845 224.999L321.959 222.157C321.959 222.157 320.611 218.677 321.208 216.915C321.805 215.152 321.058 192.718 321.058 192.718L325.411 192.04Z" fill="#444053"/>
<path opacity="0.02" d="M325.411 192.04C325.411 192.04 330.092 197.246 327.286 203.125C327.286 203.125 327.136 204.177 327.246 204.364C327.355 204.55 326.799 206.987 326.799 206.987C326.799 206.987 326.722 211.405 326.799 212.156C326.876 212.907 326.949 213.313 326.949 213.313C326.949 213.313 327.997 221.479 327.66 223.915C327.323 226.351 327.173 230.696 327.173 230.696L325.788 242.382L318.597 241.034L321.845 224.999L321.959 222.157C321.959 222.157 320.611 218.677 321.208 216.915C321.805 215.152 321.058 192.718 321.058 192.718L325.411 192.04Z" fill="black"/>
<path d="M321.967 217.211C321.155 218.782 321.667 222.603 321.667 222.603C322.751 223.541 322.154 231.707 322.154 231.707C322.154 231.707 322.901 239.759 323.372 240.697C323.843 241.635 323.778 245.488 323.778 245.488C318.272 246.499 314.675 244.327 314.675 244.327C314.675 244.327 316.437 240.319 316.473 240.132C316.494 240.027 316.729 240.311 316.798 240.396L316.473 239.946C315.722 238.898 316.473 236.876 316.473 236.876C316.473 236.876 315.535 230.379 315.986 229.758C316.437 229.137 315.913 226.948 315.649 226.424C315.327 225.7 315.124 224.928 315.048 224.138C315.027 223.731 314.951 223.328 314.825 222.94C313.664 221.292 313.887 218.559 313.887 218.559C313.918 216.198 313.718 213.84 313.29 211.518C312.616 208.408 314.131 199.605 314.131 199.605C314.131 199.605 313.627 197.883 314.001 197.246C314.171 196.961 314.147 196.287 314.074 195.621C313.984 194.809 313.814 194.054 313.814 194.054L324.042 192.251C324.257 192.609 324.448 192.954 324.635 193.287C328.017 199.536 325.735 201.854 325.735 201.854L323.563 208.522C323.563 208.522 322.792 215.636 321.967 217.211Z" fill="#444053"/>
<path d="M305.77 168.331L304.308 169.549C304.308 169.549 304.02 169.322 303.638 168.977C302.721 168.165 301.242 166.658 301.799 166.025C301.883 165.902 301.99 165.798 302.115 165.718C302.24 165.638 302.38 165.585 302.526 165.56C302.673 165.535 302.822 165.54 302.967 165.575C303.111 165.609 303.247 165.673 303.366 165.761C303.285 165.671 301.588 163.856 302.286 164.003C302.984 164.149 304.316 165.724 304.316 165.724L305.364 167.58L305.77 168.331Z" fill="#EFB7B9"/>
<path d="M325.337 188.56L323.616 189.084L324.923 191.366L326.422 189.421L325.337 188.56Z" fill="#EFB7B9"/>
<path d="M321.293 167.097C324.002 167.097 326.198 164.901 326.198 162.192C326.198 159.483 324.002 157.287 321.293 157.287C318.584 157.287 316.388 159.483 316.388 162.192C316.388 164.901 318.584 167.097 321.293 167.097Z" fill="#EFB7B9"/>
<path d="M318.406 163.982C318.406 163.982 322.873 171.06 318.634 171.661C314.394 172.262 324.318 176.566 324.318 176.566L328.025 172.822C328.025 172.822 324.168 166.155 324.777 163.609C325.386 161.063 318.406 163.982 318.406 163.982Z" fill="#EFB7B9"/>
<path opacity="0.1" d="M324.647 193.287C323.658 193.588 322.65 193.823 321.63 193.989C321.63 193.989 316.108 196.425 314.098 195.613C314.009 194.801 313.838 194.046 313.838 194.046L324.042 192.251C324.269 192.609 324.468 192.954 324.647 193.287Z" fill="black"/>
<path d="M329.727 174.771L328.728 176.838L327.603 179.16L327.441 179.493L326.105 182.38L324.408 186.035C324.408 186.035 325.009 186.745 324.814 187.31C324.619 187.874 324.363 187.606 324.33 187.574C324.359 187.618 324.737 188.106 324.4 188.321C324.3 188.407 324.227 188.519 324.187 188.644C324.148 188.77 324.144 188.904 324.176 189.031C324.176 189.031 325.561 191.317 325.825 192.142C326.089 192.966 321.63 193.677 321.63 193.677C321.63 193.677 315.3 196.486 313.725 195.098C312.149 193.709 313.725 187.196 313.725 187.196C313.725 187.196 313.725 183.452 314.131 183.115C314.537 182.778 314.354 180.192 314.354 180.192C313.27 178.206 314.017 177.081 314.017 177.081L313.716 171.99C313.716 171.99 314.204 171.466 314.577 171.429C314.815 171.405 315.054 171.405 315.292 171.429C315.292 171.429 315.487 171.36 315.775 171.283C316.376 171.112 317.371 170.877 317.724 171.052C318.248 171.315 321.622 170.645 321.622 170.645C323.074 170.433 324.537 170.297 326.003 170.239C326.504 170.21 327.007 170.265 327.49 170.402C327.815 170.475 328.117 170.629 328.368 170.85C328.618 171.071 328.809 171.351 328.923 171.665C328.867 172.274 329.026 172.883 329.374 173.386C329.983 174.361 329.727 174.771 329.727 174.771Z" fill="#FF6484"/>
<path opacity="0.1" d="M305.77 168.331L304.308 169.549C304.308 169.549 304.02 169.322 303.638 168.977C303.52 167.714 304.596 167.547 305.356 167.58L305.77 168.331Z" fill="black"/>
<path d="M314.362 171.965L313.724 172.002C313.724 172.002 312.226 172.188 311.739 171.738C311.252 171.287 309.53 171.141 309.53 171.141C309.53 171.141 309.043 170.166 308.519 169.866C307.995 169.565 306.72 169.005 306.684 168.705C306.576 168.39 306.41 168.098 306.196 167.844C306.196 167.844 303.387 167.17 303.801 169.379C304.215 171.588 306.497 173.5 306.497 173.5C306.497 173.5 306.761 174.718 307.622 175.035C308.482 175.352 314.061 177.958 314.963 177.284C315.864 176.61 314.362 171.965 314.362 171.965Z" fill="#FF6484"/>
<path opacity="0.1" d="M329.382 173.374C329.034 172.871 328.875 172.262 328.931 171.653C328.817 171.339 328.626 171.059 328.376 170.838C328.125 170.617 327.823 170.463 327.498 170.39C327.26 170.319 327.017 170.271 326.771 170.248C327.092 170.323 327.389 170.477 327.636 170.696C327.882 170.916 328.071 171.192 328.184 171.502C328.125 172.112 328.285 172.722 328.634 173.224C329.231 174.198 328.972 174.613 328.972 174.613L327.973 176.675L326.844 179.006L326.685 179.339L325.35 182.226L323.652 185.88C323.652 185.88 324.249 186.591 324.058 187.155C323.867 187.72 323.612 187.452 323.575 187.419C323.608 187.464 323.981 187.951 323.648 188.166C323.549 188.253 323.475 188.365 323.435 188.49C323.395 188.615 323.39 188.749 323.421 188.877C323.421 188.877 324.81 191.163 325.069 191.987C325.329 192.812 320.875 193.522 320.875 193.522C320.875 193.522 316.477 195.471 314.102 195.321C316.132 196.113 321.626 193.672 321.626 193.672C321.626 193.672 326.093 192.962 325.821 192.138C325.549 191.313 324.172 189.027 324.172 189.027C324.14 188.9 324.144 188.766 324.183 188.64C324.223 188.515 324.296 188.403 324.395 188.317C324.72 188.102 324.355 187.614 324.326 187.57C324.359 187.602 324.635 187.829 324.81 187.306C324.984 186.782 324.403 186.031 324.403 186.031L326.101 182.376L327.437 179.489L327.599 179.156L328.724 176.834L329.723 174.767C329.723 174.767 329.983 174.349 329.382 173.374Z" fill="black"/>
<path d="M329.045 174.211L329.719 174.771C329.841 175.142 330.032 175.486 330.283 175.786C330.657 176.192 331.668 180.277 331.668 180.277C331.625 180.371 331.603 180.474 331.603 180.577C331.603 180.681 331.625 180.784 331.668 180.878C331.818 181.178 331.367 181.629 331.367 181.629C331.367 181.629 331.144 181.552 331.517 181.966C331.891 182.38 331.18 182.863 331.18 182.863C331.18 182.863 328.111 188.106 327.473 188.67C326.836 189.234 326.198 190.7 326.198 190.7C326.198 190.7 324.866 188.605 324.55 188.564L325.861 185.604C325.861 185.604 326.758 181.487 327.432 180.732C328.107 179.976 327.095 177.398 327.095 177.398L329.045 174.211Z" fill="#FF6484"/>
<path opacity="0.1" d="M329.475 181.848C328.915 182.522 327.924 182.66 327.039 182.567C326.909 182.567 326.783 182.535 326.653 182.51C326.462 182.474 326.271 182.429 326.085 182.376C325.416 182.183 324.786 181.874 324.225 181.463C324.107 181.356 323.969 181.275 323.819 181.223C323.64 181.202 323.46 181.236 323.301 181.321C323.143 181.406 323.015 181.538 322.934 181.698C322.743 182.003 322.653 182.36 322.459 182.665C322.246 182.951 321.969 183.182 321.649 183.339C321.328 183.496 320.975 183.574 320.619 183.566C319.906 183.546 319.201 183.409 318.532 183.16C319.13 182.522 319.587 181.765 319.872 180.939C319.994 180.39 320.03 179.826 319.978 179.266C319.815 176.614 318.893 173.821 316.729 172.278C316.356 172.01 315.917 171.693 315.779 171.291C316.38 171.121 317.375 170.885 317.728 171.06C318.252 171.324 321.626 170.654 321.626 170.654C323.078 170.441 324.541 170.305 326.007 170.248C326.508 170.218 327.011 170.273 327.494 170.41C327.251 171.511 327.209 172.648 327.372 173.764C327.526 174.453 327.774 175.117 328.111 175.737C328.306 176.107 328.517 176.476 328.716 176.846C329.288 177.869 329.832 178.896 329.934 180.05C330.02 180.686 329.856 181.331 329.475 181.848Z" fill="black"/>
<path opacity="0.1" d="M322.069 187.127C322.354 187.051 322.651 187.025 322.946 187.05C323.192 187.123 323.418 187.254 323.604 187.432H321.679C321.184 187.432 320.436 187.46 320.055 187.111C320.388 186.774 321.581 187.184 322.069 187.127Z" fill="black"/>
<path d="M315.397 161.615C315.105 162.017 314.921 162.487 314.863 162.98C314.804 163.474 314.874 163.974 315.064 164.433C315.373 165.16 315.966 165.724 316.331 166.423C316.606 166.964 316.739 167.567 316.718 168.174C316.696 168.781 316.522 169.373 316.209 169.894C316.067 170.078 315.965 170.29 315.909 170.516C315.82 171.088 316.412 171.498 316.883 171.831C319.044 173.374 319.965 176.168 320.132 178.819C320.188 179.379 320.153 179.944 320.03 180.492C319.746 181.319 319.289 182.076 318.69 182.713C319.36 182.961 320.064 183.098 320.777 183.119C321.134 183.125 321.487 183.046 321.807 182.889C322.126 182.731 322.404 182.5 322.617 182.214C322.812 181.913 322.901 181.556 323.092 181.247C323.173 181.087 323.301 180.955 323.459 180.87C323.618 180.785 323.799 180.751 323.977 180.772C324.127 180.825 324.265 180.906 324.383 181.012C325.209 181.619 326.179 182 327.197 182.116C328.07 182.218 329.061 182.072 329.633 181.398C330.015 180.876 330.18 180.227 330.092 179.587C329.897 177.317 327.977 175.526 327.534 173.301C327.173 171.494 327.822 169.647 327.94 167.811C328.119 165.091 327.128 162.439 326.158 159.893C325.942 159.262 325.656 158.657 325.305 158.091C324.876 157.511 324.328 157.03 323.698 156.68C323.067 156.329 322.369 156.118 321.65 156.06C321.119 155.99 320.578 156.044 320.071 156.219C319.57 156.448 319.111 156.761 318.715 157.144C317.789 157.957 316.835 158.769 316.278 159.897C316.059 160.352 315.917 160.839 315.673 161.278" fill="#925978"/>
<g opacity="0.1">
<path opacity="0.1" d="M316.283 160.624C316.522 160.182 316.689 159.694 316.883 159.244C317.094 158.822 317.356 158.428 317.663 158.07C317.103 158.59 316.637 159.202 316.287 159.881C316.075 160.324 315.933 160.795 315.702 161.225L315.998 160.973C315.923 161.077 315.853 161.186 315.791 161.298C315.981 161.094 316.146 160.868 316.283 160.624Z" fill="black"/>
<path opacity="0.1" d="M327.802 181.483C326.784 181.364 325.814 180.982 324.988 180.374C324.868 180.272 324.73 180.191 324.582 180.135C324.403 180.116 324.223 180.152 324.065 180.237C323.907 180.323 323.779 180.454 323.697 180.614C323.658 180.678 323.622 180.745 323.591 180.813C323.719 180.755 323.862 180.743 323.997 180.776C324.147 180.829 324.285 180.91 324.403 181.016C325.229 181.623 326.199 182.004 327.217 182.12C328.09 182.222 329.081 182.076 329.654 181.402C329.725 181.315 329.788 181.221 329.84 181.122C329.222 181.47 328.503 181.597 327.802 181.483Z" fill="black"/>
<path opacity="0.1" d="M321.366 182.482C320.654 182.46 319.951 182.323 319.283 182.076C319.88 181.436 320.335 180.678 320.619 179.851C320.744 179.304 320.779 178.74 320.725 178.182C320.562 175.53 319.645 172.733 317.476 171.194C317.005 170.857 316.416 170.447 316.502 169.874C316.562 169.649 316.666 169.438 316.806 169.253C317.118 168.732 317.293 168.141 317.315 167.535C317.336 166.928 317.203 166.326 316.928 165.785C316.563 165.087 315.97 164.518 315.657 163.795C315.493 163.395 315.42 162.964 315.442 162.532C315.465 162.101 315.582 161.679 315.787 161.298C315.683 161.407 315.574 161.51 315.458 161.607C315.374 161.723 315.283 161.834 315.186 161.94C314.981 162.32 314.863 162.741 314.842 163.172C314.82 163.603 314.895 164.034 315.06 164.433C315.369 165.16 315.962 165.724 316.327 166.423C316.602 166.964 316.735 167.567 316.714 168.174C316.692 168.781 316.517 169.373 316.205 169.894C316.063 170.078 315.961 170.29 315.905 170.516C315.816 171.088 316.408 171.498 316.879 171.831C319.04 173.374 319.961 176.168 320.128 178.819C320.184 179.379 320.149 179.943 320.026 180.492C319.742 181.319 319.285 182.076 318.686 182.713C319.355 182.961 320.06 183.098 320.773 183.119C321.13 183.125 321.483 183.046 321.802 182.889C322.122 182.731 322.4 182.5 322.613 182.214C322.637 182.173 322.661 182.133 322.682 182.092C322.287 182.34 321.832 182.474 321.366 182.482Z" fill="black"/>
</g>
<path d="M28.8456 230.866C28.0035 230.757 27.1963 230.461 26.4824 230.002L26.4093 229.949C26.4679 229.864 26.5093 229.769 26.5312 229.669C26.4308 229.475 26.378 229.261 26.3769 229.043C26.3799 228.836 26.3384 228.631 26.255 228.442V227.427C26.0147 227.088 25.8947 226.677 25.914 226.262C25.8855 225.421 25.8531 221.296 25.8531 221.296C25.806 221.08 25.7964 220.857 25.8246 220.638C25.8531 220.159 25.8531 219.98 25.8531 219.98C25.7528 219.702 25.7222 219.404 25.7637 219.111C25.7897 218.835 25.7115 218.558 25.5445 218.336L26.0074 216.062C26.0074 216.062 26.2632 208.217 25.516 205.85C25.516 205.85 25.516 205.85 25.516 205.821C25.5769 204.299 24.6512 201.761 25.175 199.991C25.6988 198.22 25.7637 197.838 25.7637 197.838C25.7637 197.838 23.4493 192.036 22.8645 190.66C22.5282 189.768 22.1209 188.904 21.6464 188.077C21.6085 188.026 21.572 187.977 21.5368 187.931L21.4759 187.858C21.6031 187.648 21.6796 187.412 21.6992 187.168C21.7317 186.762 21.6708 186.25 21.9834 185.949C22.1025 185.853 22.2303 185.767 22.3651 185.694C22.6031 185.538 22.7926 185.318 22.9117 185.059C23.0309 184.801 23.0751 184.514 23.0391 184.232C22.9484 183.786 22.7362 183.375 22.426 183.042C22.4601 182.844 22.4778 182.643 22.4788 182.441C22.4779 181.984 22.3834 181.532 22.2011 181.113C22.0188 180.694 21.7527 180.317 21.419 180.005V179.818C21.4237 179.404 21.2941 178.999 21.0495 178.665L21.1348 178.726L20.9886 178.6C20.9179 178.527 20.8373 178.464 20.749 178.413C20.0619 177.944 19.259 177.673 18.4282 177.63C17.5973 177.587 16.7707 177.774 16.0389 178.17C15.6723 178.363 15.3575 178.641 15.1212 178.982C14.638 179.729 14.7598 180.691 14.5081 181.54C14.2563 182.388 13.696 183.014 13.2209 183.72C12.7458 184.427 12.352 185.263 12.5306 186.087C12.6606 186.688 13.0829 187.224 13.0747 187.833C13.0549 188.156 12.9219 188.462 12.6991 188.697C12.4764 188.931 12.1781 189.08 11.8566 189.117H11.6739C12.2777 189.482 12.9596 189.699 13.6635 189.75C13.6635 189.807 13.631 189.86 13.6188 189.917C13.0666 192.06 12.5591 194.789 12.5591 194.789C12.5591 194.789 12.9001 197.542 12.1896 199.694C11.479 201.846 11.5724 206.276 11.5724 206.276C11.5724 206.276 13.5458 205.257 13.6716 205.915C13.7975 206.573 13.6716 206.751 13.6716 206.751C13.9568 206.902 14.2495 207.037 14.5487 207.157V207.421L14.4594 208.599C14.4278 208.843 14.4658 209.09 14.569 209.313C14.7395 209.642 14.569 210.532 14.569 210.532C14.569 210.532 14.4228 210.621 14.569 211.043C14.6339 211.385 14.5943 211.739 14.4553 212.058C14.4553 212.058 14.2807 214.3 14.2482 214.779C14.1051 215.406 13.8983 216.017 13.631 216.602C13.631 216.602 14.1589 217.26 13.631 217.353C13.1032 217.447 13.0463 218.246 13.0463 218.246C13.0463 218.246 12.4291 218.758 12.4291 218.937C10.5641 221.011 9.35347 223.591 8.94929 226.351C8.94929 226.351 8.29962 226.948 8.39301 227.516C8.44579 227.837 8.34022 227.947 8.23871 227.983C8.3524 227.983 8.47828 228.073 8.42143 228.353C8.3321 228.832 8.08441 229.847 8.08441 229.847H8.12908C7.62152 230.432 6.88657 231.41 6.77288 232.283V232.389L6.48865 233.01L8.92493 234.086L9.14014 233.757C9.14014 233.757 10.2202 234.976 11.4546 235.252C11.6667 235.298 11.8831 235.323 12.1002 235.325C12.7877 235.31 13.467 235.173 14.1061 234.919C14.1061 234.919 14.9994 233.814 12.6849 233.603C12.6849 233.603 11.3287 232.048 11.4668 231.39C11.5103 231.113 11.5388 230.834 11.5521 230.554C11.5521 230.493 11.5521 230.432 11.5521 230.375L11.7104 230.399L11.7388 229.896C11.7736 229.855 11.7998 229.807 11.8158 229.755C11.8319 229.703 11.8374 229.649 11.8322 229.595C11.8322 229.388 11.6454 229.356 11.8322 229.238C12.019 229.12 12.015 229.238 12.015 228.942C12.015 228.645 11.8931 228.731 12.1693 228.43C12.4454 228.13 12.1408 227.594 12.1408 227.594C12.3117 227.466 12.4538 227.304 12.5581 227.118C12.6623 226.932 12.7263 226.726 12.7458 226.514C12.7174 225.888 14.8126 221.909 15.243 221.759C15.6734 221.608 15.7059 220.829 15.7059 220.829C15.7059 220.829 16.2947 220.951 16.4774 220.829C16.767 220.505 17.0253 220.154 17.2489 219.781C17.2489 219.781 19.5918 213.861 19.6243 211.62L19.7786 211.112C19.7786 211.112 20.6719 212.278 20.546 213.114C20.4201 213.95 21.2322 214.551 21.2322 214.551V217.093C21.3215 217.536 21.3704 217.986 21.3784 218.437C21.35 218.843 21.7439 219.274 21.5936 219.635C21.5125 219.959 21.5125 220.298 21.5936 220.622C21.5936 220.622 21.5611 221.458 21.5936 221.698C21.6261 221.937 21.4718 224.686 22.2758 225.884C22.2758 225.884 22.6128 226.749 22.2758 227.318C21.9388 227.886 22.5803 228.454 22.5803 228.454C22.5803 228.454 22.1743 229.112 22.5803 229.591C22.8117 229.893 22.9152 230.274 22.8686 230.651C22.7062 231.26 22.5884 232.056 22.8686 232.612L22.9417 233.469L25.3049 233.286V232.811C26.3231 233.061 27.3778 233.127 28.4193 233.006C28.8218 232.97 29.2125 232.851 29.5674 232.658C29.9222 232.464 30.2335 232.2 30.482 231.881C30.482 231.881 31.4321 230.237 28.8456 230.866Z" fill="url(#paint1_linear_179_1027)"/>
<path d="M30.0393 231.898C29.8006 232.212 29.499 232.474 29.1536 232.665C28.8083 232.857 28.4268 232.974 28.0335 233.01C27.0269 233.131 26.0066 233.064 25.0247 232.811V233.291L22.7427 233.469L22.6736 232.616C22.4097 232.056 22.5315 231.244 22.6939 230.635C22.7676 230.347 22.8612 230.065 22.9741 229.79C22.9741 229.79 24.9394 228.122 25.5931 229.384C25.7352 229.643 25.932 229.867 26.1697 230.042C26.8556 230.498 27.6358 230.792 28.4517 230.903C30.9611 230.261 30.0393 231.898 30.0393 231.898Z" fill="#FF6484"/>
<path opacity="0.1" d="M23.973 230.261C23.973 230.261 23.973 231.808 25.1018 231.78C26.2306 231.752 26.3849 231.163 26.0276 230.765C25.784 230.483 25.5741 230.174 25.4023 229.843L23.973 230.261Z" fill="black"/>
<path d="M14.2279 234.935C13.6139 235.187 12.9588 235.325 12.2951 235.341C12.0849 235.339 11.8755 235.315 11.6698 235.272C10.4801 235.004 9.43655 233.782 9.43655 233.782L9.22947 234.111L6.87439 233.039L7.14238 232.413V232.304C7.25202 231.451 7.95447 230.473 8.44985 229.892C8.73003 229.567 8.94929 229.356 8.94929 229.356L11.7916 229.762C11.7916 229.762 11.7916 230.127 11.7916 230.574C11.7816 230.854 11.7545 231.134 11.7104 231.41C11.5927 232.064 12.9001 233.611 12.9001 233.611C15.0928 233.822 14.2279 234.935 14.2279 234.935Z" fill="#FF6484"/>
<path d="M8.57171 228.016C8.52385 228.029 8.4734 228.029 8.42554 228.016C8.47386 228.007 8.52339 228.007 8.57171 228.016Z" fill="#444053"/>
<path opacity="0.1" d="M11.7591 229.786C11.7591 229.786 11.7591 230.152 11.7591 230.598L8.43359 230.066C8.43359 230.066 8.43359 230.002 8.47014 229.896C8.73001 229.567 8.94927 229.356 8.94927 229.356L11.7591 229.786Z" fill="black"/>
<path opacity="0.1" d="M26.1778 230.026C25.6743 231.191 22.6818 230.915 22.6818 230.915C22.6986 230.821 22.7054 230.726 22.7021 230.631C22.7757 230.343 22.8693 230.061 22.9822 229.786C22.9822 229.786 24.9475 228.117 25.6012 229.38C25.7448 229.634 25.9415 229.855 26.1778 230.026Z" fill="black"/>
<path d="M26.2266 229.697C25.9302 231.033 22.6818 230.737 22.6818 230.737C22.7454 230.34 22.649 229.934 22.4138 229.608C22.0078 229.129 22.4138 228.475 22.4138 228.475C22.4138 228.475 21.7885 227.91 22.1174 227.342C22.4463 226.773 22.1174 225.913 22.1174 225.913C21.3459 224.723 21.4921 221.982 21.4596 221.747C21.4271 221.511 21.4596 220.675 21.4596 220.675C21.3808 220.352 21.3808 220.015 21.4596 219.692C21.6058 219.335 21.2241 218.916 21.2566 218.502C21.2526 218.057 21.2105 217.613 21.1307 217.175V214.645C20.9141 214.477 20.7412 214.26 20.6267 214.011C20.5122 213.762 20.4594 213.489 20.4729 213.216C20.5907 212.379 19.7258 211.222 19.7258 211.222L19.5796 211.725C19.5471 213.959 17.2855 219.846 17.2855 219.846C17.07 220.215 16.8213 220.563 16.5424 220.886C16.3637 221.008 15.7993 220.886 15.7993 220.886C15.7993 220.886 15.7668 221.661 15.3527 221.808C14.9385 221.954 12.9164 225.917 12.9407 226.542C12.9247 226.758 12.8633 226.968 12.7604 227.158C12.6575 227.348 12.5156 227.515 12.3439 227.646C12.3439 227.646 12.6403 228.182 12.3723 228.479C12.1043 228.775 12.2261 228.686 12.2261 228.986C12.2261 229.287 12.2261 229.165 12.0474 229.283C11.8688 229.401 12.0474 229.433 12.0474 229.64C12.0555 229.747 12.0236 229.852 11.9581 229.937L11.9297 230.436L8.4458 229.88C8.4458 229.88 8.68131 228.865 8.77064 228.39C8.82342 228.109 8.70161 228.036 8.59198 228.02C8.68943 227.984 8.79094 227.874 8.74221 227.557C8.65288 226.989 9.2782 226.396 9.2782 226.396C9.6386 223.656 10.7868 221.081 12.5834 218.981C12.5834 218.803 13.1763 218.295 13.1763 218.295C13.1763 218.295 13.2372 217.483 13.7447 217.402C14.2523 217.321 13.7447 216.659 13.7447 216.659C14.001 216.075 14.1996 215.467 14.3375 214.844C14.37 214.369 14.5365 212.135 14.5365 212.135C14.6709 211.816 14.709 211.465 14.6461 211.124C14.5081 210.718 14.6461 210.617 14.6461 210.617C14.6461 210.617 14.8167 209.724 14.6461 209.399C14.5478 209.174 14.5127 208.927 14.5446 208.684L14.6258 207.515L14.7517 205.769C14.7517 205.769 24.0096 204.189 25.0207 205.468C25.1327 205.626 25.214 205.804 25.2602 205.992C25.983 208.347 25.7353 216.143 25.7353 216.143L25.2886 218.405C25.4519 218.627 25.5271 218.902 25.4998 219.176C25.4607 219.468 25.4913 219.764 25.5891 220.041C25.5891 220.041 25.5891 220.22 25.5566 220.695C25.5306 220.914 25.5416 221.137 25.5891 221.353C25.5891 221.353 25.6175 225.458 25.646 226.294C25.6277 226.707 25.743 227.114 25.9749 227.456V228.467C26.0553 228.655 26.0954 228.859 26.0926 229.064C26.0872 229.282 26.1331 229.499 26.2266 229.697Z" fill="#444053"/>
<path opacity="0.1" d="M12.2951 235.333C12.0849 235.33 11.8755 235.307 11.6698 235.264C10.4801 234.996 9.43655 233.774 9.43655 233.774L9.22947 234.103L6.87439 233.031L7.14238 232.405V232.296L9.57867 233.514C9.57867 233.514 11.5277 234.46 12.2951 235.333Z" fill="black"/>
<path opacity="0.1" d="M28.0335 233.01C27.0269 233.131 26.0066 233.064 25.0247 232.811V233.29L22.7427 233.469L22.6737 232.616C23.3965 232.616 24.5618 232.645 25.0653 232.616C26.068 232.613 27.0665 232.745 28.0335 233.01Z" fill="black"/>
<path opacity="0.1" d="M9.73697 227.249C9.85516 227.241 9.97372 227.256 10.0862 227.293C10.2029 227.365 10.3142 227.445 10.4191 227.533C10.4975 227.575 10.5721 227.624 10.6425 227.679C10.7277 227.764 10.7643 227.89 10.8495 227.975C11.012 228.134 11.2556 228.101 11.483 228.174C11.5073 228.174 11.5317 228.174 11.5358 228.219C11.536 228.231 11.5326 228.243 11.5261 228.253C11.5196 228.263 11.5102 228.271 11.4992 228.276C11.4464 228.305 11.387 228.32 11.3266 228.32C11.2663 228.32 11.2069 228.305 11.1541 228.276C11.0499 228.216 10.9543 228.142 10.8698 228.057C10.7046 227.91 10.5149 227.793 10.3095 227.711C10.0293 227.598 9.54206 227.569 9.3634 227.305C9.48172 227.257 9.60971 227.238 9.73697 227.249Z" fill="black"/>
<path opacity="0.1" d="M9.49742 227.874C9.5595 227.891 9.61943 227.916 9.67608 227.947L9.98062 228.101C9.76456 228.116 9.54884 228.068 9.35937 227.963C9.2905 227.938 9.22394 227.907 9.1604 227.87C9.27206 227.851 9.38625 227.852 9.49742 227.874Z" fill="black"/>
<path opacity="0.1" d="M9.90345 228.398C9.96816 228.389 10.0336 228.389 10.0984 228.398C10.2152 228.44 10.3227 228.505 10.4151 228.588C10.6387 228.767 10.9168 228.863 11.2028 228.861C11.1493 228.884 11.0906 228.894 11.0323 228.889H10.3907C10.3207 228.899 10.2496 228.899 10.1796 228.889C10.0875 228.869 9.99874 228.836 9.91563 228.792C9.806 228.743 9.35528 228.613 9.35122 228.463C9.34716 228.312 9.79382 228.398 9.90345 228.398Z" fill="black"/>
<path opacity="0.1" d="M24.4644 229.157C24.6603 229.173 24.8572 229.173 25.0531 229.157C25.2614 229.149 25.4636 229.084 25.6378 228.97C25.8084 228.84 25.7718 228.702 25.5566 228.694C25.3529 228.702 25.1528 228.75 24.9679 228.836C24.8722 228.876 24.7799 228.924 24.6917 228.978C24.6511 229.019 24.505 229.161 24.4644 229.157Z" fill="black"/>
<path opacity="0.1" d="M25.1912 229.482C25.1912 229.555 25.0978 229.596 25.0288 229.62C24.8611 229.685 24.6845 229.725 24.505 229.738C24.4603 229.738 24.3344 229.738 24.3507 229.669C24.3669 229.6 24.5537 229.62 24.5984 229.612C24.7988 229.582 24.9969 229.539 25.1912 229.482Z" fill="black"/>
<path opacity="0.1" d="M15.2146 217.666C14.9164 217.457 14.5632 217.341 14.1995 217.333C14.5679 217.311 14.9309 217.43 15.2146 217.666Z" fill="black"/>
<path opacity="0.1" d="M14.9384 216.464C15.2063 216.466 15.4687 216.54 15.6977 216.679L15.446 216.606C15.2796 216.553 15.1081 216.518 14.9344 216.5C14.8369 216.5 14.7354 216.5 14.638 216.5C14.5405 216.5 14.4106 216.472 14.2969 216.468C14.4958 216.468 14.7192 216.456 14.9384 216.464Z" fill="black"/>
<path opacity="0.1" d="M15.8521 217.036C15.9374 217.036 16.0389 217.089 16.0552 217.174C15.8426 217.073 15.621 216.991 15.3933 216.931C15.2674 216.89 14.8817 216.72 14.7924 216.837C15.1131 216.931 15.4826 216.963 15.8521 217.036Z" fill="black"/>
<path opacity="0.1" d="M16.6641 214.393C17.0541 214.261 17.4056 214.035 17.6874 213.735C17.684 213.869 17.6478 213.999 17.5819 214.115C17.5161 214.232 17.4226 214.33 17.3097 214.401C17.0817 214.543 16.8277 214.638 16.5626 214.681C16.2985 214.727 16.0408 214.805 15.7952 214.913C15.6774 214.97 15.312 215.319 15.1942 215.319C15.0765 215.319 15.2836 215.063 15.3364 215.022C15.746 214.749 16.1933 214.537 16.6641 214.393Z" fill="black"/>
<path opacity="0.1" d="M23.9731 218.255C23.8472 218.21 22.3083 218.506 22.4017 218.21C22.4626 218.027 22.962 218.096 23.0838 218.1C23.3861 218.109 23.6856 218.161 23.9731 218.255Z" fill="black"/>
<path d="M22.2961 182.66C22.2961 182.91 22.2688 183.16 22.2149 183.404C22.0259 184.253 21.5188 184.997 20.7978 185.484C20.0768 185.971 19.1966 186.164 18.3382 186.022C17.4799 185.88 16.7085 185.414 16.1826 184.721C15.6567 184.028 15.4163 183.16 15.5109 182.295C15.6054 181.43 16.0276 180.634 16.6908 180.071C17.354 179.508 18.2077 179.22 19.0765 179.267C19.9453 179.314 20.7631 179.691 21.3619 180.323C21.9608 180.954 22.295 181.79 22.2961 182.66Z" fill="#FBBEBE"/>
<path d="M20.6597 184.057C20.6597 184.057 19.5593 187.273 20.1846 187.927C20.81 188.581 15.6897 188.97 15.6897 188.97C15.6897 188.97 17.8296 185.129 17.6225 184.175C17.4154 183.221 20.6597 184.057 20.6597 184.057Z" stroke="#FF5E0E" stroke-miterlimit="10"/>
<path opacity="0.1" d="M25.2439 205.984C25.248 206.058 25.248 206.133 25.2439 206.207C25.183 207.726 22.4747 210.791 21.8494 210.268C21.2241 209.744 16.9768 208.749 16.9768 208.749C16.9768 208.749 16.3515 207.766 15.6978 207.766C15.3249 207.735 14.9598 207.642 14.6177 207.49L14.7435 205.744C14.7435 205.744 24.0014 204.165 25.0125 205.444C25.1235 205.607 25.2021 205.791 25.2439 205.984Z" fill="black"/>
<path d="M25.244 205.939C25.2156 206.698 24.5212 207.848 23.7538 208.741C22.9864 209.634 22.1621 210.268 21.8494 210.016C21.6201 209.866 21.3715 209.749 21.1104 209.667C19.7014 209.151 16.9688 208.497 16.9688 208.497C16.9688 208.497 16.3434 207.515 15.6897 207.515C15.036 207.515 13.7813 206.861 13.7813 206.861C13.7813 206.861 13.9031 206.682 13.7813 206.028C13.6595 205.375 11.751 206.386 11.751 206.386C11.751 206.386 11.6617 201.98 12.3439 199.836C13.026 197.692 12.7012 194.964 12.7012 194.964C12.7012 194.964 13.1925 192.268 13.7244 190.132C14.0452 188.853 14.3822 187.777 14.638 187.61C15.3243 187.164 18.8934 187.61 18.8934 187.61C19.5817 187.619 20.2685 187.679 20.948 187.789C21.1236 187.859 21.2738 187.981 21.3784 188.138L21.484 188.288C21.9519 189.11 22.3499 189.97 22.6737 190.859C23.2422 192.227 25.4754 198.001 25.4754 198.001C25.4754 198.001 25.4145 198.407 24.907 200.145C24.3994 201.883 25.3049 204.421 25.244 205.939Z" fill="#65617D"/>
<path d="M22.6858 207.693L23.7537 208.741C23.7537 208.741 24.7364 212.131 23.4573 211.831C22.1783 211.53 21.1104 209.667 21.1104 209.667L22.6858 207.693Z" fill="#FBBEBE"/>
<path opacity="0.1" d="M25.3942 198.257C22.8604 198.228 22.2067 194.684 22.2067 194.684C22.2067 194.684 22.028 191.171 21.6991 190.517C21.5033 189.878 21.4034 189.213 21.4027 188.544C21.8706 189.366 22.2686 190.226 22.5924 191.114C23.1609 192.483 25.3942 198.257 25.3942 198.257Z" fill="black"/>
<path d="M25.4835 197.989C22.9498 197.96 22.296 194.416 22.296 194.416C22.296 194.416 22.1174 190.903 21.7885 190.249C21.5927 189.61 21.4928 188.945 21.4921 188.276C21.96 189.098 22.358 189.958 22.6818 190.846C23.2503 192.215 25.4835 197.989 25.4835 197.989Z" fill="#65617D"/>
<path opacity="0.1" d="M20.948 189.251C20.948 189.251 20.2049 187.22 18.9868 189.251C18.2181 190.66 17.7898 192.23 17.7362 193.835L17.525 199.43C17.7203 199.791 17.8469 200.185 17.8986 200.592C17.8986 200.998 18.6295 202.216 18.6295 202.216C18.6295 202.216 18.8081 204.567 19.4903 204.957L20.1481 206.889C20.1481 206.889 20.1765 208.168 20.6232 208.676C20.7534 208.861 20.84 209.072 20.8766 209.295C20.9132 209.518 20.8987 209.747 20.8343 209.963L23.4817 209.037C23.4817 209.037 23.1813 209.147 23.4817 208.347C23.7822 207.547 23.3031 206.504 23.3031 206.504C23.3031 206.504 21.6058 202.813 21.3947 202.277C21.1835 201.741 20.8912 201.115 20.9886 200.49C21.0861 199.865 21.013 193.226 21.1673 192.215C21.3216 191.204 20.948 189.251 20.948 189.251Z" fill="black"/>
<path d="M21.2241 188.97C21.2241 188.97 20.4811 186.94 19.2589 188.97C18.4924 190.381 18.0642 191.95 18.0082 193.555L17.8011 199.15C17.9952 199.511 18.1218 199.905 18.1747 200.311C18.1747 200.717 18.9015 201.936 18.9015 201.936C18.9015 201.936 19.0802 204.287 19.7664 204.672L20.4202 206.609C20.4202 206.609 20.4526 207.888 20.8993 208.396C21.0295 208.58 21.1162 208.792 21.1527 209.015C21.1893 209.238 21.1748 209.466 21.1104 209.683L23.7538 208.757C23.7538 208.757 23.4574 208.867 23.7538 208.063C24.0502 207.259 23.567 206.211 23.567 206.211C23.567 206.211 21.8738 202.52 21.6627 201.984C21.4515 201.448 21.1592 200.823 21.2566 200.198C21.3541 199.572 21.281 192.933 21.4312 191.918C21.5814 190.903 21.2241 188.97 21.2241 188.97Z" fill="#FF6484"/>
<path opacity="0.1" d="M21.2769 206.475C21.3898 206.49 21.4995 206.522 21.6017 206.573C21.6829 206.613 21.752 206.678 21.8332 206.723C21.9258 206.776 22.0308 206.804 22.1377 206.804C22.0187 206.81 21.8994 206.81 21.7804 206.804C21.7061 206.809 21.6316 206.799 21.5611 206.776C21.4943 206.744 21.4315 206.705 21.3743 206.658C21.3015 206.604 21.2224 206.559 21.1388 206.524C21.0739 206.5 21.0048 206.491 20.9805 206.426C21.0804 206.435 21.1796 206.451 21.2769 206.475Z" fill="black"/>
<path opacity="0.1" d="M22.2839 207.275C22.3976 207.275 22.5073 207.251 22.621 207.243C22.7851 207.236 22.9495 207.245 23.1123 207.267C22.8733 207.389 22.6032 207.437 22.3367 207.405C22.2609 207.385 22.1811 207.385 22.1053 207.405C22.0241 207.437 21.7804 207.714 21.7601 207.47C21.7398 207.226 22.1459 207.279 22.2839 207.275Z" fill="black"/>
<path opacity="0.1" d="M20.9155 179.087L20.4811 178.771C20.5278 178.786 20.5728 178.806 20.6151 178.831C20.7065 178.881 20.7888 178.945 20.8587 179.022L20.9968 179.148L20.9155 179.087Z" fill="black"/>
<path opacity="0.1" d="M21.3865 188.126C21.3075 188.304 21.1811 188.457 21.0211 188.568C20.9252 188.634 20.8153 188.676 20.7003 188.69C20.5389 188.706 20.376 188.689 20.2212 188.642C20.023 188.588 19.8278 188.525 19.6364 188.451C19.2615 188.293 18.8778 188.158 18.4873 188.045C18.1952 187.956 17.8855 187.941 17.5863 188.002C17.2871 188.063 17.0078 188.198 16.7738 188.394C16.3962 188.776 16.3069 189.368 15.9333 189.75C15.4298 190.262 14.6096 190.229 13.9031 190.128L13.7366 190.103C14.0573 188.824 14.3944 187.748 14.6502 187.582C15.3364 187.135 18.9056 187.582 18.9056 187.582C19.5939 187.591 20.2806 187.651 20.9602 187.76C21.1365 187.835 21.2854 187.963 21.3865 188.126Z" fill="black"/>
<path opacity="0.1" d="M15.511 182.66C15.5084 181.992 15.7036 181.338 16.0719 180.78C16.4402 180.222 16.9653 179.785 17.5811 179.525C18.1968 179.264 18.8758 179.192 19.5327 179.316C20.1896 179.441 20.795 179.757 21.2728 180.224C21.2728 180.813 21.1551 181.442 21.3215 181.99C21.5271 182.509 21.8303 182.983 22.2149 183.387C22.0297 184.198 21.5531 184.913 20.8755 185.396C20.198 185.879 19.3667 186.096 18.5396 186.007C17.7124 185.917 16.947 185.527 16.3887 184.91C15.8304 184.293 15.518 183.492 15.511 182.66Z" fill="black"/>
<path d="M20.9966 178.969C20.3383 178.372 19.5086 177.997 18.6252 177.898C17.7418 177.799 16.8497 177.981 16.0753 178.417C15.7193 178.613 15.4156 178.891 15.1902 179.229C14.7232 179.972 14.841 180.935 14.5973 181.775C14.3537 182.616 13.8137 183.245 13.3548 183.948C12.896 184.65 12.5143 185.482 12.6889 186.303C12.8148 186.9 13.2249 187.436 13.2168 188.045C13.2005 188.384 13.0569 188.705 12.8145 188.942C12.5721 189.18 12.2488 189.318 11.9093 189.328C12.5113 189.698 13.1938 189.919 13.8989 189.969C14.6095 190.071 15.4297 190.103 15.9292 189.592C16.3027 189.21 16.3921 188.617 16.7697 188.235C17.0037 188.039 17.283 187.905 17.5822 187.844C17.8814 187.783 18.1911 187.797 18.4832 187.886C19.076 188.024 19.6242 188.292 20.217 188.467C20.3719 188.515 20.5348 188.531 20.6962 188.516C21.2037 188.447 21.5083 187.882 21.5407 187.371C21.5732 186.965 21.5123 186.457 21.8128 186.152C21.9276 186.056 22.0514 185.97 22.1823 185.897C22.4146 185.737 22.5985 185.517 22.7138 185.26C22.8291 185.002 22.8714 184.719 22.836 184.439C22.6939 183.432 21.6179 182.815 21.3174 181.824C21.1509 181.256 21.2768 180.646 21.2687 180.058C21.2606 179.469 21.0332 178.791 20.4769 178.592" fill="#444053"/>
<path opacity="0.1" d="M22.7833 184.439C22.6452 183.432 21.5652 182.815 21.2647 181.824C21.0982 181.256 21.2281 180.646 21.216 180.058C21.2236 179.646 21.0983 179.243 20.8586 178.909L20.9439 178.969C20.8992 178.925 20.8505 178.884 20.8018 178.844C20.7332 178.771 20.6553 178.709 20.5703 178.657L20.416 178.551L20.4973 178.628L20.412 178.568C20.6522 178.902 20.7775 179.305 20.7693 179.717C20.7693 180.305 20.6516 180.935 20.818 181.479C21.1063 182.457 22.1986 183.103 22.3367 184.098C22.3715 184.377 22.329 184.661 22.2138 184.918C22.0985 185.175 21.9149 185.396 21.6829 185.556C21.552 185.629 21.4283 185.715 21.3134 185.811C21.0129 186.112 21.0738 186.623 21.0414 187.03C21.0008 187.541 20.7084 188.106 20.2008 188.175C20.0381 188.189 19.8742 188.172 19.7176 188.126C19.1289 187.972 18.5767 187.683 17.9838 187.545C17.6918 187.456 17.3819 187.441 17.0826 187.502C16.7832 187.563 16.504 187.698 16.2703 187.894C15.8967 188.272 15.8033 188.869 15.4298 189.251C14.9263 189.758 14.1061 189.73 13.3995 189.628C12.9345 189.576 12.4768 189.471 12.0352 189.316C11.9758 189.322 11.916 189.322 11.8566 189.316C12.459 189.685 13.1413 189.905 13.8462 189.957C14.5568 190.059 15.377 190.091 15.8764 189.58C16.25 189.198 16.3434 188.605 16.717 188.223C16.951 188.027 17.2302 187.893 17.5295 187.832C17.8287 187.771 18.1384 187.785 18.4305 187.874C19.0233 188.012 19.5755 188.28 20.1643 188.455C20.3205 188.503 20.4848 188.52 20.6475 188.504C21.1551 188.434 21.4596 187.87 21.488 187.358C21.5205 186.952 21.4596 186.445 21.7601 186.14C21.8749 186.044 21.9986 185.958 22.1296 185.884C22.3599 185.726 22.5425 185.507 22.6577 185.253C22.7729 184.998 22.8163 184.717 22.7833 184.439Z" fill="black"/>
<path opacity="0.1" d="M35.8499 232.933C36.4996 235.097 27.7655 236.498 17.4803 236.1C8.25899 235.747 1.02728 234.05 0.495357 232.275C-0.0365652 230.501 6.24905 229.055 15.3608 229.027C25.5241 229.027 35.2002 230.769 35.8499 232.933Z" fill="#FF5E0E"/>
<path d="M406.178 168.378C405.702 168.379 405.241 168.544 404.873 168.846C404.506 169.148 404.254 169.568 404.162 170.035C404.069 170.501 404.141 170.986 404.366 171.405C404.59 171.824 404.953 172.153 405.393 172.335C405.832 172.517 406.321 172.541 406.777 172.402C407.232 172.264 407.625 171.972 407.889 171.576C408.153 171.181 408.272 170.706 408.225 170.232C408.178 169.759 407.969 169.316 407.632 168.98C407.441 168.789 407.214 168.638 406.965 168.535C406.715 168.431 406.448 168.378 406.178 168.378Z" fill="white"/>
<path d="M417.626 160.156V160.149C417.56 159.863 417.417 159.602 417.211 159.393C417.005 159.185 416.745 159.038 416.46 158.97C414.164 158.41 410.552 159.007 406.55 160.61C402.701 162.106 399.18 164.336 396.181 167.175C395.363 167.99 394.602 168.861 393.905 169.781C392.365 169.675 390.821 169.923 389.392 170.506C384.944 172.464 383.674 177.474 383.335 179.531C383.286 179.824 383.305 180.123 383.391 180.407C383.477 180.69 383.627 180.951 383.83 181.167C384.033 181.383 384.282 181.549 384.56 181.653C384.837 181.757 385.135 181.796 385.43 181.766H385.44L390.395 181.225C390.402 181.288 390.409 181.346 390.414 181.399C390.478 182.003 390.747 182.566 391.177 182.995L393.595 185.415C394.023 185.845 394.587 186.115 395.191 186.179L395.356 186.196L394.817 191.145V191.156C394.791 191.407 394.815 191.661 394.887 191.904C394.959 192.146 395.079 192.372 395.238 192.568C395.398 192.765 395.594 192.927 395.817 193.048C396.039 193.168 396.283 193.243 396.535 193.269C396.594 193.276 396.653 193.279 396.713 193.28C396.82 193.28 396.927 193.271 397.033 193.253C399.101 192.921 404.109 191.666 406.061 187.193C406.64 185.769 406.889 184.232 406.789 182.698C407.715 182.003 408.589 181.242 409.405 180.422C412.243 177.452 414.475 173.958 415.978 170.135C417.572 166.178 418.172 162.539 417.626 160.156ZM409.377 173.629C408.744 174.263 407.938 174.694 407.06 174.869C406.181 175.045 405.271 174.955 404.443 174.613C403.616 174.271 402.909 173.691 402.411 172.946C401.913 172.202 401.647 171.327 401.646 170.431C401.646 169.536 401.911 168.66 402.408 167.915C402.905 167.171 403.612 166.59 404.439 166.247C405.266 165.904 406.177 165.814 407.055 165.988C407.934 166.162 408.741 166.593 409.374 167.226L409.377 167.229C410.226 168.065 410.708 169.204 410.717 170.395C410.726 171.586 410.261 172.732 409.425 173.581L409.377 173.629Z" fill="white"/>
<path d="M393.318 186.071C393.02 186.034 392.718 186.107 392.47 186.277C391.978 186.614 391.483 186.947 390.984 187.271C390.767 187.41 390.51 187.473 390.253 187.449C389.997 187.424 389.756 187.314 389.569 187.137C389.383 186.959 389.261 186.724 389.224 186.468C389.188 186.213 389.237 185.953 389.366 185.73L390.302 184.112C390.436 183.916 390.511 183.686 390.517 183.449C390.523 183.212 390.461 182.978 390.338 182.776C390.214 182.573 390.035 182.41 389.822 182.307C389.608 182.204 389.37 182.164 389.134 182.193C388.095 182.324 387.13 182.798 386.389 183.538C386.107 183.821 385.25 184.679 384.788 187.95C384.657 188.889 384.574 189.835 384.54 190.783C384.536 190.944 384.564 191.105 384.622 191.257C384.68 191.408 384.767 191.546 384.879 191.663C384.99 191.781 385.124 191.875 385.272 191.94C385.42 192.006 385.579 192.042 385.741 192.046C385.752 192.047 385.762 192.047 385.773 192.047H385.804C386.752 192.013 387.699 191.931 388.639 191.8C391.911 191.338 392.769 190.48 393.051 190.198C393.795 189.457 394.267 188.487 394.391 187.444C394.431 187.12 394.34 186.793 394.138 186.536C393.937 186.278 393.642 186.111 393.318 186.071Z" fill="white"/>
<path d="M44.8717 157.619C42.7775 154.836 39.7429 153.08 36.3653 153.08C32.9877 153.08 29.9531 154.836 27.8589 157.619C28.3218 158.754 29.0069 159.786 29.8739 160.653C30.9454 161.724 32.2651 162.513 33.7155 162.95C35.166 163.388 36.702 163.459 38.1868 163.159C39.6716 162.858 41.059 162.195 42.2254 161.229C43.3918 160.262 44.3009 159.022 44.8717 157.619Z" fill="white"/>
<path d="M26.3308 159.008C26.4622 159.103 26.6038 159.183 26.753 159.247C28.3602 162.498 31.6899 164.986 35.5113 165.194V180.607C32.6207 180.434 30.3057 178.978 28.3602 176.706C28.1923 176.834 28.0676 176.949 27.9524 177.057C27.7909 177.21 27.6781 177.407 27.6281 177.624C27.5782 177.84 27.5934 178.067 27.6718 178.275C27.7773 178.562 27.8047 178.872 27.7511 179.172C27.6975 179.473 27.5649 179.754 27.3669 179.987C27.1688 180.22 26.9124 180.395 26.624 180.496C26.3356 180.597 26.0256 180.619 25.7257 180.561C25.4259 180.502 25.1469 180.365 24.9176 180.163C24.6882 179.962 24.5167 179.702 24.4205 179.412C24.3244 179.122 24.3071 178.812 24.3705 178.513C24.4338 178.214 24.5756 177.938 24.7811 177.712C24.8429 177.644 24.9103 177.581 24.9826 177.524C25.0242 177.486 25.0701 177.453 25.1194 177.426C25.3832 176.471 26.0093 175.61 27.0265 174.821C25.8817 172.865 25.1815 170.68 24.9754 168.423C24.8271 168.425 24.6789 168.434 24.5316 168.452C24.3316 168.479 24.1427 168.56 23.9858 168.687C23.8288 168.814 23.7098 168.982 23.6417 169.172C23.5309 169.466 23.3416 169.725 23.0943 169.92C22.847 170.114 22.5512 170.238 22.2388 170.276C21.9264 170.315 21.6094 170.267 21.3221 170.139C21.0349 170.01 20.7883 169.805 20.6091 169.547C20.4299 169.288 20.325 168.985 20.3056 168.671C20.2863 168.356 20.3533 168.043 20.4994 167.764C20.6454 167.485 20.865 167.252 21.1344 167.089C21.4037 166.926 21.7124 166.84 22.0272 166.84C22.097 166.841 22.1666 166.846 22.2359 166.854C22.4936 166.669 22.7795 166.526 23.0827 166.432C23.6748 166.247 24.2904 166.147 24.9107 166.137C24.9718 164.537 25.2743 162.955 25.8078 161.445C25.4203 161.224 25.0547 160.967 24.7163 160.677C24.3865 160.383 24.1162 160.028 23.9199 159.631C23.816 159.431 23.657 159.265 23.4617 159.151C23.3114 159.061 23.1742 158.95 23.0539 158.823C22.8407 158.593 22.6943 158.309 22.6304 158.002C22.5666 157.695 22.5878 157.377 22.6917 157.081C22.7956 156.785 22.9783 156.523 23.2201 156.323C23.4619 156.124 23.7537 155.994 24.0638 155.948C24.374 155.902 24.6908 155.941 24.9802 156.062C25.2696 156.183 25.5205 156.38 25.7059 156.633C25.8913 156.886 26.0041 157.185 26.0322 157.497C26.0603 157.809 26.0027 158.123 25.8654 158.405C25.9729 158.639 26.132 158.845 26.3308 159.008Z" fill="white"/>
<path d="M46.3517 159.037C46.2203 159.132 46.0787 159.213 45.9295 159.277C44.3223 162.527 40.9926 165.015 37.1712 165.224V180.636C40.0618 180.464 42.3768 179.008 44.3223 176.736C44.4902 176.863 44.6149 176.978 44.7301 177.086C44.8916 177.239 45.0044 177.436 45.0544 177.653C45.1043 177.87 45.0891 178.097 45.0107 178.305C44.9052 178.591 44.8778 178.901 44.9314 179.202C44.985 179.503 45.1176 179.784 45.3156 180.016C45.5137 180.249 45.7701 180.425 46.0585 180.526C46.3469 180.627 46.6569 180.649 46.9568 180.59C47.2566 180.532 47.5356 180.395 47.7649 180.193C47.9943 179.991 48.1658 179.732 48.262 179.442C48.3581 179.152 48.3754 178.841 48.312 178.543C48.2486 178.244 48.1069 177.967 47.9014 177.741C47.8396 177.673 47.7722 177.611 47.6999 177.554C47.6583 177.516 47.6124 177.483 47.5631 177.456C47.2993 176.501 46.6732 175.64 45.656 174.85C46.8008 172.894 47.501 170.71 47.7071 168.453C47.8554 168.454 48.0036 168.464 48.1509 168.481C48.3509 168.508 48.5397 168.59 48.6967 168.716C48.8537 168.843 48.9727 169.011 49.0408 169.201C49.1516 169.496 49.3409 169.754 49.5882 169.949C49.8354 170.144 50.1313 170.267 50.4437 170.306C50.7561 170.344 51.0731 170.297 51.3604 170.168C51.6476 170.04 51.8942 169.835 52.0734 169.576C52.2526 169.317 52.3575 169.014 52.3769 168.7C52.3962 168.386 52.3292 168.072 52.1831 167.794C52.0371 167.515 51.8175 167.281 51.5481 167.118C51.2788 166.955 50.9701 166.869 50.6553 166.869C50.5855 166.871 50.5159 166.875 50.4466 166.884C50.1889 166.698 49.9029 166.556 49.5998 166.461C49.0077 166.276 48.3921 166.177 47.7718 166.166C47.7107 164.566 47.4082 162.984 46.8747 161.474C47.2622 161.254 47.6278 160.997 47.9662 160.707C48.296 160.412 48.5663 160.057 48.7626 159.661C48.8665 159.46 49.0255 159.294 49.2208 159.181C49.3711 159.09 49.5083 158.98 49.6286 158.852C49.8418 158.622 49.9882 158.339 50.0521 158.032C50.1159 157.725 50.0947 157.406 49.9908 157.11C49.8869 156.814 49.7042 156.552 49.4624 156.353C49.2206 156.153 48.9288 156.023 48.6187 155.977C48.3085 155.931 47.9917 155.971 47.7023 156.091C47.4129 156.212 47.162 156.41 46.9766 156.663C46.7912 156.916 46.6784 157.214 46.6503 157.527C46.6222 157.839 46.6798 158.153 46.8171 158.435C46.7096 158.668 46.5505 158.874 46.3517 159.037Z" fill="white"/>
<rect x="137" y="220" width="34" height="44" fill="#C4C4C4"/>
</g>
<defs>
<linearGradient id="paint0_linear_179_1027" x1="316.676" y1="247.047" x2="316.676" y2="155.26" gradientUnits="userSpaceOnUse">
<stop stop-color="#808080" stop-opacity="0.25"/>
<stop offset="0.54" stop-color="#808080" stop-opacity="0.12"/>
<stop offset="1" stop-color="#808080" stop-opacity="0.1"/>
</linearGradient>
<linearGradient id="paint1_linear_179_1027" x1="2487.87" y1="41936.7" x2="2487.87" y2="33734.5" gradientUnits="userSpaceOnUse">
<stop stop-color="#808080" stop-opacity="0.25"/>
<stop offset="0.54" stop-color="#808080" stop-opacity="0.12"/>
<stop offset="1" stop-color="#808080" stop-opacity="0.1"/>
</linearGradient>
<clipPath id="clip0_179_1027">
<rect width="441" height="248.383" fill="white"/>
</clipPath>
</defs>
</svg>
