<svg width="440" height="384" viewBox="0 0 440 384" fill="none" xmlns="http://www.w3.org/2000/svg">
<g opacity="0.5">
<path opacity="0.5" d="M326.938 28.2178H125.39V301.278H326.938V28.2178Z" fill="#C3D9CF"/>
</g>
<path d="M324.374 30.2294H127.955V297.254H324.374V30.2294Z" fill="#F4FBF8"/>
<path d="M275.141 23.179H177.7V46.3213H275.141V23.179Z" fill="url(#paint0_linear_141_634)"/>
<path d="M226.421 0.559814C218.897 0.559814 212.799 6.68481 212.799 14.238C212.799 21.7911 218.897 27.9161 226.421 27.9161C233.944 27.9161 240.042 21.7911 240.042 14.238C240.042 6.68481 233.944 0.559814 226.421 0.559814ZM226.421 22.1281C224.821 22.1691 223.245 21.7414 221.894 20.8997C220.544 20.0581 219.48 18.8406 218.838 17.403C218.197 15.9654 218.007 14.3728 218.294 12.829C218.58 11.2851 219.329 9.86005 220.446 8.73588C221.562 7.61171 222.995 6.83952 224.562 6.51799C226.128 6.19646 227.756 6.34021 229.239 6.93085C230.722 7.52149 231.991 8.5322 232.885 9.83381C233.779 11.1354 234.256 12.6688 234.257 14.238C234.282 16.3023 233.471 18.292 232.002 19.771C230.533 21.25 228.526 22.0976 226.421 22.1281V22.1281Z" fill="url(#paint1_linear_141_634)"/>
<path d="M274.115 23.1891H178.726V45.3154H274.115V23.1891Z" fill="#0F241B"/>
<path d="M226.421 1.56555C223.783 1.56555 221.205 2.33237 219.013 3.76904C216.82 5.2057 215.111 7.24769 214.102 9.63678C213.092 12.0259 212.828 14.6548 213.343 17.191C213.857 19.7272 215.127 22.0569 216.992 23.8855C218.857 25.714 221.233 26.9592 223.819 27.4637C226.406 27.9682 229.087 27.7093 231.523 26.7197C233.96 25.7301 236.042 24.0543 237.507 21.9042C238.973 19.754 239.755 17.2262 239.755 14.6403C239.755 11.1726 238.35 7.84703 235.849 5.39504C233.349 2.94306 229.957 1.56555 226.421 1.56555V1.56555ZM226.421 22.1834C224.899 22.1834 223.412 21.741 222.147 20.9121C220.882 20.0833 219.896 18.9052 219.314 17.5269C218.731 16.1486 218.579 14.6319 218.876 13.1687C219.173 11.7055 219.905 10.3614 220.981 9.30648C222.057 8.25156 223.428 7.53315 224.92 7.2421C226.412 6.95105 227.959 7.10042 229.364 7.67134C230.77 8.24226 231.972 9.20908 232.817 10.4495C233.662 11.69 234.113 13.1484 234.113 14.6403C234.113 16.6408 233.303 18.5594 231.86 19.974C230.417 21.3886 228.461 22.1834 226.421 22.1834Z" fill="#0F241B"/>
<path d="M158.621 73.4763H157.804C146.417 73.4763 137.186 82.7072 137.186 94.0941C137.186 105.481 146.417 114.712 157.804 114.712H158.621C170.008 114.712 179.239 105.481 179.239 94.0941C179.239 82.7072 170.008 73.4763 158.621 73.4763Z" fill="url(#paint2_linear_141_634)"/>
<path d="M158.765 155.193H157.947C146.56 155.193 137.329 164.424 137.329 175.811C137.329 187.198 146.56 196.428 157.947 196.428H158.765C170.152 196.428 179.383 187.198 179.383 175.811C179.383 164.424 170.152 155.193 158.765 155.193Z" fill="url(#paint3_linear_141_634)"/>
<path d="M158.908 235.904H158.091C146.704 235.904 137.473 245.135 137.473 256.522C137.473 267.909 146.704 277.14 158.091 277.14H158.908C170.295 277.14 179.526 267.909 179.526 256.522C179.526 245.135 170.295 235.904 158.908 235.904Z" fill="url(#paint4_linear_141_634)"/>
<path d="M158.591 74.985H157.833C147.28 74.985 138.724 83.5404 138.724 94.0941C138.724 104.648 147.28 113.203 157.833 113.203H158.591C169.145 113.203 177.7 104.648 177.7 94.0941C177.7 83.5404 169.145 74.985 158.591 74.985Z" fill="#307457"/>
<path d="M158.591 155.948H157.833C147.28 155.948 138.724 164.503 138.724 175.057C138.724 185.61 147.28 194.166 157.833 194.166H158.591C169.145 194.166 177.7 185.61 177.7 175.057C177.7 164.503 169.145 155.948 158.591 155.948Z" fill="#307457"/>
<path d="M158.591 236.91H157.833C147.28 236.91 138.724 245.465 138.724 256.019C138.724 266.573 147.28 275.128 157.833 275.128H158.591C169.145 275.128 177.7 266.573 177.7 256.019C177.7 245.465 169.145 236.91 158.591 236.91Z" fill="#307457"/>
<path d="M256.766 86.7823H203.343V90.4382H256.766V86.7823Z" fill="#E2E4E3"/>
<path d="M291.552 92.2686H203.343V95.9246H291.552V92.2686Z" fill="#E2E4E3"/>
<path d="M285.341 97.75H203.343V101.406H285.341V97.75Z" fill="#E2E4E3"/>
<path d="M256.766 167.745H203.343V171.401H256.766V167.745Z" fill="#E0E0E0"/>
<path d="M291.552 173.231H203.343V176.887H291.552V173.231Z" fill="#E0E0E0"/>
<path d="M285.341 178.712H203.343V182.368H285.341V178.712Z" fill="#E0E0E0"/>
<path d="M256.766 248.707H203.343V252.363H256.766V248.707Z" fill="#E0E0E0"/>
<path d="M291.552 254.194H203.343V257.85H291.552V254.194Z" fill="#E0E0E0"/>
<path d="M285.341 259.675H203.343V263.331H285.341V259.675Z" fill="#E0E0E0"/>
<path d="M149.366 91.8161L156.443 98.1825L166.469 83.7249L170.008 86.6164L156.443 103.966L146.417 92.9778L149.366 91.8161Z" fill="url(#paint5_linear_141_634)"/>
<path d="M150.52 92.0826L156.674 97.6142L165.392 85.0425L168.469 87.5568L156.674 102.643L147.956 93.0884L150.52 92.0826Z" fill="#FFF5F0"/>
<path d="M150.52 173.548L156.674 179.079L165.392 166.508L168.469 169.022L156.674 184.108L147.956 174.554L150.52 173.548Z" fill="#FFF5F0"/>
<path d="M150.52 255.013L156.674 260.545L165.392 247.973L168.469 250.487L156.674 265.573L147.956 256.019L150.52 255.013Z" fill="#FFF5F0"/>
<g opacity="0.5">
<path opacity="0.5" d="M333.861 177.068H336.939" stroke="#307457" stroke-width="5" stroke-miterlimit="10"/>
<path opacity="0.5" d="M342.857 177.068H410.906" stroke="#307457" stroke-width="5" stroke-miterlimit="10" stroke-dasharray="11.54 11.54"/>
<path opacity="0.5" d="M413.865 177.068H416.942V174.051" stroke="#307457" stroke-width="5" stroke-miterlimit="10"/>
<path opacity="0.5" d="M416.942 168.293V113.57" stroke="#307457" stroke-width="5" stroke-miterlimit="10" stroke-dasharray="11.45 11.45"/>
<path opacity="0.5" d="M416.942 110.689V107.672" stroke="#307457" stroke-width="5" stroke-miterlimit="10"/>
</g>
<path opacity="0.5" d="M118.723 92.334H50.0023V155.696" stroke="#C3D9CF" stroke-width="5" stroke-miterlimit="10" stroke-dasharray="12 12"/>
<path opacity="0.5" d="M158.212 308.066V344.273H260.781" stroke="#C3D9CF" stroke-width="5" stroke-miterlimit="10" stroke-dasharray="12 12"/>
<g opacity="0.5">
<path opacity="0.5" d="M439.643 102.414H394V48.6072H439.643V75.9734V102.414Z" fill="url(#paint6_linear_141_634)"/>
</g>
<path d="M439 101.557H395V49.5876H439V76.0178V101.557Z" fill="#F4FBF8"/>
<path d="M432.463 57.6587H400.667V59.6703H432.463V57.6587Z" fill="#307457"/>
<path d="M432.463 61.6816H400.667V63.6932H432.463V61.6816Z" fill="#C3D9CF"/>
<path d="M432.463 65.7048H400.667V67.7162H432.463V65.7048Z" fill="#FF5E0E"/>
<path d="M432.463 69.7278H400.667V71.7393H432.463V69.7278Z" fill="#C3D9CF"/>
<path d="M432.463 73.7509H400.667V75.7621H432.463V73.7509Z" fill="#FF5E0E"/>
<path d="M360.016 316.866H285.141V381.234H360.016V316.866Z" fill="#F4FBF8" stroke="#C3D9CF" stroke-opacity="0.11" stroke-width="2"/>
<path d="M360.016 360.616C339.323 360.616 322.579 355.442 322.579 349.05C301.886 349.05 285.141 353.551 285.141 359.108V383.246H360.016V360.616Z" fill="#307457"/>
<path d="M347.708 338.49C351.957 338.49 355.401 335.113 355.401 330.947C355.401 326.781 351.957 323.404 347.708 323.404C343.46 323.404 340.016 326.781 340.016 330.947C340.016 335.113 343.46 338.49 347.708 338.49Z" fill="#FF5E0E"/>
<g opacity="0.5">
<path opacity="0.5" d="M104.62 161.353H0V234.018H104.62V161.353Z" fill="#C3D9CF"/>
</g>
<path d="M101.543 163.49H3.07709V231.881H101.543V163.49Z" fill="#F4FBF8"/>
<path d="M54.3358 180.759C53.5126 180.761 52.6903 180.814 51.8742 180.92L54.3358 199.365L35.4067 198.128C35.3811 198.536 35.3606 198.948 35.3606 199.365C35.3606 203.045 36.4735 206.643 38.5585 209.702C40.6435 212.762 43.6071 215.147 47.0743 216.555C50.5416 217.964 54.3569 218.332 58.0377 217.614C61.7185 216.896 65.0996 215.124 67.7533 212.522C70.4071 209.92 72.2143 206.605 72.9465 202.995C73.6786 199.386 73.3028 195.645 71.8667 192.245C70.4305 188.845 67.9984 185.939 64.8779 183.895C61.7574 181.85 58.0888 180.759 54.3358 180.759V180.759Z" fill="#307457"/>
<path d="M47.7714 177.4C43.4208 177.959 39.4022 179.979 36.3997 183.117C33.3972 186.254 31.5965 190.315 31.304 194.608L50.2331 195.845L47.7714 177.4Z" fill="#FF5E0E"/>
<defs>
<linearGradient id="paint0_linear_141_634" x1="43197.6" y1="2129.13" x2="43197.6" y2="1064.12" gradientUnits="userSpaceOnUse">
<stop stop-color="#808080" stop-opacity="0.25"/>
<stop offset="0.54" stop-color="#808080" stop-opacity="0.12"/>
<stop offset="1" stop-color="#808080" stop-opacity="0.1"/>
</linearGradient>
<linearGradient id="paint1_linear_141_634" x1="16686.8" y1="2924.68" x2="16686.8" y2="1436.77" gradientUnits="userSpaceOnUse">
<stop stop-color="#808080" stop-opacity="0.25"/>
<stop offset="0.54" stop-color="#808080" stop-opacity="0.12"/>
<stop offset="1" stop-color="#808080" stop-opacity="0.1"/>
</linearGradient>
<linearGradient id="paint2_linear_141_634" x1="13110.6" y1="9433.96" x2="13110.6" y2="6052.64" gradientUnits="userSpaceOnUse">
<stop stop-color="#808080" stop-opacity="0.25"/>
<stop offset="0.54" stop-color="#808080" stop-opacity="0.12"/>
<stop offset="1" stop-color="#808080" stop-opacity="0.1"/>
</linearGradient>
<linearGradient id="paint3_linear_141_634" x1="13122.5" y1="16216.5" x2="13122.5" y2="12835.1" gradientUnits="userSpaceOnUse">
<stop stop-color="#808080" stop-opacity="0.25"/>
<stop offset="0.54" stop-color="#808080" stop-opacity="0.12"/>
<stop offset="1" stop-color="#808080" stop-opacity="0.1"/>
</linearGradient>
<linearGradient id="paint4_linear_141_634" x1="13134.4" y1="22915.5" x2="13134.4" y2="19534.2" gradientUnits="userSpaceOnUse">
<stop stop-color="#808080" stop-opacity="0.25"/>
<stop offset="0.54" stop-color="#808080" stop-opacity="0.12"/>
<stop offset="1" stop-color="#808080" stop-opacity="0.1"/>
</linearGradient>
<linearGradient id="paint5_linear_141_634" x1="7424.18" y1="4245.82" x2="7424.18" y2="3430.93" gradientUnits="userSpaceOnUse">
<stop stop-color="#808080" stop-opacity="0.25"/>
<stop offset="0.54" stop-color="#808080" stop-opacity="0.12"/>
<stop offset="1" stop-color="#808080" stop-opacity="0.1"/>
</linearGradient>
<linearGradient id="paint6_linear_141_634" x1="36748.7" y1="9518.66" x2="36748.7" y2="3761.3" gradientUnits="userSpaceOnUse">
<stop stop-color="#808080" stop-opacity="0.25"/>
<stop offset="0.54" stop-color="#808080" stop-opacity="0.12"/>
<stop offset="1" stop-color="#808080" stop-opacity="0.1"/>
</linearGradient>
</defs>
</svg>
