<svg width="37" height="36" viewBox="0 0 37 36" fill="none" xmlns="http://www.w3.org/2000/svg">
<path d="M16.4931 0.426956C16.4776 0.434582 15.84 0.449829 15.0703 0.449829C13.9195 0.457451 13.6163 0.480324 13.2975 0.594685C12.2867 0.96064 11.7347 1.17411 11.6258 1.24273C11.4315 1.36471 10.7628 1.66205 10.6695 1.66205C10.6228 1.66205 10.5295 1.70779 10.4673 1.76879C10.3974 1.82215 10.1019 1.90602 9.79867 1.95176C9.3788 2.02038 9.21552 2.08137 9.08335 2.22623C8.99004 2.33296 8.72568 2.50832 8.5002 2.61505C8.27472 2.71416 8.01814 2.84377 7.93261 2.89714C7.84708 2.95051 7.58272 3.11824 7.33392 3.27072C7.09288 3.4232 6.65747 3.79678 6.36201 4.10174C6.07433 4.4067 5.74777 4.72691 5.63891 4.8184C5.53784 4.90226 5.35901 5.07761 5.25015 5.1996C5.1413 5.32158 4.97024 5.48931 4.86917 5.5808C4.20827 6.1526 3.18194 7.3267 3.11196 7.59354C3.06531 7.79177 2.73875 8.34832 2.24891 9.09548C2.10896 9.30133 1.97678 9.56054 1.94568 9.66728C1.92235 9.77402 1.82127 10.0256 1.73574 10.2391C1.35476 11.1235 1.26923 11.3141 1.19925 11.4361C1.16038 11.5123 1.12928 11.6267 1.12928 11.6953C1.12928 11.7715 1.02042 12.046 0.896019 12.3128C0.662762 12.7855 0.429504 13.6775 0.429504 14.0587C0.429504 14.1655 0.375078 14.3561 0.3051 14.478C0.149596 14.7754 -0.0758863 17.2684 0.0251919 17.6191C0.064068 17.7564 0.0796185 18.069 0.0562928 18.3206C0.0407423 18.5874 0.0796185 18.9915 0.149596 19.2964C0.219573 19.5861 0.274 19.9292 0.274 20.0588C0.274 20.1961 0.343977 20.6459 0.43728 21.0652C0.522807 21.4845 0.608335 21.9267 0.623885 22.0563C0.631661 22.1783 0.654986 22.3384 0.678312 22.3994C0.701638 22.4604 0.771615 22.6891 0.841592 22.9026C0.919344 23.1237 0.973771 23.3524 0.973771 23.4134C0.973771 23.4744 1.0593 23.7031 1.16815 23.9166C1.27701 24.1224 1.37031 24.4274 1.37808 24.5875C1.38586 24.7476 1.43251 24.9077 1.47916 24.9535C1.53359 24.9916 1.66577 25.266 1.7824 25.5558C2.00788 26.1123 2.11673 26.28 2.5988 26.7832C2.97201 27.1797 3.22859 27.538 3.22859 27.6752C3.22859 27.7362 3.33744 27.8811 3.46962 28.0107C3.6018 28.1327 3.86616 28.4529 4.04499 28.7274C4.2316 29.0018 4.62813 29.4745 4.93137 29.7871C5.2346 30.0997 5.48341 30.397 5.48341 30.4504C5.48341 30.5038 5.55339 30.5724 5.64669 30.5952C5.73222 30.6257 5.8333 30.7249 5.87217 30.824C5.91105 30.9231 6.051 31.0603 6.17541 31.1213C6.46309 31.2738 6.75855 31.5406 6.82853 31.716C6.85185 31.7922 6.95293 31.8532 7.04623 31.8532C7.13954 31.8532 7.22506 31.9142 7.24839 32.0057C7.27949 32.1124 7.35724 32.1582 7.51275 32.1582C7.62938 32.1582 7.746 32.1887 7.77711 32.2268C7.80043 32.2649 8.05701 32.4098 8.36025 32.5394C8.65571 32.6766 8.91229 32.8291 8.93562 32.8825C8.95117 32.9358 9.08335 32.9968 9.21552 33.0273C9.37103 33.0578 9.47988 33.1264 9.50321 33.2255C9.53431 33.3323 9.61206 33.378 9.75979 33.378C9.8842 33.378 10.0319 33.4238 10.0941 33.4847C10.1563 33.5457 10.3274 33.622 10.4829 33.6449C10.6384 33.6753 10.8483 33.7668 10.9416 33.8507C11.0427 33.9346 11.2138 34.0184 11.3382 34.0413C11.4548 34.0642 11.6181 34.1633 11.6958 34.2624C11.7736 34.3615 11.9135 34.4454 11.9991 34.4454C12.0924 34.4454 12.1779 34.4759 12.209 34.514C12.2323 34.5521 12.3645 34.6131 12.5045 34.636C12.9399 34.7351 14.1528 35.1544 14.1761 35.2154C14.1917 35.2535 14.3005 35.284 14.4249 35.284C14.5416 35.284 14.7748 35.3298 14.9459 35.3908C15.1169 35.4517 15.3424 35.4822 15.4513 35.4594C15.5679 35.4365 15.8945 35.4746 16.1899 35.5356C16.8042 35.6728 17.3873 35.7186 17.5117 35.6423C17.5661 35.6119 17.6905 35.6042 17.7994 35.6347C17.9082 35.6576 18.0404 35.65 18.0948 35.6195C18.1493 35.5814 18.5303 35.5432 18.9346 35.5356C20.3885 35.5051 20.8084 35.4289 21.6093 35.0401C21.687 34.9943 21.9825 34.9333 22.2546 34.8952C22.5267 34.8571 22.83 34.7808 22.9233 34.7198C23.0166 34.6665 23.2887 34.5597 23.522 34.4835C23.9652 34.3463 24.1673 34.27 24.5716 34.1023C25.007 33.9269 25.3491 33.8431 25.598 33.8507C25.8934 33.8583 26.2122 33.6753 26.2822 33.4543C26.3055 33.3704 26.391 33.3018 26.461 33.3018C26.531 33.3018 26.6943 33.2179 26.8187 33.1112C26.9508 33.0044 27.2619 32.8138 27.5184 32.6842C27.775 32.5546 28.1405 32.3411 28.3271 32.2115C28.5137 32.0743 28.8325 31.8761 29.0268 31.7693C29.3767 31.5711 29.5167 31.472 30.6052 30.641C31.3672 30.0616 32.6579 28.8341 32.8756 28.4834C32.9689 28.3385 33.2332 27.9802 33.4587 27.6905C33.6842 27.4008 33.8864 27.0806 33.9175 26.9738C33.9408 26.8671 34.0652 26.6155 34.1896 26.4096C34.3218 26.2038 34.4773 25.8912 34.5395 25.7235C34.6095 25.5481 34.7105 25.3423 34.7727 25.2584C34.8272 25.1746 34.8738 24.984 34.8738 24.8315C34.8738 24.679 34.936 24.4731 35.0138 24.374C35.0915 24.2749 35.2004 24.0157 35.2548 23.8099C35.3092 23.5964 35.4025 23.3219 35.4647 23.1999C35.5269 23.0703 35.6902 22.5595 35.8224 22.0563C36.1101 21.0118 36.1645 19.8759 35.9701 19.2964C35.8846 19.0448 35.8846 18.9076 35.9546 18.6331C36.0557 18.2367 36.0634 16.994 35.9701 16.5975C35.9312 16.445 35.9312 16.2697 35.9701 16.2163C36.0012 16.1553 35.9779 15.8885 35.9157 15.6216C35.8535 15.3548 35.8146 15.088 35.8379 15.0346C35.8613 14.9812 35.8457 14.9126 35.8068 14.8897C35.768 14.8669 35.7135 14.6839 35.6902 14.4857C35.6669 14.2874 35.6125 14.0663 35.5658 13.9901C35.5269 13.9215 35.4725 13.7004 35.4414 13.5174C35.4025 13.2048 35.3792 13.1743 35.1771 13.1743C35.0449 13.1743 34.9516 13.1286 34.9205 13.0371C34.8971 12.9685 34.8971 13.1057 34.9205 13.3573C34.936 13.6013 34.9904 13.8605 35.0293 13.9291C35.0682 13.9977 35.1226 14.3637 35.146 14.7449C35.1771 15.1185 35.247 15.5378 35.3092 15.6674C35.387 15.8275 35.4103 16.0181 35.3714 16.1858C35.3248 16.4374 35.2781 17.2303 35.2393 18.5112C35.2315 18.7856 35.247 19.0372 35.2704 19.083C35.3948 19.2812 35.3948 19.5099 35.2704 19.67C35.0604 19.9368 34.8194 20.4324 34.7572 20.7221C34.7261 20.867 34.6328 21.1262 34.5628 21.2939C34.3451 21.7819 34.244 22.0944 34.1041 22.7044C33.8864 23.6193 33.692 24.2597 33.5909 24.3817C33.5365 24.4426 33.381 24.7095 33.241 24.9763C33.1011 25.2432 32.8678 25.5481 32.7201 25.6625C32.5723 25.7769 32.3469 26.0742 32.2147 26.3258C32.0903 26.5774 31.8337 26.9738 31.6549 27.2025C31.476 27.4313 31.2817 27.7362 31.2272 27.8658C31.1261 28.1022 30.8696 28.3614 30.2864 28.8036C29.8977 29.1086 29.8743 29.1314 29.6333 29.4669C29.3378 29.8938 28.2338 30.9917 28.0394 31.0527C27.9461 31.0756 27.8761 31.1289 27.8761 31.1594C27.8761 31.1975 27.7128 31.2814 27.5107 31.3576C27.3007 31.4339 26.842 31.6397 26.4766 31.8227C26.1111 32.0057 25.6213 32.2268 25.388 32.3106C25.1548 32.4021 24.766 32.5622 24.5405 32.669C24.3073 32.7757 23.6386 32.9816 23.0632 33.1264C22.2002 33.3323 21.757 33.4009 20.6451 33.4619C19.8987 33.5076 19.059 33.5915 18.7946 33.6525C18.3592 33.744 18.2037 33.744 17.5895 33.6449C17.1929 33.5839 16.6331 33.4924 16.3299 33.4466C16.0344 33.4009 15.6301 33.3323 15.4357 33.2865C15.2413 33.2484 14.9614 33.195 14.8137 33.1798C13.2586 32.9968 13.2198 32.9892 12.5433 32.6461C12.1701 32.4631 11.8047 32.3106 11.7192 32.3106C11.4937 32.3106 10.2341 31.6092 10.1797 31.4491C10.1563 31.3653 10.0553 31.3195 9.89197 31.3195C9.61984 31.3119 9.29328 31.0908 9.29328 30.9155C9.29328 30.6944 9.19997 30.5571 9.04447 30.5571C8.95894 30.5571 8.74123 30.4504 8.55463 30.3284C8.36802 30.1988 8.18142 30.1073 8.15032 30.1149C8.08034 30.1302 7.76155 29.9548 7.22506 29.6194C6.85963 29.383 6.18318 28.7883 6.18318 28.6969C6.18318 28.5825 5.77109 28.1174 5.66224 28.1174C5.60781 28.1174 5.46786 28.0641 5.36678 27.9954C5.21905 27.904 5.18795 27.8277 5.21905 27.6676C5.25793 27.5075 5.21128 27.4008 5.06355 27.2407C4.95469 27.1263 4.86139 26.9815 4.86139 26.9281C4.86139 26.8671 4.79141 26.8213 4.70589 26.8213C4.49595 26.8213 4.28602 26.4935 4.34822 26.2495C4.3871 26.0894 4.36378 26.0589 4.14607 25.998C3.91281 25.937 3.88949 25.9065 3.88949 25.6472C3.88949 25.4566 3.84283 25.327 3.74176 25.2508C3.60958 25.1593 3.6018 25.1212 3.68733 24.9458C3.75731 24.7934 3.75731 24.7171 3.68733 24.6409C3.57848 24.5113 3.71843 24.3054 3.90504 24.3054C3.99056 24.3054 4.00611 24.252 3.97501 24.1224C3.94391 24.0081 3.99834 23.7794 4.12274 23.5125C4.2316 23.2762 4.31712 22.9865 4.31712 22.8721C4.31712 22.7501 4.356 22.6205 4.39488 22.5824C4.48818 22.4909 4.20827 21.881 4.01389 21.7437C3.91281 21.6599 3.90504 21.6294 4.00611 21.454C4.09942 21.2711 4.09942 21.2329 3.95169 21.0423C3.86616 20.928 3.71843 20.8289 3.6329 20.8136C3.5396 20.7984 3.42297 20.7297 3.36854 20.6535C3.31412 20.5773 3.18971 20.4782 3.09641 20.4248C2.99533 20.379 2.91758 20.2876 2.91758 20.2266C2.91758 20.1656 2.8476 20.0512 2.76208 19.975C2.57547 19.8072 2.29556 19.1287 2.29556 18.8619C2.29556 18.7475 2.24114 18.656 2.15561 18.6331C2.0623 18.6026 2.01565 18.5112 2.02343 18.3739C2.02343 18.2367 1.969 18.1452 1.85237 18.0918C1.73574 18.0461 1.68909 17.9622 1.68909 17.8097C1.69687 17.6878 1.67354 17.5734 1.65022 17.5429C1.61912 17.52 1.63467 17.4514 1.67354 17.4057C1.72797 17.3371 1.72797 17.2379 1.67354 17.1007C1.62689 16.9787 1.57246 16.5594 1.54914 16.163C1.51804 15.5454 1.53359 15.4158 1.66577 15.1947C1.75907 15.0346 1.79017 14.9202 1.74352 14.8745C1.69687 14.8287 1.69687 14.722 1.75129 14.5924C1.79017 14.478 1.82905 14.2646 1.82905 14.1197C1.82905 13.8681 2.04675 13.5555 2.21781 13.5555C2.26446 13.5555 2.25669 13.4793 2.20226 13.3649C2.10896 13.1591 2.21781 12.9456 2.41997 12.9456C2.54437 12.9456 2.55992 12.8617 2.45884 12.7474C2.33444 12.6102 2.28779 12.2595 2.39664 12.2595C2.45107 12.2595 2.60657 12.1451 2.74653 12.0079C2.97201 11.7791 2.98756 11.741 2.8787 11.6038C2.71542 11.3903 2.73875 11.276 2.95646 11.2226C3.13529 11.1768 3.15084 11.1463 3.10419 10.9252C3.06531 10.727 3.09641 10.6355 3.23637 10.4983C3.33744 10.3992 3.4152 10.2315 3.4152 10.0942C3.42297 9.91887 3.48517 9.82738 3.67178 9.7054C3.81173 9.62154 3.90504 9.50718 3.88949 9.45381C3.84283 9.3242 4.08387 8.90488 4.2005 8.90488C4.36378 8.90488 4.78364 8.3102 4.78364 8.08911C4.78364 7.84514 5.53006 6.93025 5.80997 6.82352C5.90327 6.79302 6.02768 6.69391 6.0821 6.61767C6.15986 6.51093 6.28426 6.46519 6.49419 6.46519C6.88295 6.46519 6.96848 6.33558 6.69635 6.12211C6.50974 5.97725 6.50197 5.94675 6.60304 5.86289C6.66525 5.80952 6.78965 5.78665 6.87518 5.81714C6.96848 5.84002 7.06178 5.81714 7.13176 5.74091C7.18619 5.67229 7.34947 5.49694 7.48942 5.35208C7.6216 5.20722 7.73823 5.03949 7.73823 4.9785C7.73823 4.91751 7.81598 4.82602 7.91706 4.78028C8.01036 4.72691 8.10367 4.66592 8.12699 4.63542C8.22029 4.51344 9.06779 4.03312 9.30883 3.96451C9.44878 3.92639 9.70536 3.8044 9.86864 3.69004C10.0319 3.58331 10.3118 3.4537 10.4907 3.40033C10.6695 3.35458 10.9883 3.21735 11.1982 3.10299C11.4159 2.98863 11.8747 2.79041 12.2245 2.6608C12.5822 2.53119 13.0176 2.35583 13.1964 2.27197C13.3753 2.18811 13.7096 2.09662 13.9429 2.06612C14.1684 2.04325 14.3705 1.98988 14.3938 1.95938C14.4172 1.92126 14.5416 1.89077 14.666 1.89077C14.7904 1.89077 14.977 1.84502 15.0703 1.78403C15.1636 1.72304 15.5057 1.63918 15.8245 1.58581C16.1433 1.54007 16.602 1.43333 16.8353 1.34946C17.6983 1.05975 18.5303 1.01401 20.2175 1.17411C20.4741 1.19698 20.9095 1.22748 21.1894 1.24273C21.4693 1.25798 21.8192 1.30372 21.9669 1.34184C22.6278 1.52482 23.0943 1.68492 23.2421 1.77641C23.3354 1.82978 23.5919 1.89077 23.8252 1.92126C24.0585 1.94414 24.2995 2.01276 24.3695 2.07375C24.4394 2.12711 24.6183 2.20335 24.766 2.23385C24.9837 2.27959 26.1889 2.8514 27.1763 3.37746C27.2852 3.43082 27.4562 3.51469 27.5651 3.56043C27.8683 3.69766 28.7391 4.30759 28.8636 4.48294C28.9258 4.5668 29.0268 4.63542 29.089 4.63542C29.1512 4.63542 29.1979 4.71166 29.1979 4.8184C29.1979 4.94801 29.3067 5.07761 29.5633 5.26822C29.9599 5.55793 30.0687 5.55793 30.1931 5.28346C30.3097 5.02425 30.2553 4.92513 29.8432 4.63542C29.6489 4.49819 29.3923 4.28472 29.2679 4.17035C29.1357 4.04837 28.9491 3.94926 28.848 3.94926C28.7391 3.94926 28.4592 3.79678 28.2027 3.60618C27.7595 3.27072 27.3785 3.042 26.7409 2.74466C26.5621 2.6608 26.391 2.55406 26.3677 2.50832C26.3366 2.46257 26.2511 2.42445 26.1733 2.42445C26.0956 2.42445 25.9712 2.35583 25.8934 2.27197C25.8157 2.18811 25.7224 2.11949 25.6757 2.11949C25.6368 2.11949 25.5124 2.0585 25.4036 1.97464C25.2869 1.8984 24.9293 1.76116 24.6105 1.66967C24.2917 1.57819 23.9574 1.47145 23.8719 1.44095C23.312 1.20461 23.0166 1.11312 22.4257 0.975887C22.0524 0.892021 21.6948 0.823406 21.6248 0.823406C21.5471 0.823406 21.3915 0.770039 21.2671 0.709045C21.1427 0.648052 20.754 0.579437 20.3963 0.556564C20.0387 0.533691 19.3467 0.480324 18.849 0.434582C18.0404 0.365963 16.5553 0.358341 16.4931 0.426956Z" fill="#FF5E0E"/>
</svg>
